G04 EAGLE Gerber RS-274X export*
G75*
%MOMM*%
%FSLAX34Y34*%
%LPD*%
%INTop Copper*%
%IPPOS*%
%AMOC8*
5,1,8,0,0,1.08239X$1,22.5*%
G01*
%ADD10C,1.650000*%
%ADD11R,1.725000X1.725000*%
%ADD12C,1.725000*%
%ADD13C,1.508000*%
%ADD14C,2.095500*%
%ADD15C,1.208000*%
%ADD16C,1.600000*%
%ADD17C,1.200000*%
%ADD18C,2.000000*%
%ADD19C,0.600000*%
%ADD20C,1.000000*%

G36*
X1019164Y10169D02*
X1019164Y10169D01*
X1019203Y10167D01*
X1019261Y10188D01*
X1019321Y10200D01*
X1019353Y10222D01*
X1019390Y10236D01*
X1019434Y10278D01*
X1019485Y10313D01*
X1019506Y10346D01*
X1019534Y10373D01*
X1019559Y10429D01*
X1019592Y10480D01*
X1019598Y10519D01*
X1019614Y10555D01*
X1019615Y10616D01*
X1019625Y10677D01*
X1019616Y10715D01*
X1019616Y10754D01*
X1019589Y10827D01*
X1019579Y10870D01*
X1019567Y10886D01*
X1019558Y10910D01*
X1017022Y15302D01*
X1015239Y21956D01*
X1015239Y28844D01*
X1017022Y35498D01*
X1020466Y41463D01*
X1025337Y46334D01*
X1031302Y49778D01*
X1037956Y51561D01*
X1044844Y51561D01*
X1051498Y49778D01*
X1055890Y47242D01*
X1055928Y47229D01*
X1055960Y47208D01*
X1056021Y47198D01*
X1056079Y47179D01*
X1056118Y47182D01*
X1056157Y47175D01*
X1056216Y47189D01*
X1056277Y47194D01*
X1056312Y47212D01*
X1056350Y47221D01*
X1056399Y47257D01*
X1056454Y47286D01*
X1056479Y47316D01*
X1056510Y47339D01*
X1056541Y47392D01*
X1056580Y47439D01*
X1056592Y47476D01*
X1056612Y47510D01*
X1056624Y47587D01*
X1056637Y47629D01*
X1056635Y47649D01*
X1056639Y47674D01*
X1056639Y460326D01*
X1056631Y460364D01*
X1056633Y460403D01*
X1056612Y460461D01*
X1056600Y460521D01*
X1056578Y460553D01*
X1056564Y460590D01*
X1056522Y460634D01*
X1056487Y460685D01*
X1056454Y460706D01*
X1056427Y460734D01*
X1056371Y460759D01*
X1056320Y460792D01*
X1056281Y460798D01*
X1056245Y460814D01*
X1056184Y460815D01*
X1056123Y460825D01*
X1056085Y460816D01*
X1056046Y460816D01*
X1055973Y460789D01*
X1055930Y460779D01*
X1055914Y460767D01*
X1055890Y460758D01*
X1051498Y458222D01*
X1044844Y456439D01*
X1037956Y456439D01*
X1031302Y458222D01*
X1025337Y461666D01*
X1020466Y466537D01*
X1017022Y472502D01*
X1015239Y479156D01*
X1015239Y486044D01*
X1017022Y492698D01*
X1019558Y497090D01*
X1019571Y497128D01*
X1019592Y497160D01*
X1019602Y497221D01*
X1019621Y497279D01*
X1019618Y497318D01*
X1019625Y497357D01*
X1019611Y497416D01*
X1019606Y497477D01*
X1019588Y497512D01*
X1019579Y497550D01*
X1019543Y497599D01*
X1019514Y497654D01*
X1019484Y497679D01*
X1019461Y497710D01*
X1019408Y497741D01*
X1019361Y497780D01*
X1019324Y497792D01*
X1019290Y497812D01*
X1019213Y497824D01*
X1019171Y497837D01*
X1019151Y497835D01*
X1019126Y497839D01*
X842010Y497839D01*
X842002Y497838D01*
X841993Y497839D01*
X841905Y497818D01*
X841815Y497800D01*
X841808Y497795D01*
X841800Y497793D01*
X841727Y497739D01*
X841651Y497687D01*
X841647Y497680D01*
X841640Y497675D01*
X841593Y497597D01*
X841544Y497520D01*
X841543Y497511D01*
X841538Y497504D01*
X841511Y497340D01*
X841511Y385309D01*
X710429Y385309D01*
X710429Y497340D01*
X710428Y497348D01*
X710429Y497357D01*
X710408Y497445D01*
X710390Y497535D01*
X710385Y497542D01*
X710383Y497550D01*
X710329Y497623D01*
X710277Y497699D01*
X710270Y497703D01*
X710265Y497710D01*
X710187Y497757D01*
X710110Y497806D01*
X710101Y497807D01*
X710094Y497812D01*
X709930Y497839D01*
X638729Y497839D01*
X638686Y497831D01*
X638643Y497832D01*
X638590Y497811D01*
X638534Y497800D01*
X638498Y497775D01*
X638458Y497759D01*
X638417Y497719D01*
X638370Y497687D01*
X638347Y497650D01*
X638316Y497620D01*
X638294Y497567D01*
X638263Y497520D01*
X638256Y497477D01*
X638239Y497436D01*
X638240Y497379D01*
X638230Y497323D01*
X638240Y497281D01*
X638240Y497238D01*
X638263Y497185D01*
X638276Y497130D01*
X638302Y497095D01*
X638319Y497055D01*
X638368Y497005D01*
X638394Y496970D01*
X638414Y496958D01*
X638436Y496936D01*
X639626Y496071D01*
X640851Y494846D01*
X641869Y493446D01*
X642655Y491903D01*
X643190Y490256D01*
X643440Y488679D01*
X632960Y488679D01*
X632952Y488678D01*
X632944Y488679D01*
X632855Y488658D01*
X632765Y488640D01*
X632758Y488635D01*
X632750Y488633D01*
X632677Y488579D01*
X632601Y488527D01*
X632597Y488520D01*
X632590Y488515D01*
X632544Y488437D01*
X632494Y488360D01*
X632493Y488351D01*
X632489Y488344D01*
X632461Y488180D01*
X632461Y487679D01*
X632459Y487679D01*
X632459Y488180D01*
X632457Y488188D01*
X632459Y488196D01*
X632438Y488285D01*
X632420Y488375D01*
X632415Y488382D01*
X632413Y488390D01*
X632359Y488463D01*
X632307Y488539D01*
X632300Y488543D01*
X632295Y488550D01*
X632217Y488596D01*
X632139Y488646D01*
X632131Y488647D01*
X632124Y488651D01*
X631960Y488679D01*
X621480Y488679D01*
X621730Y490256D01*
X622265Y491903D01*
X623051Y493446D01*
X624069Y494846D01*
X625294Y496071D01*
X626484Y496936D01*
X626514Y496968D01*
X626550Y496993D01*
X626580Y497041D01*
X626619Y497083D01*
X626633Y497124D01*
X626657Y497160D01*
X626666Y497217D01*
X626685Y497270D01*
X626683Y497314D01*
X626690Y497357D01*
X626677Y497412D01*
X626673Y497469D01*
X626654Y497508D01*
X626644Y497550D01*
X626610Y497596D01*
X626585Y497647D01*
X626552Y497675D01*
X626526Y497710D01*
X626477Y497739D01*
X626434Y497776D01*
X626392Y497789D01*
X626355Y497812D01*
X626286Y497823D01*
X626244Y497836D01*
X626221Y497834D01*
X626191Y497839D01*
X473629Y497839D01*
X473586Y497831D01*
X473543Y497832D01*
X473490Y497811D01*
X473434Y497800D01*
X473398Y497775D01*
X473358Y497759D01*
X473317Y497719D01*
X473270Y497687D01*
X473247Y497650D01*
X473216Y497620D01*
X473194Y497567D01*
X473163Y497520D01*
X473156Y497477D01*
X473139Y497436D01*
X473140Y497379D01*
X473130Y497323D01*
X473140Y497281D01*
X473140Y497238D01*
X473163Y497185D01*
X473176Y497130D01*
X473202Y497095D01*
X473219Y497055D01*
X473268Y497005D01*
X473294Y496970D01*
X473314Y496958D01*
X473336Y496936D01*
X474526Y496071D01*
X475751Y494846D01*
X476769Y493446D01*
X477555Y491903D01*
X478090Y490256D01*
X478340Y488679D01*
X467860Y488679D01*
X467852Y488678D01*
X467844Y488679D01*
X467755Y488658D01*
X467665Y488640D01*
X467658Y488635D01*
X467650Y488633D01*
X467577Y488579D01*
X467501Y488527D01*
X467497Y488520D01*
X467490Y488515D01*
X467444Y488437D01*
X467394Y488360D01*
X467393Y488351D01*
X467389Y488344D01*
X467361Y488180D01*
X467361Y487679D01*
X467359Y487679D01*
X467359Y488180D01*
X467357Y488188D01*
X467359Y488196D01*
X467338Y488285D01*
X467320Y488375D01*
X467315Y488382D01*
X467313Y488390D01*
X467259Y488463D01*
X467207Y488539D01*
X467200Y488543D01*
X467195Y488550D01*
X467117Y488596D01*
X467039Y488646D01*
X467031Y488647D01*
X467024Y488651D01*
X466860Y488679D01*
X456380Y488679D01*
X456630Y490256D01*
X457165Y491903D01*
X457951Y493446D01*
X458969Y494846D01*
X460194Y496071D01*
X461384Y496936D01*
X461414Y496968D01*
X461450Y496993D01*
X461480Y497041D01*
X461519Y497083D01*
X461533Y497124D01*
X461557Y497160D01*
X461566Y497217D01*
X461585Y497270D01*
X461583Y497314D01*
X461590Y497357D01*
X461577Y497412D01*
X461573Y497469D01*
X461554Y497508D01*
X461544Y497550D01*
X461510Y497596D01*
X461485Y497647D01*
X461452Y497675D01*
X461426Y497710D01*
X461377Y497739D01*
X461334Y497776D01*
X461292Y497789D01*
X461255Y497812D01*
X461186Y497823D01*
X461144Y497836D01*
X461121Y497834D01*
X461091Y497839D01*
X47674Y497839D01*
X47636Y497831D01*
X47597Y497833D01*
X47539Y497812D01*
X47479Y497800D01*
X47447Y497778D01*
X47410Y497764D01*
X47366Y497722D01*
X47315Y497687D01*
X47294Y497654D01*
X47266Y497627D01*
X47241Y497571D01*
X47208Y497520D01*
X47202Y497481D01*
X47186Y497445D01*
X47185Y497384D01*
X47175Y497323D01*
X47184Y497285D01*
X47184Y497246D01*
X47211Y497173D01*
X47221Y497130D01*
X47233Y497114D01*
X47242Y497090D01*
X49778Y492698D01*
X51561Y486044D01*
X51561Y479156D01*
X49778Y472502D01*
X46334Y466537D01*
X41463Y461666D01*
X35498Y458222D01*
X28844Y456439D01*
X21956Y456439D01*
X15302Y458222D01*
X10910Y460758D01*
X10872Y460771D01*
X10840Y460792D01*
X10779Y460802D01*
X10721Y460821D01*
X10682Y460818D01*
X10643Y460825D01*
X10584Y460811D01*
X10523Y460806D01*
X10488Y460788D01*
X10450Y460779D01*
X10401Y460743D01*
X10346Y460714D01*
X10321Y460684D01*
X10290Y460661D01*
X10259Y460608D01*
X10220Y460561D01*
X10208Y460524D01*
X10188Y460490D01*
X10176Y460413D01*
X10163Y460371D01*
X10165Y460351D01*
X10161Y460326D01*
X10161Y138930D01*
X10162Y138922D01*
X10161Y138913D01*
X10182Y138825D01*
X10200Y138735D01*
X10205Y138728D01*
X10207Y138720D01*
X10261Y138647D01*
X10313Y138571D01*
X10320Y138567D01*
X10325Y138560D01*
X10403Y138513D01*
X10480Y138464D01*
X10489Y138463D01*
X10496Y138458D01*
X10660Y138431D01*
X41391Y138431D01*
X45126Y136884D01*
X47984Y134026D01*
X49531Y130291D01*
X49531Y48779D01*
X47984Y45044D01*
X45721Y42782D01*
X45717Y42775D01*
X45710Y42770D01*
X45662Y42692D01*
X45611Y42616D01*
X45610Y42608D01*
X45605Y42601D01*
X45592Y42511D01*
X45575Y42420D01*
X45577Y42412D01*
X45576Y42404D01*
X45598Y42316D01*
X45618Y42226D01*
X45623Y42219D01*
X45625Y42211D01*
X45721Y42076D01*
X46334Y41463D01*
X49778Y35498D01*
X51561Y28844D01*
X51561Y21956D01*
X49778Y15302D01*
X47242Y10910D01*
X47229Y10872D01*
X47208Y10840D01*
X47198Y10779D01*
X47179Y10721D01*
X47182Y10682D01*
X47175Y10643D01*
X47189Y10584D01*
X47194Y10523D01*
X47212Y10488D01*
X47221Y10450D01*
X47257Y10401D01*
X47286Y10346D01*
X47316Y10321D01*
X47339Y10290D01*
X47392Y10259D01*
X47439Y10220D01*
X47476Y10208D01*
X47510Y10188D01*
X47587Y10176D01*
X47629Y10163D01*
X47649Y10165D01*
X47674Y10161D01*
X1019126Y10161D01*
X1019164Y10169D01*
G37*
G36*
X834398Y391932D02*
X834398Y391932D01*
X834407Y391931D01*
X834495Y391952D01*
X834585Y391970D01*
X834592Y391975D01*
X834600Y391977D01*
X834673Y392031D01*
X834749Y392083D01*
X834753Y392090D01*
X834760Y392095D01*
X834807Y392173D01*
X834856Y392250D01*
X834857Y392259D01*
X834862Y392266D01*
X834889Y392430D01*
X834889Y497340D01*
X834888Y497348D01*
X834889Y497357D01*
X834868Y497445D01*
X834850Y497535D01*
X834845Y497542D01*
X834843Y497550D01*
X834789Y497623D01*
X834737Y497699D01*
X834730Y497703D01*
X834725Y497710D01*
X834647Y497757D01*
X834570Y497806D01*
X834561Y497807D01*
X834554Y497812D01*
X834390Y497839D01*
X717550Y497839D01*
X717542Y497838D01*
X717533Y497839D01*
X717445Y497818D01*
X717355Y497800D01*
X717348Y497795D01*
X717340Y497793D01*
X717267Y497739D01*
X717191Y497687D01*
X717187Y497680D01*
X717180Y497675D01*
X717133Y497597D01*
X717084Y497520D01*
X717083Y497511D01*
X717078Y497504D01*
X717051Y497340D01*
X717051Y392430D01*
X717052Y392422D01*
X717051Y392413D01*
X717072Y392325D01*
X717090Y392235D01*
X717095Y392228D01*
X717097Y392220D01*
X717151Y392147D01*
X717203Y392071D01*
X717210Y392067D01*
X717215Y392060D01*
X717293Y392013D01*
X717370Y391964D01*
X717379Y391963D01*
X717386Y391958D01*
X717550Y391931D01*
X834390Y391931D01*
X834398Y391932D01*
G37*
%LPC*%
G36*
X605545Y102839D02*
X605545Y102839D01*
X600399Y104971D01*
X596461Y108909D01*
X594499Y113646D01*
X594491Y113658D01*
X594487Y113672D01*
X594391Y113808D01*
X543182Y165016D01*
X539736Y168462D01*
X537909Y172873D01*
X537909Y368160D01*
X537907Y368174D01*
X537909Y368187D01*
X537887Y368270D01*
X537870Y368355D01*
X537863Y368365D01*
X537861Y368369D01*
X537859Y368379D01*
X537855Y368385D01*
X535659Y373685D01*
X535659Y379355D01*
X537829Y384592D01*
X541838Y388601D01*
X547075Y390771D01*
X552745Y390771D01*
X557982Y388601D01*
X561991Y384592D01*
X564161Y379355D01*
X564161Y373685D01*
X561955Y368360D01*
X561948Y368349D01*
X561945Y368336D01*
X561938Y368324D01*
X561911Y368160D01*
X561911Y180438D01*
X561913Y180425D01*
X561911Y180413D01*
X561933Y180329D01*
X561950Y180243D01*
X561957Y180232D01*
X561961Y180220D01*
X562057Y180085D01*
X611362Y130779D01*
X611374Y130771D01*
X611383Y130760D01*
X611524Y130671D01*
X616261Y128709D01*
X620199Y124771D01*
X622331Y119625D01*
X622331Y114055D01*
X620199Y108909D01*
X616261Y104971D01*
X611115Y102839D01*
X605545Y102839D01*
G37*
%LPD*%
%LPC*%
G36*
X361032Y250619D02*
X361032Y250619D01*
X356989Y252294D01*
X353894Y255389D01*
X352219Y259432D01*
X352219Y263808D01*
X353894Y267851D01*
X356989Y270946D01*
X361032Y272621D01*
X365408Y272621D01*
X369451Y270946D01*
X372608Y267789D01*
X372625Y267764D01*
X372634Y267758D01*
X372640Y267750D01*
X372717Y267704D01*
X372792Y267656D01*
X372802Y267654D01*
X372811Y267648D01*
X372975Y267621D01*
X415138Y267621D01*
X415150Y267623D01*
X415162Y267621D01*
X415247Y267643D01*
X415332Y267660D01*
X415343Y267667D01*
X415355Y267671D01*
X415491Y267767D01*
X437789Y290065D01*
X437790Y290067D01*
X437792Y290068D01*
X437845Y290150D01*
X437899Y290231D01*
X437899Y290233D01*
X437900Y290235D01*
X437917Y290329D01*
X437935Y290427D01*
X437935Y290429D01*
X437935Y290431D01*
X437914Y290525D01*
X437892Y290621D01*
X437891Y290623D01*
X437891Y290625D01*
X437834Y290704D01*
X437777Y290783D01*
X437775Y290784D01*
X437774Y290786D01*
X437691Y290836D01*
X437608Y290887D01*
X437606Y290888D01*
X437604Y290889D01*
X437507Y290902D01*
X437411Y290917D01*
X437409Y290917D01*
X437407Y290917D01*
X437245Y290880D01*
X436653Y290634D01*
X432027Y290634D01*
X427755Y292404D01*
X424484Y295675D01*
X422714Y299947D01*
X422714Y304573D01*
X424484Y308845D01*
X427755Y312116D01*
X432027Y313886D01*
X436653Y313886D01*
X440925Y312116D01*
X444196Y308845D01*
X445966Y304573D01*
X445966Y299947D01*
X445720Y299355D01*
X445720Y299353D01*
X445719Y299351D01*
X445701Y299254D01*
X445682Y299160D01*
X445683Y299158D01*
X445682Y299156D01*
X445704Y299059D01*
X445724Y298965D01*
X445725Y298964D01*
X445725Y298961D01*
X445781Y298882D01*
X445837Y298802D01*
X445839Y298801D01*
X445840Y298799D01*
X445922Y298749D01*
X446006Y298697D01*
X446008Y298696D01*
X446010Y298695D01*
X446106Y298681D01*
X446202Y298665D01*
X446204Y298666D01*
X446206Y298665D01*
X446301Y298689D01*
X446395Y298713D01*
X446397Y298714D01*
X446399Y298714D01*
X446535Y298811D01*
X447329Y299605D01*
X447335Y299614D01*
X447344Y299621D01*
X447389Y299697D01*
X447439Y299771D01*
X447441Y299782D01*
X447446Y299791D01*
X447459Y299879D01*
X447475Y299967D01*
X447473Y299977D01*
X447474Y299988D01*
X447469Y300010D01*
X447469Y304448D01*
X449144Y308491D01*
X452239Y311586D01*
X456282Y313261D01*
X460658Y313261D01*
X464701Y311586D01*
X467796Y308491D01*
X468803Y306059D01*
X468817Y306039D01*
X468824Y306016D01*
X468872Y305958D01*
X468915Y305894D01*
X468935Y305881D01*
X468950Y305863D01*
X469017Y305827D01*
X469081Y305786D01*
X469105Y305782D01*
X469126Y305771D01*
X469202Y305764D01*
X469277Y305751D01*
X469301Y305756D01*
X469324Y305755D01*
X469397Y305778D01*
X469471Y305795D01*
X469490Y305810D01*
X469513Y305817D01*
X469570Y305867D01*
X469632Y305912D01*
X469644Y305933D01*
X469662Y305948D01*
X469716Y306052D01*
X469735Y306082D01*
X469736Y306089D01*
X469740Y306096D01*
X469865Y306483D01*
X470651Y308026D01*
X471669Y309426D01*
X472894Y310651D01*
X474294Y311669D01*
X475837Y312455D01*
X477484Y312990D01*
X479061Y313240D01*
X479061Y302760D01*
X479062Y302752D01*
X479061Y302744D01*
X479082Y302655D01*
X479100Y302565D01*
X479105Y302558D01*
X479107Y302550D01*
X479161Y302477D01*
X479213Y302401D01*
X479220Y302397D01*
X479225Y302390D01*
X479303Y302344D01*
X479380Y302294D01*
X479389Y302293D01*
X479396Y302289D01*
X479560Y302261D01*
X480061Y302261D01*
X480061Y302259D01*
X479560Y302259D01*
X479552Y302257D01*
X479543Y302259D01*
X479455Y302238D01*
X479365Y302220D01*
X479358Y302215D01*
X479350Y302213D01*
X479277Y302159D01*
X479201Y302107D01*
X479197Y302100D01*
X479190Y302095D01*
X479143Y302017D01*
X479094Y301939D01*
X479093Y301931D01*
X479088Y301924D01*
X479061Y301760D01*
X479061Y291280D01*
X477484Y291530D01*
X475837Y292065D01*
X474294Y292851D01*
X472894Y293869D01*
X471669Y295094D01*
X470651Y296494D01*
X469865Y298037D01*
X469740Y298424D01*
X469728Y298445D01*
X469723Y298468D01*
X469679Y298531D01*
X469642Y298597D01*
X469623Y298612D01*
X469609Y298632D01*
X469544Y298672D01*
X469484Y298718D01*
X469461Y298724D01*
X469440Y298737D01*
X469365Y298749D01*
X469292Y298768D01*
X469268Y298765D01*
X469244Y298769D01*
X469170Y298750D01*
X469095Y298739D01*
X469074Y298727D01*
X469051Y298721D01*
X468990Y298675D01*
X468925Y298636D01*
X468911Y298616D01*
X468892Y298602D01*
X468830Y298503D01*
X468809Y298474D01*
X468808Y298468D01*
X468803Y298461D01*
X467796Y296029D01*
X464701Y292934D01*
X460658Y291259D01*
X456195Y291259D01*
X456165Y291265D01*
X456154Y291263D01*
X456143Y291265D01*
X456057Y291243D01*
X455970Y291224D01*
X455961Y291218D01*
X455951Y291215D01*
X455815Y291119D01*
X422987Y258291D01*
X421229Y256533D01*
X419024Y255619D01*
X372975Y255619D01*
X372965Y255617D01*
X372955Y255619D01*
X372868Y255598D01*
X372780Y255580D01*
X372772Y255574D01*
X372762Y255571D01*
X372690Y255518D01*
X372616Y255467D01*
X372611Y255458D01*
X372602Y255452D01*
X372590Y255433D01*
X369451Y252294D01*
X365408Y250619D01*
X361032Y250619D01*
G37*
%LPD*%
%LPC*%
G36*
X655672Y335709D02*
X655672Y335709D01*
X651629Y337384D01*
X648534Y340479D01*
X646859Y344522D01*
X646859Y348898D01*
X648534Y352941D01*
X648713Y353120D01*
X648720Y353131D01*
X648730Y353138D01*
X648775Y353213D01*
X648823Y353286D01*
X648825Y353299D01*
X648832Y353309D01*
X648859Y353473D01*
X648859Y411067D01*
X648858Y411071D01*
X648859Y411075D01*
X648857Y411082D01*
X648859Y411091D01*
X648837Y411176D01*
X648820Y411261D01*
X648813Y411272D01*
X648809Y411284D01*
X648713Y411420D01*
X648534Y411599D01*
X646859Y415642D01*
X646859Y420018D01*
X648534Y424061D01*
X651629Y427156D01*
X655672Y428831D01*
X660048Y428831D01*
X664091Y427156D01*
X667186Y424061D01*
X668861Y420018D01*
X668861Y415642D01*
X667186Y411599D01*
X667007Y411420D01*
X667000Y411409D01*
X666990Y411402D01*
X666945Y411327D01*
X666897Y411254D01*
X666895Y411241D01*
X666888Y411231D01*
X666861Y411067D01*
X666861Y353473D01*
X666863Y353461D01*
X666861Y353449D01*
X666883Y353364D01*
X666900Y353279D01*
X666907Y353268D01*
X666911Y353256D01*
X667007Y353120D01*
X667186Y352941D01*
X668861Y348898D01*
X668861Y344522D01*
X667186Y340479D01*
X664091Y337384D01*
X660048Y335709D01*
X655672Y335709D01*
G37*
%LPD*%
%LPC*%
G36*
X123722Y441674D02*
X123722Y441674D01*
X117666Y444183D01*
X113030Y448818D01*
X110522Y454875D01*
X110522Y482385D01*
X113030Y488442D01*
X117666Y493077D01*
X123722Y495586D01*
X130278Y495586D01*
X136334Y493077D01*
X140970Y488442D01*
X143478Y482385D01*
X143478Y454875D01*
X140970Y448818D01*
X136334Y444183D01*
X130278Y441674D01*
X123722Y441674D01*
G37*
%LPD*%
%LPC*%
G36*
X368832Y441674D02*
X368832Y441674D01*
X362776Y444183D01*
X358140Y448818D01*
X355632Y454875D01*
X355632Y482385D01*
X358140Y488442D01*
X362776Y493077D01*
X368832Y495586D01*
X375388Y495586D01*
X381444Y493077D01*
X386080Y488442D01*
X388588Y482385D01*
X388588Y454875D01*
X386080Y448818D01*
X381444Y444183D01*
X375388Y441674D01*
X368832Y441674D01*
G37*
%LPD*%
%LPC*%
G36*
X987322Y441674D02*
X987322Y441674D01*
X981266Y444183D01*
X976630Y448818D01*
X974122Y454875D01*
X974122Y482385D01*
X976630Y488442D01*
X981266Y493077D01*
X987322Y495586D01*
X993878Y495586D01*
X999934Y493077D01*
X1004570Y488442D01*
X1007078Y482385D01*
X1007078Y454875D01*
X1004570Y448818D01*
X999934Y444183D01*
X993878Y441674D01*
X987322Y441674D01*
G37*
%LPD*%
%LPC*%
G36*
X936522Y441674D02*
X936522Y441674D01*
X930466Y444183D01*
X925830Y448818D01*
X923322Y454875D01*
X923322Y482385D01*
X925830Y488442D01*
X930466Y493077D01*
X936522Y495586D01*
X943078Y495586D01*
X949134Y493077D01*
X953770Y488442D01*
X956278Y482385D01*
X956278Y454875D01*
X953770Y448818D01*
X949134Y444183D01*
X943078Y441674D01*
X936522Y441674D01*
G37*
%LPD*%
%LPC*%
G36*
X997250Y250263D02*
X997250Y250263D01*
X995199Y252314D01*
X995199Y289214D01*
X997250Y291265D01*
X1026150Y291265D01*
X1028201Y289214D01*
X1028201Y252314D01*
X1026150Y250263D01*
X997250Y250263D01*
G37*
%LPD*%
%LPC*%
G36*
X904250Y250263D02*
X904250Y250263D01*
X902199Y252314D01*
X902199Y289214D01*
X904250Y291265D01*
X933150Y291265D01*
X935201Y289214D01*
X935201Y252314D01*
X933150Y250263D01*
X904250Y250263D01*
G37*
%LPD*%
G36*
X1024708Y253266D02*
X1024708Y253266D01*
X1024717Y253265D01*
X1024805Y253286D01*
X1024895Y253304D01*
X1024902Y253309D01*
X1024910Y253311D01*
X1024983Y253365D01*
X1025059Y253417D01*
X1025063Y253424D01*
X1025070Y253429D01*
X1025117Y253507D01*
X1025166Y253584D01*
X1025167Y253593D01*
X1025172Y253600D01*
X1025199Y253764D01*
X1025199Y287764D01*
X1025198Y287772D01*
X1025199Y287781D01*
X1025178Y287869D01*
X1025160Y287959D01*
X1025155Y287966D01*
X1025153Y287974D01*
X1025099Y288047D01*
X1025047Y288123D01*
X1025040Y288127D01*
X1025035Y288134D01*
X1024957Y288181D01*
X1024880Y288230D01*
X1024871Y288231D01*
X1024864Y288236D01*
X1024700Y288263D01*
X998700Y288263D01*
X998692Y288262D01*
X998683Y288263D01*
X998595Y288242D01*
X998505Y288224D01*
X998498Y288219D01*
X998490Y288217D01*
X998417Y288163D01*
X998341Y288111D01*
X998337Y288104D01*
X998330Y288099D01*
X998283Y288021D01*
X998234Y287944D01*
X998233Y287935D01*
X998228Y287928D01*
X998201Y287764D01*
X998201Y253764D01*
X998202Y253756D01*
X998201Y253747D01*
X998222Y253659D01*
X998240Y253569D01*
X998245Y253562D01*
X998247Y253554D01*
X998301Y253481D01*
X998353Y253405D01*
X998360Y253401D01*
X998365Y253394D01*
X998443Y253347D01*
X998520Y253298D01*
X998529Y253297D01*
X998536Y253292D01*
X998700Y253265D01*
X1024700Y253265D01*
X1024708Y253266D01*
G37*
G36*
X931708Y253266D02*
X931708Y253266D01*
X931717Y253265D01*
X931805Y253286D01*
X931895Y253304D01*
X931902Y253309D01*
X931910Y253311D01*
X931983Y253365D01*
X932059Y253417D01*
X932063Y253424D01*
X932070Y253429D01*
X932117Y253507D01*
X932166Y253584D01*
X932167Y253593D01*
X932172Y253600D01*
X932199Y253764D01*
X932199Y287764D01*
X932198Y287772D01*
X932199Y287781D01*
X932178Y287869D01*
X932160Y287959D01*
X932155Y287966D01*
X932153Y287974D01*
X932099Y288047D01*
X932047Y288123D01*
X932040Y288127D01*
X932035Y288134D01*
X931957Y288181D01*
X931880Y288230D01*
X931871Y288231D01*
X931864Y288236D01*
X931700Y288263D01*
X905700Y288263D01*
X905692Y288262D01*
X905683Y288263D01*
X905595Y288242D01*
X905505Y288224D01*
X905498Y288219D01*
X905490Y288217D01*
X905417Y288163D01*
X905341Y288111D01*
X905337Y288104D01*
X905330Y288099D01*
X905283Y288021D01*
X905234Y287944D01*
X905233Y287935D01*
X905228Y287928D01*
X905201Y287764D01*
X905201Y253764D01*
X905202Y253756D01*
X905201Y253747D01*
X905222Y253659D01*
X905240Y253569D01*
X905245Y253562D01*
X905247Y253554D01*
X905301Y253481D01*
X905353Y253405D01*
X905360Y253401D01*
X905365Y253394D01*
X905443Y253347D01*
X905520Y253298D01*
X905529Y253297D01*
X905536Y253292D01*
X905700Y253265D01*
X931700Y253265D01*
X931708Y253266D01*
G37*
%LPC*%
G36*
X822761Y283609D02*
X822761Y283609D01*
X818718Y285284D01*
X815623Y288379D01*
X813948Y292422D01*
X813948Y296798D01*
X813970Y296851D01*
X813973Y296864D01*
X813979Y296874D01*
X813992Y296961D01*
X814008Y297046D01*
X814006Y297059D01*
X814007Y297071D01*
X813970Y297233D01*
X813149Y299215D01*
X813149Y316635D01*
X813147Y316645D01*
X813149Y316655D01*
X813128Y316742D01*
X813110Y316830D01*
X813104Y316838D01*
X813101Y316848D01*
X813048Y316920D01*
X812997Y316994D01*
X812988Y316999D01*
X812982Y317008D01*
X812963Y317020D01*
X809824Y320159D01*
X808149Y324202D01*
X808149Y328578D01*
X809824Y332621D01*
X812919Y335716D01*
X816962Y337391D01*
X821338Y337391D01*
X825381Y335716D01*
X828476Y332621D01*
X830151Y328578D01*
X830151Y324202D01*
X828476Y320159D01*
X825319Y317002D01*
X825294Y316985D01*
X825288Y316976D01*
X825280Y316970D01*
X825234Y316893D01*
X825186Y316818D01*
X825184Y316808D01*
X825178Y316799D01*
X825151Y316635D01*
X825151Y306110D01*
X825152Y306102D01*
X825151Y306093D01*
X825172Y306005D01*
X825190Y305915D01*
X825195Y305908D01*
X825197Y305900D01*
X825251Y305827D01*
X825303Y305751D01*
X825310Y305747D01*
X825315Y305740D01*
X825393Y305693D01*
X825470Y305644D01*
X825479Y305643D01*
X825486Y305638D01*
X825650Y305611D01*
X827137Y305611D01*
X831180Y303936D01*
X834275Y300841D01*
X835950Y296798D01*
X835950Y292422D01*
X834275Y288379D01*
X831180Y285284D01*
X827137Y283609D01*
X822761Y283609D01*
G37*
%LPD*%
%LPC*%
G36*
X938103Y330223D02*
X938103Y330223D01*
X934229Y331828D01*
X931264Y334793D01*
X929659Y338667D01*
X929659Y342861D01*
X931264Y346735D01*
X934229Y349700D01*
X938103Y351305D01*
X942048Y351305D01*
X942060Y351307D01*
X942072Y351305D01*
X942157Y351327D01*
X942242Y351344D01*
X942253Y351351D01*
X942265Y351355D01*
X942401Y351451D01*
X950620Y359670D01*
X950626Y359679D01*
X950634Y359685D01*
X950680Y359761D01*
X950730Y359836D01*
X950731Y359846D01*
X950737Y359855D01*
X950750Y359943D01*
X950766Y360031D01*
X950764Y360042D01*
X950765Y360052D01*
X950728Y360214D01*
X950389Y361032D01*
X950389Y365408D01*
X952064Y369451D01*
X955159Y372546D01*
X959202Y374221D01*
X963578Y374221D01*
X967621Y372546D01*
X970716Y369451D01*
X972391Y365408D01*
X972391Y361032D01*
X970716Y356989D01*
X967621Y353894D01*
X963578Y352219D01*
X960348Y352219D01*
X960336Y352217D01*
X960324Y352219D01*
X960239Y352197D01*
X960154Y352180D01*
X960143Y352173D01*
X960131Y352169D01*
X959995Y352073D01*
X950887Y342965D01*
X950880Y342954D01*
X950870Y342947D01*
X950825Y342872D01*
X950777Y342799D01*
X950775Y342786D01*
X950768Y342776D01*
X950741Y342612D01*
X950741Y338667D01*
X949136Y334793D01*
X946171Y331828D01*
X942297Y330223D01*
X938103Y330223D01*
G37*
%LPD*%
%LPC*%
G36*
X102342Y58629D02*
X102342Y58629D01*
X99019Y60006D01*
X96476Y62549D01*
X95099Y65872D01*
X95099Y69468D01*
X96476Y72791D01*
X98501Y74817D01*
X98506Y74824D01*
X98513Y74829D01*
X98561Y74906D01*
X98611Y74983D01*
X98613Y74991D01*
X98617Y74998D01*
X98631Y75088D01*
X98648Y75178D01*
X98646Y75187D01*
X98647Y75195D01*
X98625Y75283D01*
X98605Y75372D01*
X98600Y75379D01*
X98598Y75387D01*
X98501Y75523D01*
X96476Y77549D01*
X95099Y80872D01*
X95099Y84468D01*
X96476Y87791D01*
X98501Y89817D01*
X98506Y89824D01*
X98513Y89829D01*
X98561Y89906D01*
X98611Y89983D01*
X98613Y89991D01*
X98617Y89998D01*
X98631Y90088D01*
X98648Y90178D01*
X98646Y90187D01*
X98647Y90195D01*
X98625Y90283D01*
X98605Y90372D01*
X98600Y90379D01*
X98598Y90387D01*
X98501Y90523D01*
X96476Y92549D01*
X95099Y95872D01*
X95099Y99468D01*
X96476Y102791D01*
X98519Y104835D01*
X98551Y104883D01*
X98590Y104924D01*
X98605Y104965D01*
X98629Y105001D01*
X98640Y105057D01*
X98660Y105111D01*
X98658Y105154D01*
X98665Y105196D01*
X98653Y105252D01*
X98651Y105309D01*
X98632Y105348D01*
X98623Y105390D01*
X98589Y105437D01*
X98565Y105489D01*
X98528Y105523D01*
X98507Y105552D01*
X98478Y105570D01*
X98444Y105603D01*
X98377Y105648D01*
X97118Y106907D01*
X96128Y108388D01*
X95447Y110033D01*
X95121Y111671D01*
X103640Y111671D01*
X103648Y111672D01*
X103656Y111671D01*
X103745Y111692D01*
X103835Y111710D01*
X103842Y111715D01*
X103850Y111717D01*
X103923Y111771D01*
X103999Y111823D01*
X104003Y111830D01*
X104010Y111835D01*
X104056Y111913D01*
X104106Y111990D01*
X104107Y111999D01*
X104111Y112006D01*
X104139Y112170D01*
X104139Y112671D01*
X104141Y112671D01*
X104141Y112170D01*
X104143Y112162D01*
X104141Y112153D01*
X104162Y112065D01*
X104180Y111975D01*
X104185Y111968D01*
X104187Y111960D01*
X104241Y111887D01*
X104293Y111811D01*
X104300Y111807D01*
X104305Y111800D01*
X104383Y111753D01*
X104461Y111704D01*
X104469Y111703D01*
X104476Y111698D01*
X104640Y111671D01*
X113159Y111671D01*
X112833Y110033D01*
X112152Y108388D01*
X111162Y106907D01*
X109903Y105648D01*
X109836Y105603D01*
X109796Y105562D01*
X109749Y105529D01*
X109727Y105492D01*
X109696Y105462D01*
X109675Y105408D01*
X109645Y105360D01*
X109638Y105317D01*
X109623Y105277D01*
X109624Y105220D01*
X109615Y105163D01*
X109626Y105121D01*
X109627Y105078D01*
X109650Y105026D01*
X109664Y104970D01*
X109693Y104930D01*
X109708Y104897D01*
X109733Y104874D01*
X109761Y104835D01*
X111804Y102791D01*
X113181Y99468D01*
X113181Y95872D01*
X111804Y92549D01*
X109779Y90523D01*
X109774Y90516D01*
X109767Y90511D01*
X109719Y90434D01*
X109669Y90357D01*
X109667Y90349D01*
X109663Y90342D01*
X109649Y90252D01*
X109632Y90162D01*
X109634Y90154D01*
X109633Y90145D01*
X109655Y90057D01*
X109675Y89968D01*
X109680Y89961D01*
X109682Y89953D01*
X109779Y89817D01*
X111804Y87791D01*
X113181Y84468D01*
X113181Y80872D01*
X111804Y77549D01*
X109779Y75523D01*
X109774Y75516D01*
X109767Y75511D01*
X109719Y75434D01*
X109669Y75357D01*
X109667Y75349D01*
X109663Y75342D01*
X109649Y75252D01*
X109632Y75162D01*
X109634Y75154D01*
X109633Y75145D01*
X109655Y75057D01*
X109675Y74968D01*
X109680Y74961D01*
X109682Y74953D01*
X109779Y74817D01*
X111804Y72791D01*
X113181Y69468D01*
X113181Y65872D01*
X111804Y62549D01*
X109261Y60006D01*
X105938Y58629D01*
X102342Y58629D01*
G37*
%LPD*%
%LPC*%
G36*
X68872Y138234D02*
X68872Y138234D01*
X67114Y139992D01*
X67114Y159728D01*
X68872Y161486D01*
X88608Y161486D01*
X90366Y159728D01*
X90366Y139992D01*
X88608Y138234D01*
X68872Y138234D01*
G37*
%LPD*%
%LPC*%
G36*
X68872Y290634D02*
X68872Y290634D01*
X67114Y292392D01*
X67114Y312128D01*
X68872Y313886D01*
X88608Y313886D01*
X90366Y312128D01*
X90366Y292392D01*
X88608Y290634D01*
X68872Y290634D01*
G37*
%LPD*%
%LPC*%
G36*
X920479Y195080D02*
X920479Y195080D01*
X920478Y195088D01*
X920479Y195096D01*
X920458Y195185D01*
X920440Y195275D01*
X920435Y195282D01*
X920433Y195290D01*
X920379Y195363D01*
X920327Y195439D01*
X920320Y195443D01*
X920315Y195450D01*
X920237Y195496D01*
X920160Y195546D01*
X920151Y195547D01*
X920144Y195551D01*
X919980Y195579D01*
X919479Y195579D01*
X919479Y195581D01*
X919980Y195581D01*
X919988Y195583D01*
X919996Y195581D01*
X920085Y195602D01*
X920175Y195620D01*
X920182Y195625D01*
X920190Y195627D01*
X920263Y195681D01*
X920339Y195733D01*
X920343Y195740D01*
X920350Y195745D01*
X920396Y195823D01*
X920446Y195901D01*
X920447Y195909D01*
X920451Y195916D01*
X920479Y196080D01*
X920479Y206560D01*
X922056Y206310D01*
X923703Y205775D01*
X925246Y204989D01*
X926646Y203971D01*
X927871Y202746D01*
X928889Y201346D01*
X929618Y199914D01*
X929671Y199848D01*
X929719Y199779D01*
X929732Y199770D01*
X929742Y199758D01*
X929816Y199718D01*
X929887Y199673D01*
X929903Y199671D01*
X929917Y199663D01*
X930001Y199655D01*
X930084Y199641D01*
X930099Y199645D01*
X930115Y199644D01*
X930195Y199669D01*
X930277Y199689D01*
X930289Y199698D01*
X930304Y199703D01*
X930369Y199758D01*
X930436Y199808D01*
X930445Y199823D01*
X930456Y199832D01*
X930476Y199872D01*
X930524Y199949D01*
X931264Y201735D01*
X934229Y204700D01*
X938103Y206305D01*
X942297Y206305D01*
X946171Y204700D01*
X949136Y201735D01*
X950741Y197861D01*
X950741Y193667D01*
X949136Y189793D01*
X946171Y186828D01*
X942297Y185223D01*
X938103Y185223D01*
X934229Y186828D01*
X931264Y189793D01*
X930606Y191381D01*
X930593Y191401D01*
X930586Y191424D01*
X930538Y191482D01*
X930495Y191545D01*
X930475Y191559D01*
X930460Y191577D01*
X930392Y191612D01*
X930329Y191654D01*
X930305Y191658D01*
X930283Y191669D01*
X930208Y191675D01*
X930133Y191689D01*
X930109Y191683D01*
X930085Y191685D01*
X930013Y191661D01*
X929939Y191644D01*
X929919Y191630D01*
X929897Y191622D01*
X929840Y191572D01*
X929778Y191528D01*
X929765Y191507D01*
X929747Y191491D01*
X929703Y191406D01*
X929693Y191392D01*
X928889Y189814D01*
X927871Y188414D01*
X926646Y187189D01*
X925246Y186171D01*
X923703Y185385D01*
X922056Y184850D01*
X920479Y184600D01*
X920479Y195080D01*
G37*
%LPD*%
%LPC*%
G36*
X178027Y290634D02*
X178027Y290634D01*
X173755Y292404D01*
X170484Y295675D01*
X168714Y299947D01*
X168714Y304573D01*
X170484Y308845D01*
X173755Y312116D01*
X178027Y313886D01*
X182653Y313886D01*
X186925Y312116D01*
X190196Y308845D01*
X191966Y304573D01*
X191966Y299947D01*
X190196Y295675D01*
X186925Y292404D01*
X182653Y290634D01*
X178027Y290634D01*
G37*
%LPD*%
%LPC*%
G36*
X127227Y290634D02*
X127227Y290634D01*
X122955Y292404D01*
X119684Y295675D01*
X117914Y299947D01*
X117914Y304573D01*
X119684Y308845D01*
X122955Y312116D01*
X127227Y313886D01*
X131853Y313886D01*
X136125Y312116D01*
X139396Y308845D01*
X141166Y304573D01*
X141166Y299947D01*
X139396Y295675D01*
X136125Y292404D01*
X131853Y290634D01*
X127227Y290634D01*
G37*
%LPD*%
%LPC*%
G36*
X406627Y138234D02*
X406627Y138234D01*
X402355Y140004D01*
X399084Y143275D01*
X397314Y147547D01*
X397314Y152173D01*
X399084Y156445D01*
X402355Y159716D01*
X406627Y161486D01*
X411253Y161486D01*
X415525Y159716D01*
X418796Y156445D01*
X420566Y152173D01*
X420566Y147547D01*
X418796Y143275D01*
X415525Y140004D01*
X411253Y138234D01*
X406627Y138234D01*
G37*
%LPD*%
%LPC*%
G36*
X101827Y290634D02*
X101827Y290634D01*
X97555Y292404D01*
X94284Y295675D01*
X92514Y299947D01*
X92514Y304573D01*
X94284Y308845D01*
X97555Y312116D01*
X101827Y313886D01*
X106453Y313886D01*
X110725Y312116D01*
X113996Y308845D01*
X115766Y304573D01*
X115766Y299947D01*
X113996Y295675D01*
X110725Y292404D01*
X106453Y290634D01*
X101827Y290634D01*
G37*
%LPD*%
%LPC*%
G36*
X381227Y290634D02*
X381227Y290634D01*
X376955Y292404D01*
X373684Y295675D01*
X371914Y299947D01*
X371914Y304573D01*
X373684Y308845D01*
X376955Y312116D01*
X381227Y313886D01*
X385853Y313886D01*
X390125Y312116D01*
X393396Y308845D01*
X395166Y304573D01*
X395166Y299947D01*
X393396Y295675D01*
X390125Y292404D01*
X385853Y290634D01*
X381227Y290634D01*
G37*
%LPD*%
%LPC*%
G36*
X178027Y138234D02*
X178027Y138234D01*
X173755Y140004D01*
X170484Y143275D01*
X168714Y147547D01*
X168714Y152173D01*
X170484Y156445D01*
X173755Y159716D01*
X178027Y161486D01*
X182653Y161486D01*
X186925Y159716D01*
X190196Y156445D01*
X191966Y152173D01*
X191966Y147547D01*
X190196Y143275D01*
X186925Y140004D01*
X182653Y138234D01*
X178027Y138234D01*
G37*
%LPD*%
%LPC*%
G36*
X432027Y138234D02*
X432027Y138234D01*
X427755Y140004D01*
X424484Y143275D01*
X422714Y147547D01*
X422714Y152173D01*
X424484Y156445D01*
X427755Y159716D01*
X432027Y161486D01*
X436653Y161486D01*
X440925Y159716D01*
X444196Y156445D01*
X445966Y152173D01*
X445966Y147547D01*
X444196Y143275D01*
X440925Y140004D01*
X436653Y138234D01*
X432027Y138234D01*
G37*
%LPD*%
%LPC*%
G36*
X381227Y138234D02*
X381227Y138234D01*
X376955Y140004D01*
X373684Y143275D01*
X371914Y147547D01*
X371914Y152173D01*
X373684Y156445D01*
X376955Y159716D01*
X381227Y161486D01*
X385853Y161486D01*
X390125Y159716D01*
X393396Y156445D01*
X395166Y152173D01*
X395166Y147547D01*
X393396Y143275D01*
X390125Y140004D01*
X385853Y138234D01*
X381227Y138234D01*
G37*
%LPD*%
%LPC*%
G36*
X203427Y290634D02*
X203427Y290634D01*
X199155Y292404D01*
X195884Y295675D01*
X194114Y299947D01*
X194114Y304573D01*
X195884Y308845D01*
X199155Y312116D01*
X203427Y313886D01*
X208053Y313886D01*
X212325Y312116D01*
X215596Y308845D01*
X217366Y304573D01*
X217366Y299947D01*
X215596Y295675D01*
X212325Y292404D01*
X208053Y290634D01*
X203427Y290634D01*
G37*
%LPD*%
%LPC*%
G36*
X406627Y290634D02*
X406627Y290634D01*
X402355Y292404D01*
X399084Y295675D01*
X397314Y299947D01*
X397314Y304573D01*
X399084Y308845D01*
X402355Y312116D01*
X406627Y313886D01*
X411253Y313886D01*
X415525Y312116D01*
X418796Y308845D01*
X420566Y304573D01*
X420566Y299947D01*
X418796Y295675D01*
X415525Y292404D01*
X411253Y290634D01*
X406627Y290634D01*
G37*
%LPD*%
%LPC*%
G36*
X355827Y290634D02*
X355827Y290634D01*
X351555Y292404D01*
X348284Y295675D01*
X346514Y299947D01*
X346514Y304573D01*
X348284Y308845D01*
X351555Y312116D01*
X355827Y313886D01*
X360453Y313886D01*
X364725Y312116D01*
X367996Y308845D01*
X369766Y304573D01*
X369766Y299947D01*
X367996Y295675D01*
X364725Y292404D01*
X360453Y290634D01*
X355827Y290634D01*
G37*
%LPD*%
%LPC*%
G36*
X330427Y290634D02*
X330427Y290634D01*
X326155Y292404D01*
X322884Y295675D01*
X321114Y299947D01*
X321114Y304573D01*
X322884Y308845D01*
X326155Y312116D01*
X330427Y313886D01*
X335053Y313886D01*
X339325Y312116D01*
X342596Y308845D01*
X344366Y304573D01*
X344366Y299947D01*
X342596Y295675D01*
X339325Y292404D01*
X335053Y290634D01*
X330427Y290634D01*
G37*
%LPD*%
%LPC*%
G36*
X305027Y290634D02*
X305027Y290634D01*
X300755Y292404D01*
X297484Y295675D01*
X295714Y299947D01*
X295714Y304573D01*
X297484Y308845D01*
X300755Y312116D01*
X305027Y313886D01*
X309653Y313886D01*
X313925Y312116D01*
X317196Y308845D01*
X318966Y304573D01*
X318966Y299947D01*
X317196Y295675D01*
X313925Y292404D01*
X309653Y290634D01*
X305027Y290634D01*
G37*
%LPD*%
%LPC*%
G36*
X254227Y290634D02*
X254227Y290634D01*
X249955Y292404D01*
X246684Y295675D01*
X244914Y299947D01*
X244914Y304573D01*
X246684Y308845D01*
X249955Y312116D01*
X254227Y313886D01*
X258853Y313886D01*
X263125Y312116D01*
X266396Y308845D01*
X268166Y304573D01*
X268166Y299947D01*
X266396Y295675D01*
X263125Y292404D01*
X258853Y290634D01*
X254227Y290634D01*
G37*
%LPD*%
%LPC*%
G36*
X228827Y290634D02*
X228827Y290634D01*
X224555Y292404D01*
X221284Y295675D01*
X219514Y299947D01*
X219514Y304573D01*
X221284Y308845D01*
X224555Y312116D01*
X228827Y313886D01*
X233453Y313886D01*
X237725Y312116D01*
X240996Y308845D01*
X242766Y304573D01*
X242766Y299947D01*
X240996Y295675D01*
X237725Y292404D01*
X233453Y290634D01*
X228827Y290634D01*
G37*
%LPD*%
%LPC*%
G36*
X279627Y290634D02*
X279627Y290634D01*
X275355Y292404D01*
X272084Y295675D01*
X270314Y299947D01*
X270314Y304573D01*
X272084Y308845D01*
X275355Y312116D01*
X279627Y313886D01*
X284253Y313886D01*
X288525Y312116D01*
X291796Y308845D01*
X293566Y304573D01*
X293566Y299947D01*
X291796Y295675D01*
X288525Y292404D01*
X284253Y290634D01*
X279627Y290634D01*
G37*
%LPD*%
%LPC*%
G36*
X203427Y138234D02*
X203427Y138234D01*
X199155Y140004D01*
X195884Y143275D01*
X194114Y147547D01*
X194114Y152173D01*
X195884Y156445D01*
X199155Y159716D01*
X203427Y161486D01*
X208053Y161486D01*
X212325Y159716D01*
X215596Y156445D01*
X217366Y152173D01*
X217366Y147547D01*
X215596Y143275D01*
X212325Y140004D01*
X208053Y138234D01*
X203427Y138234D01*
G37*
%LPD*%
%LPC*%
G36*
X355827Y138234D02*
X355827Y138234D01*
X351555Y140004D01*
X348284Y143275D01*
X346514Y147547D01*
X346514Y152173D01*
X348284Y156445D01*
X351555Y159716D01*
X355827Y161486D01*
X360453Y161486D01*
X364725Y159716D01*
X367996Y156445D01*
X369766Y152173D01*
X369766Y147547D01*
X367996Y143275D01*
X364725Y140004D01*
X360453Y138234D01*
X355827Y138234D01*
G37*
%LPD*%
%LPC*%
G36*
X330427Y138234D02*
X330427Y138234D01*
X326155Y140004D01*
X322884Y143275D01*
X321114Y147547D01*
X321114Y152173D01*
X322884Y156445D01*
X326155Y159716D01*
X330427Y161486D01*
X335053Y161486D01*
X339325Y159716D01*
X342596Y156445D01*
X344366Y152173D01*
X344366Y147547D01*
X342596Y143275D01*
X339325Y140004D01*
X335053Y138234D01*
X330427Y138234D01*
G37*
%LPD*%
%LPC*%
G36*
X127227Y138234D02*
X127227Y138234D01*
X122955Y140004D01*
X119684Y143275D01*
X117914Y147547D01*
X117914Y152173D01*
X119684Y156445D01*
X122955Y159716D01*
X127227Y161486D01*
X131853Y161486D01*
X136125Y159716D01*
X139396Y156445D01*
X141166Y152173D01*
X141166Y147547D01*
X139396Y143275D01*
X136125Y140004D01*
X131853Y138234D01*
X127227Y138234D01*
G37*
%LPD*%
%LPC*%
G36*
X152627Y138234D02*
X152627Y138234D01*
X148355Y140004D01*
X145084Y143275D01*
X143314Y147547D01*
X143314Y152173D01*
X145084Y156445D01*
X148355Y159716D01*
X152627Y161486D01*
X157253Y161486D01*
X161525Y159716D01*
X164796Y156445D01*
X166566Y152173D01*
X166566Y147547D01*
X164796Y143275D01*
X161525Y140004D01*
X157253Y138234D01*
X152627Y138234D01*
G37*
%LPD*%
%LPC*%
G36*
X305027Y138234D02*
X305027Y138234D01*
X300755Y140004D01*
X297484Y143275D01*
X295714Y147547D01*
X295714Y152173D01*
X297484Y156445D01*
X300755Y159716D01*
X305027Y161486D01*
X309653Y161486D01*
X313925Y159716D01*
X317196Y156445D01*
X318966Y152173D01*
X318966Y147547D01*
X317196Y143275D01*
X313925Y140004D01*
X309653Y138234D01*
X305027Y138234D01*
G37*
%LPD*%
%LPC*%
G36*
X228827Y138234D02*
X228827Y138234D01*
X224555Y140004D01*
X221284Y143275D01*
X219514Y147547D01*
X219514Y152173D01*
X221284Y156445D01*
X224555Y159716D01*
X228827Y161486D01*
X233453Y161486D01*
X237725Y159716D01*
X240996Y156445D01*
X242766Y152173D01*
X242766Y147547D01*
X240996Y143275D01*
X237725Y140004D01*
X233453Y138234D01*
X228827Y138234D01*
G37*
%LPD*%
%LPC*%
G36*
X254227Y138234D02*
X254227Y138234D01*
X249955Y140004D01*
X246684Y143275D01*
X244914Y147547D01*
X244914Y152173D01*
X246684Y156445D01*
X249955Y159716D01*
X254227Y161486D01*
X258853Y161486D01*
X263125Y159716D01*
X266396Y156445D01*
X268166Y152173D01*
X268166Y147547D01*
X266396Y143275D01*
X263125Y140004D01*
X258853Y138234D01*
X254227Y138234D01*
G37*
%LPD*%
%LPC*%
G36*
X279627Y138234D02*
X279627Y138234D01*
X275355Y140004D01*
X272084Y143275D01*
X270314Y147547D01*
X270314Y152173D01*
X272084Y156445D01*
X275355Y159716D01*
X279627Y161486D01*
X284253Y161486D01*
X288525Y159716D01*
X291796Y156445D01*
X293566Y152173D01*
X293566Y147547D01*
X291796Y143275D01*
X288525Y140004D01*
X284253Y138234D01*
X279627Y138234D01*
G37*
%LPD*%
%LPC*%
G36*
X988103Y185223D02*
X988103Y185223D01*
X984229Y186828D01*
X981264Y189793D01*
X979659Y193667D01*
X979659Y197861D01*
X981264Y201735D01*
X984229Y204700D01*
X988103Y206305D01*
X992297Y206305D01*
X996171Y204700D01*
X999136Y201735D01*
X1000741Y197861D01*
X1000741Y193667D01*
X999136Y189793D01*
X996171Y186828D01*
X992297Y185223D01*
X988103Y185223D01*
G37*
%LPD*%
%LPC*%
G36*
X423909Y469629D02*
X423909Y469629D01*
X423909Y492586D01*
X423971Y492586D01*
X426066Y492254D01*
X428084Y491598D01*
X429974Y490635D01*
X431690Y489388D01*
X433191Y487888D01*
X434438Y486172D01*
X435401Y484281D01*
X436056Y482264D01*
X436388Y480168D01*
X436388Y469629D01*
X423909Y469629D01*
G37*
%LPD*%
%LPC*%
G36*
X77199Y469629D02*
X77199Y469629D01*
X77199Y492586D01*
X77261Y492586D01*
X79356Y492254D01*
X81374Y491598D01*
X83264Y490635D01*
X84980Y489388D01*
X86481Y487888D01*
X87728Y486172D01*
X88691Y484281D01*
X89346Y482264D01*
X89678Y480168D01*
X89678Y469629D01*
X77199Y469629D01*
G37*
%LPD*%
%LPC*%
G36*
X77199Y444674D02*
X77199Y444674D01*
X77199Y467631D01*
X89678Y467631D01*
X89678Y457092D01*
X89346Y454996D01*
X88691Y452979D01*
X87728Y451088D01*
X86481Y449372D01*
X84980Y447872D01*
X83264Y446625D01*
X81374Y445662D01*
X79356Y445006D01*
X77261Y444674D01*
X77199Y444674D01*
G37*
%LPD*%
%LPC*%
G36*
X423909Y444674D02*
X423909Y444674D01*
X423909Y467631D01*
X436388Y467631D01*
X436388Y457092D01*
X436056Y454996D01*
X435401Y452979D01*
X434438Y451088D01*
X433191Y449372D01*
X431690Y447872D01*
X429974Y446625D01*
X428084Y445662D01*
X426066Y445006D01*
X423971Y444674D01*
X423909Y444674D01*
G37*
%LPD*%
%LPC*%
G36*
X409432Y469629D02*
X409432Y469629D01*
X409432Y480168D01*
X409764Y482264D01*
X410419Y484281D01*
X411382Y486172D01*
X412629Y487888D01*
X414130Y489388D01*
X415846Y490635D01*
X417736Y491598D01*
X419754Y492254D01*
X421849Y492586D01*
X421911Y492586D01*
X421911Y469629D01*
X409432Y469629D01*
G37*
%LPD*%
%LPC*%
G36*
X62722Y469629D02*
X62722Y469629D01*
X62722Y480168D01*
X63054Y482264D01*
X63709Y484281D01*
X64672Y486172D01*
X65919Y487888D01*
X67420Y489388D01*
X69136Y490635D01*
X71026Y491598D01*
X73044Y492254D01*
X75139Y492586D01*
X75201Y492586D01*
X75201Y469629D01*
X62722Y469629D01*
G37*
%LPD*%
%LPC*%
G36*
X75139Y444674D02*
X75139Y444674D01*
X73044Y445006D01*
X71026Y445662D01*
X69136Y446625D01*
X67420Y447872D01*
X65919Y449372D01*
X64672Y451088D01*
X63709Y452979D01*
X63054Y454996D01*
X62722Y457092D01*
X62722Y467631D01*
X75201Y467631D01*
X75201Y444674D01*
X75139Y444674D01*
G37*
%LPD*%
%LPC*%
G36*
X421849Y444674D02*
X421849Y444674D01*
X419754Y445006D01*
X417736Y445662D01*
X415846Y446625D01*
X414130Y447872D01*
X412629Y449372D01*
X411382Y451088D01*
X410419Y452979D01*
X409764Y454996D01*
X409432Y457092D01*
X409432Y467631D01*
X421911Y467631D01*
X421911Y444674D01*
X421849Y444674D01*
G37*
%LPD*%
%LPC*%
G36*
X105139Y150859D02*
X105139Y150859D01*
X105139Y161472D01*
X106862Y161199D01*
X108603Y160634D01*
X110233Y159803D01*
X111714Y158728D01*
X113008Y157434D01*
X114083Y155953D01*
X114914Y154323D01*
X115479Y152582D01*
X115752Y150859D01*
X105139Y150859D01*
G37*
%LPD*%
%LPC*%
G36*
X155939Y303259D02*
X155939Y303259D01*
X155939Y313872D01*
X157662Y313599D01*
X159403Y313034D01*
X161033Y312203D01*
X162514Y311128D01*
X163808Y309834D01*
X164883Y308353D01*
X165714Y306723D01*
X166279Y304982D01*
X166552Y303259D01*
X155939Y303259D01*
G37*
%LPD*%
%LPC*%
G36*
X92528Y150859D02*
X92528Y150859D01*
X92801Y152582D01*
X93366Y154323D01*
X94197Y155953D01*
X95272Y157434D01*
X96566Y158728D01*
X98047Y159803D01*
X99677Y160634D01*
X101418Y161199D01*
X103141Y161472D01*
X103141Y150859D01*
X92528Y150859D01*
G37*
%LPD*%
%LPC*%
G36*
X155939Y301261D02*
X155939Y301261D01*
X166552Y301261D01*
X166279Y299538D01*
X165714Y297797D01*
X164883Y296167D01*
X163808Y294686D01*
X162514Y293392D01*
X161033Y292317D01*
X159403Y291486D01*
X157662Y290921D01*
X155939Y290648D01*
X155939Y301261D01*
G37*
%LPD*%
%LPC*%
G36*
X105139Y148861D02*
X105139Y148861D01*
X115752Y148861D01*
X115479Y147138D01*
X114914Y145397D01*
X114083Y143767D01*
X113008Y142286D01*
X111714Y140992D01*
X110233Y139917D01*
X108603Y139086D01*
X106862Y138521D01*
X105139Y138248D01*
X105139Y148861D01*
G37*
%LPD*%
%LPC*%
G36*
X143328Y303259D02*
X143328Y303259D01*
X143601Y304982D01*
X144166Y306723D01*
X144997Y308353D01*
X146072Y309834D01*
X147366Y311128D01*
X148847Y312203D01*
X150477Y313034D01*
X152218Y313599D01*
X153941Y313872D01*
X153941Y303259D01*
X143328Y303259D01*
G37*
%LPD*%
%LPC*%
G36*
X152218Y290921D02*
X152218Y290921D01*
X150477Y291486D01*
X148847Y292317D01*
X147366Y293392D01*
X146072Y294686D01*
X144997Y296167D01*
X144166Y297797D01*
X143601Y299538D01*
X143328Y301261D01*
X153941Y301261D01*
X153941Y290648D01*
X152218Y290921D01*
G37*
%LPD*%
%LPC*%
G36*
X101418Y138521D02*
X101418Y138521D01*
X99677Y139086D01*
X98047Y139917D01*
X96566Y140992D01*
X95272Y142286D01*
X94197Y143767D01*
X93366Y145397D01*
X92801Y147138D01*
X92528Y148861D01*
X103141Y148861D01*
X103141Y138248D01*
X101418Y138521D01*
G37*
%LPD*%
%LPC*%
G36*
X550909Y452519D02*
X550909Y452519D01*
X550909Y462753D01*
X552545Y462494D01*
X554229Y461946D01*
X555807Y461142D01*
X557239Y460102D01*
X558492Y458849D01*
X559532Y457417D01*
X560336Y455839D01*
X560884Y454155D01*
X561143Y452519D01*
X550909Y452519D01*
G37*
%LPD*%
%LPC*%
G36*
X550909Y450521D02*
X550909Y450521D01*
X561143Y450521D01*
X560884Y448885D01*
X560336Y447201D01*
X559532Y445623D01*
X558492Y444191D01*
X557239Y442938D01*
X555807Y441898D01*
X554229Y441094D01*
X552545Y440546D01*
X550909Y440287D01*
X550909Y450521D01*
G37*
%LPD*%
%LPC*%
G36*
X538677Y452519D02*
X538677Y452519D01*
X538936Y454155D01*
X539484Y455839D01*
X540288Y457417D01*
X541328Y458849D01*
X542581Y460102D01*
X544013Y461142D01*
X545591Y461946D01*
X547275Y462494D01*
X548911Y462753D01*
X548911Y452519D01*
X538677Y452519D01*
G37*
%LPD*%
%LPC*%
G36*
X547275Y440546D02*
X547275Y440546D01*
X545591Y441094D01*
X544013Y441898D01*
X542581Y442938D01*
X541328Y444191D01*
X540288Y445623D01*
X539484Y447201D01*
X538936Y448885D01*
X538677Y450521D01*
X548911Y450521D01*
X548911Y440287D01*
X547275Y440546D01*
G37*
%LPD*%
%LPC*%
G36*
X180069Y181339D02*
X180069Y181339D01*
X180069Y191320D01*
X181646Y191070D01*
X183293Y190535D01*
X184836Y189749D01*
X186236Y188731D01*
X187461Y187506D01*
X188479Y186106D01*
X189265Y184563D01*
X189800Y182916D01*
X190050Y181339D01*
X180069Y181339D01*
G37*
%LPD*%
%LPC*%
G36*
X669019Y63259D02*
X669019Y63259D01*
X669019Y73240D01*
X670596Y72990D01*
X672243Y72455D01*
X673786Y71669D01*
X675186Y70651D01*
X676411Y69426D01*
X677429Y68026D01*
X678215Y66483D01*
X678750Y64836D01*
X679000Y63259D01*
X669019Y63259D01*
G37*
%LPD*%
%LPC*%
G36*
X714739Y178799D02*
X714739Y178799D01*
X714739Y188780D01*
X716316Y188530D01*
X717963Y187995D01*
X719506Y187209D01*
X720906Y186191D01*
X722131Y184966D01*
X723149Y183566D01*
X723935Y182023D01*
X724470Y180376D01*
X724720Y178799D01*
X714739Y178799D01*
G37*
%LPD*%
%LPC*%
G36*
X481059Y303259D02*
X481059Y303259D01*
X481059Y313240D01*
X482636Y312990D01*
X484283Y312455D01*
X485826Y311669D01*
X487226Y310651D01*
X488451Y309426D01*
X489469Y308026D01*
X490255Y306483D01*
X490790Y304836D01*
X491040Y303259D01*
X481059Y303259D01*
G37*
%LPD*%
%LPC*%
G36*
X77199Y422639D02*
X77199Y422639D01*
X77199Y432620D01*
X78776Y432370D01*
X80423Y431835D01*
X81966Y431049D01*
X83366Y430031D01*
X84591Y428806D01*
X85609Y427406D01*
X86395Y425863D01*
X86930Y424216D01*
X87180Y422639D01*
X77199Y422639D01*
G37*
%LPD*%
%LPC*%
G36*
X373109Y411209D02*
X373109Y411209D01*
X373109Y421190D01*
X374686Y420940D01*
X376333Y420405D01*
X377876Y419619D01*
X379276Y418601D01*
X380501Y417376D01*
X381519Y415976D01*
X382305Y414433D01*
X382840Y412786D01*
X383090Y411209D01*
X373109Y411209D01*
G37*
%LPD*%
%LPC*%
G36*
X326119Y120379D02*
X326119Y120379D01*
X326119Y130360D01*
X327696Y130110D01*
X329343Y129575D01*
X330886Y128789D01*
X332286Y127771D01*
X333511Y126546D01*
X334529Y125146D01*
X335315Y123603D01*
X335850Y121956D01*
X336100Y120379D01*
X326119Y120379D01*
G37*
%LPD*%
%LPC*%
G36*
X973819Y134349D02*
X973819Y134349D01*
X973819Y144330D01*
X975396Y144080D01*
X977043Y143545D01*
X978586Y142759D01*
X979986Y141741D01*
X981211Y140516D01*
X982229Y139116D01*
X983015Y137573D01*
X983550Y135926D01*
X983800Y134349D01*
X973819Y134349D01*
G37*
%LPD*%
%LPC*%
G36*
X882379Y309609D02*
X882379Y309609D01*
X882379Y319590D01*
X883956Y319340D01*
X885603Y318805D01*
X887146Y318019D01*
X888546Y317001D01*
X889771Y315776D01*
X890789Y314376D01*
X891575Y312833D01*
X892110Y311186D01*
X892360Y309609D01*
X882379Y309609D01*
G37*
%LPD*%
%LPC*%
G36*
X702760Y178799D02*
X702760Y178799D01*
X703010Y180376D01*
X703545Y182023D01*
X704331Y183566D01*
X705349Y184966D01*
X706574Y186191D01*
X707974Y187209D01*
X709517Y187995D01*
X711164Y188530D01*
X712741Y188780D01*
X712741Y178799D01*
X702760Y178799D01*
G37*
%LPD*%
%LPC*%
G36*
X168090Y181339D02*
X168090Y181339D01*
X168340Y182916D01*
X168875Y184563D01*
X169661Y186106D01*
X170679Y187506D01*
X171904Y188731D01*
X173304Y189749D01*
X174847Y190535D01*
X176494Y191070D01*
X178071Y191320D01*
X178071Y181339D01*
X168090Y181339D01*
G37*
%LPD*%
%LPC*%
G36*
X669019Y61261D02*
X669019Y61261D01*
X679000Y61261D01*
X678750Y59684D01*
X678215Y58037D01*
X677429Y56494D01*
X676411Y55094D01*
X675186Y53869D01*
X673786Y52851D01*
X672243Y52065D01*
X670596Y51530D01*
X669019Y51280D01*
X669019Y61261D01*
G37*
%LPD*%
%LPC*%
G36*
X468359Y486681D02*
X468359Y486681D01*
X478340Y486681D01*
X478090Y485104D01*
X477555Y483457D01*
X476769Y481914D01*
X475751Y480514D01*
X474526Y479289D01*
X473126Y478271D01*
X471583Y477485D01*
X469936Y476950D01*
X468359Y476700D01*
X468359Y486681D01*
G37*
%LPD*%
%LPC*%
G36*
X180069Y179341D02*
X180069Y179341D01*
X190050Y179341D01*
X189800Y177764D01*
X189265Y176117D01*
X188479Y174574D01*
X187461Y173174D01*
X186236Y171949D01*
X184836Y170931D01*
X183293Y170145D01*
X181646Y169610D01*
X180069Y169360D01*
X180069Y179341D01*
G37*
%LPD*%
%LPC*%
G36*
X633459Y486681D02*
X633459Y486681D01*
X643440Y486681D01*
X643190Y485104D01*
X642655Y483457D01*
X641869Y481914D01*
X640851Y480514D01*
X639626Y479289D01*
X638226Y478271D01*
X636683Y477485D01*
X635036Y476950D01*
X633459Y476700D01*
X633459Y486681D01*
G37*
%LPD*%
%LPC*%
G36*
X714739Y176801D02*
X714739Y176801D01*
X724720Y176801D01*
X724470Y175224D01*
X723935Y173577D01*
X723149Y172034D01*
X722131Y170634D01*
X720906Y169409D01*
X719506Y168391D01*
X717963Y167605D01*
X716316Y167070D01*
X714739Y166820D01*
X714739Y176801D01*
G37*
%LPD*%
%LPC*%
G36*
X65220Y422639D02*
X65220Y422639D01*
X65470Y424216D01*
X66005Y425863D01*
X66791Y427406D01*
X67809Y428806D01*
X69034Y430031D01*
X70434Y431049D01*
X71977Y431835D01*
X73624Y432370D01*
X75201Y432620D01*
X75201Y422639D01*
X65220Y422639D01*
G37*
%LPD*%
%LPC*%
G36*
X657040Y63259D02*
X657040Y63259D01*
X657290Y64836D01*
X657825Y66483D01*
X658611Y68026D01*
X659629Y69426D01*
X660854Y70651D01*
X662254Y71669D01*
X663797Y72455D01*
X665444Y72990D01*
X667021Y73240D01*
X667021Y63259D01*
X657040Y63259D01*
G37*
%LPD*%
%LPC*%
G36*
X908500Y196579D02*
X908500Y196579D01*
X908750Y198156D01*
X909285Y199803D01*
X910071Y201346D01*
X911089Y202746D01*
X912314Y203971D01*
X913714Y204989D01*
X915257Y205775D01*
X916904Y206310D01*
X918481Y206560D01*
X918481Y196579D01*
X908500Y196579D01*
G37*
%LPD*%
%LPC*%
G36*
X870400Y309609D02*
X870400Y309609D01*
X870650Y311186D01*
X871185Y312833D01*
X871971Y314376D01*
X872989Y315776D01*
X874214Y317001D01*
X875614Y318019D01*
X877157Y318805D01*
X878804Y319340D01*
X880381Y319590D01*
X880381Y309609D01*
X870400Y309609D01*
G37*
%LPD*%
%LPC*%
G36*
X481059Y301261D02*
X481059Y301261D01*
X491040Y301261D01*
X490790Y299684D01*
X490255Y298037D01*
X489469Y296494D01*
X488451Y295094D01*
X487226Y293869D01*
X485826Y292851D01*
X484283Y292065D01*
X482636Y291530D01*
X481059Y291280D01*
X481059Y301261D01*
G37*
%LPD*%
%LPC*%
G36*
X882379Y307611D02*
X882379Y307611D01*
X892360Y307611D01*
X892110Y306034D01*
X891575Y304387D01*
X890789Y302844D01*
X889771Y301444D01*
X888546Y300219D01*
X887146Y299201D01*
X885603Y298415D01*
X883956Y297880D01*
X882379Y297630D01*
X882379Y307611D01*
G37*
%LPD*%
%LPC*%
G36*
X361130Y411209D02*
X361130Y411209D01*
X361380Y412786D01*
X361915Y414433D01*
X362701Y415976D01*
X363719Y417376D01*
X364944Y418601D01*
X366344Y419619D01*
X367887Y420405D01*
X369534Y420940D01*
X371111Y421190D01*
X371111Y411209D01*
X361130Y411209D01*
G37*
%LPD*%
%LPC*%
G36*
X326119Y118381D02*
X326119Y118381D01*
X336100Y118381D01*
X335850Y116804D01*
X335315Y115157D01*
X334529Y113614D01*
X333511Y112214D01*
X332286Y110989D01*
X330886Y109971D01*
X329343Y109185D01*
X327696Y108650D01*
X326119Y108400D01*
X326119Y118381D01*
G37*
%LPD*%
%LPC*%
G36*
X77199Y420641D02*
X77199Y420641D01*
X87180Y420641D01*
X86930Y419064D01*
X86395Y417417D01*
X85609Y415874D01*
X84591Y414474D01*
X83366Y413249D01*
X81966Y412231D01*
X80423Y411445D01*
X78776Y410910D01*
X77199Y410660D01*
X77199Y420641D01*
G37*
%LPD*%
%LPC*%
G36*
X373109Y409211D02*
X373109Y409211D01*
X383090Y409211D01*
X382840Y407634D01*
X382305Y405987D01*
X381519Y404444D01*
X380501Y403044D01*
X379276Y401819D01*
X377876Y400801D01*
X376333Y400015D01*
X374686Y399480D01*
X373109Y399230D01*
X373109Y409211D01*
G37*
%LPD*%
%LPC*%
G36*
X314140Y120379D02*
X314140Y120379D01*
X314390Y121956D01*
X314925Y123603D01*
X315711Y125146D01*
X316729Y126546D01*
X317954Y127771D01*
X319354Y128789D01*
X320897Y129575D01*
X322544Y130110D01*
X324121Y130360D01*
X324121Y120379D01*
X314140Y120379D01*
G37*
%LPD*%
%LPC*%
G36*
X973819Y132351D02*
X973819Y132351D01*
X983800Y132351D01*
X983550Y130774D01*
X983015Y129127D01*
X982229Y127584D01*
X981211Y126184D01*
X979986Y124959D01*
X978586Y123941D01*
X977043Y123155D01*
X975396Y122620D01*
X973819Y122370D01*
X973819Y132351D01*
G37*
%LPD*%
%LPC*%
G36*
X961840Y134349D02*
X961840Y134349D01*
X962090Y135926D01*
X962625Y137573D01*
X963411Y139116D01*
X964429Y140516D01*
X965654Y141741D01*
X967054Y142759D01*
X968597Y143545D01*
X970244Y144080D01*
X971821Y144330D01*
X971821Y134349D01*
X961840Y134349D01*
G37*
%LPD*%
%LPC*%
G36*
X322544Y108650D02*
X322544Y108650D01*
X320897Y109185D01*
X319354Y109971D01*
X317954Y110989D01*
X316729Y112214D01*
X315711Y113614D01*
X314925Y115157D01*
X314390Y116804D01*
X314140Y118381D01*
X324121Y118381D01*
X324121Y108400D01*
X322544Y108650D01*
G37*
%LPD*%
%LPC*%
G36*
X970244Y122620D02*
X970244Y122620D01*
X968597Y123155D01*
X967054Y123941D01*
X965654Y124959D01*
X964429Y126184D01*
X963411Y127584D01*
X962625Y129127D01*
X962090Y130774D01*
X961840Y132351D01*
X971821Y132351D01*
X971821Y122370D01*
X970244Y122620D01*
G37*
%LPD*%
%LPC*%
G36*
X665444Y51530D02*
X665444Y51530D01*
X663797Y52065D01*
X662254Y52851D01*
X660854Y53869D01*
X659629Y55094D01*
X658611Y56494D01*
X657825Y58037D01*
X657290Y59684D01*
X657040Y61261D01*
X667021Y61261D01*
X667021Y51280D01*
X665444Y51530D01*
G37*
%LPD*%
%LPC*%
G36*
X464784Y476950D02*
X464784Y476950D01*
X463137Y477485D01*
X461594Y478271D01*
X460194Y479289D01*
X458969Y480514D01*
X457951Y481914D01*
X457165Y483457D01*
X456630Y485104D01*
X456380Y486681D01*
X466361Y486681D01*
X466361Y476700D01*
X464784Y476950D01*
G37*
%LPD*%
%LPC*%
G36*
X176494Y169610D02*
X176494Y169610D01*
X174847Y170145D01*
X173304Y170931D01*
X171904Y171949D01*
X170679Y173174D01*
X169661Y174574D01*
X168875Y176117D01*
X168340Y177764D01*
X168090Y179341D01*
X178071Y179341D01*
X178071Y169360D01*
X176494Y169610D01*
G37*
%LPD*%
%LPC*%
G36*
X629884Y476950D02*
X629884Y476950D01*
X628237Y477485D01*
X626694Y478271D01*
X625294Y479289D01*
X624069Y480514D01*
X623051Y481914D01*
X622265Y483457D01*
X621730Y485104D01*
X621480Y486681D01*
X631461Y486681D01*
X631461Y476700D01*
X629884Y476950D01*
G37*
%LPD*%
%LPC*%
G36*
X916904Y184850D02*
X916904Y184850D01*
X915257Y185385D01*
X913714Y186171D01*
X912314Y187189D01*
X911089Y188414D01*
X910071Y189814D01*
X909285Y191357D01*
X908750Y193004D01*
X908500Y194581D01*
X918481Y194581D01*
X918481Y184600D01*
X916904Y184850D01*
G37*
%LPD*%
%LPC*%
G36*
X711164Y167070D02*
X711164Y167070D01*
X709517Y167605D01*
X707974Y168391D01*
X706574Y169409D01*
X705349Y170634D01*
X704331Y172034D01*
X703545Y173577D01*
X703010Y175224D01*
X702760Y176801D01*
X712741Y176801D01*
X712741Y166820D01*
X711164Y167070D01*
G37*
%LPD*%
%LPC*%
G36*
X369534Y399480D02*
X369534Y399480D01*
X367887Y400015D01*
X366344Y400801D01*
X364944Y401819D01*
X363719Y403044D01*
X362701Y404444D01*
X361915Y405987D01*
X361380Y407634D01*
X361130Y409211D01*
X371111Y409211D01*
X371111Y399230D01*
X369534Y399480D01*
G37*
%LPD*%
%LPC*%
G36*
X73624Y410910D02*
X73624Y410910D01*
X71977Y411445D01*
X70434Y412231D01*
X69034Y413249D01*
X67809Y414474D01*
X66791Y415874D01*
X66005Y417417D01*
X65470Y419064D01*
X65220Y420641D01*
X75201Y420641D01*
X75201Y410660D01*
X73624Y410910D01*
G37*
%LPD*%
%LPC*%
G36*
X878804Y297880D02*
X878804Y297880D01*
X877157Y298415D01*
X875614Y299201D01*
X874214Y300219D01*
X872989Y301444D01*
X871971Y302844D01*
X871185Y304387D01*
X870650Y306034D01*
X870400Y307611D01*
X880381Y307611D01*
X880381Y297630D01*
X878804Y297880D01*
G37*
%LPD*%
%LPC*%
G36*
X991199Y341763D02*
X991199Y341763D01*
X991199Y351278D01*
X992668Y351045D01*
X994246Y350532D01*
X995725Y349779D01*
X997067Y348804D01*
X998240Y347631D01*
X999215Y346289D01*
X999968Y344810D01*
X1000481Y343232D01*
X1000714Y341763D01*
X991199Y341763D01*
G37*
%LPD*%
%LPC*%
G36*
X966199Y196763D02*
X966199Y196763D01*
X966199Y206278D01*
X967668Y206045D01*
X969246Y205532D01*
X970725Y204779D01*
X972067Y203804D01*
X973240Y202631D01*
X974215Y201289D01*
X974968Y199810D01*
X975481Y198232D01*
X975714Y196763D01*
X966199Y196763D01*
G37*
%LPD*%
%LPC*%
G36*
X979686Y341763D02*
X979686Y341763D01*
X979919Y343232D01*
X980432Y344810D01*
X981185Y346289D01*
X982160Y347631D01*
X983333Y348804D01*
X984675Y349779D01*
X986154Y350532D01*
X987732Y351045D01*
X989201Y351278D01*
X989201Y341763D01*
X979686Y341763D01*
G37*
%LPD*%
%LPC*%
G36*
X991199Y339765D02*
X991199Y339765D01*
X1000714Y339765D01*
X1000481Y338296D01*
X999968Y336718D01*
X999215Y335239D01*
X998240Y333897D01*
X997067Y332724D01*
X995725Y331749D01*
X994246Y330996D01*
X992668Y330483D01*
X991199Y330250D01*
X991199Y339765D01*
G37*
%LPD*%
%LPC*%
G36*
X954686Y196763D02*
X954686Y196763D01*
X954919Y198232D01*
X955432Y199810D01*
X956185Y201289D01*
X957160Y202631D01*
X958333Y203804D01*
X959675Y204779D01*
X961154Y205532D01*
X962732Y206045D01*
X964201Y206278D01*
X964201Y196763D01*
X954686Y196763D01*
G37*
%LPD*%
%LPC*%
G36*
X966199Y194765D02*
X966199Y194765D01*
X975714Y194765D01*
X975481Y193296D01*
X974968Y191718D01*
X974215Y190239D01*
X973240Y188897D01*
X972067Y187724D01*
X970725Y186749D01*
X969246Y185996D01*
X967668Y185483D01*
X966199Y185250D01*
X966199Y194765D01*
G37*
%LPD*%
%LPC*%
G36*
X987732Y330483D02*
X987732Y330483D01*
X986154Y330996D01*
X984675Y331749D01*
X983333Y332724D01*
X982160Y333897D01*
X981185Y335239D01*
X980432Y336718D01*
X979919Y338296D01*
X979686Y339765D01*
X989201Y339765D01*
X989201Y330250D01*
X987732Y330483D01*
G37*
%LPD*%
%LPC*%
G36*
X962732Y185483D02*
X962732Y185483D01*
X961154Y185996D01*
X959675Y186749D01*
X958333Y187724D01*
X957160Y188897D01*
X956185Y190239D01*
X955432Y191718D01*
X954919Y193296D01*
X954686Y194765D01*
X964201Y194765D01*
X964201Y185250D01*
X962732Y185483D01*
G37*
%LPD*%
%LPC*%
G36*
X105139Y113669D02*
X105139Y113669D01*
X105139Y121689D01*
X106777Y121363D01*
X108422Y120682D01*
X109903Y119692D01*
X111162Y118433D01*
X112152Y116952D01*
X112833Y115307D01*
X113159Y113669D01*
X105139Y113669D01*
G37*
%LPD*%
%LPC*%
G36*
X95121Y113669D02*
X95121Y113669D01*
X95447Y115307D01*
X96128Y116952D01*
X97118Y118433D01*
X98377Y119692D01*
X99858Y120682D01*
X101503Y121363D01*
X103141Y121689D01*
X103141Y113669D01*
X95121Y113669D01*
G37*
%LPD*%
%LPC*%
G36*
X76199Y421639D02*
X76199Y421639D01*
X76199Y421641D01*
X76201Y421641D01*
X76201Y421639D01*
X76199Y421639D01*
G37*
%LPD*%
%LPC*%
G36*
X549909Y451519D02*
X549909Y451519D01*
X549909Y451521D01*
X549911Y451521D01*
X549911Y451519D01*
X549909Y451519D01*
G37*
%LPD*%
%LPC*%
G36*
X76199Y468629D02*
X76199Y468629D01*
X76199Y468631D01*
X76201Y468631D01*
X76201Y468629D01*
X76199Y468629D01*
G37*
%LPD*%
%LPC*%
G36*
X422909Y468629D02*
X422909Y468629D01*
X422909Y468631D01*
X422911Y468631D01*
X422911Y468629D01*
X422909Y468629D01*
G37*
%LPD*%
%LPC*%
G36*
X668019Y62259D02*
X668019Y62259D01*
X668019Y62261D01*
X668021Y62261D01*
X668021Y62259D01*
X668019Y62259D01*
G37*
%LPD*%
%LPC*%
G36*
X990199Y340763D02*
X990199Y340763D01*
X990199Y340765D01*
X990201Y340765D01*
X990201Y340763D01*
X990199Y340763D01*
G37*
%LPD*%
%LPC*%
G36*
X325119Y119379D02*
X325119Y119379D01*
X325119Y119381D01*
X325121Y119381D01*
X325121Y119379D01*
X325119Y119379D01*
G37*
%LPD*%
%LPC*%
G36*
X372109Y410209D02*
X372109Y410209D01*
X372109Y410211D01*
X372111Y410211D01*
X372111Y410209D01*
X372109Y410209D01*
G37*
%LPD*%
%LPC*%
G36*
X972819Y133349D02*
X972819Y133349D01*
X972819Y133351D01*
X972821Y133351D01*
X972821Y133349D01*
X972819Y133349D01*
G37*
%LPD*%
%LPC*%
G36*
X881379Y308609D02*
X881379Y308609D01*
X881379Y308611D01*
X881381Y308611D01*
X881381Y308609D01*
X881379Y308609D01*
G37*
%LPD*%
%LPC*%
G36*
X104139Y149859D02*
X104139Y149859D01*
X104139Y149861D01*
X104141Y149861D01*
X104141Y149859D01*
X104139Y149859D01*
G37*
%LPD*%
%LPC*%
G36*
X154939Y302259D02*
X154939Y302259D01*
X154939Y302261D01*
X154941Y302261D01*
X154941Y302259D01*
X154939Y302259D01*
G37*
%LPD*%
%LPC*%
G36*
X965199Y195763D02*
X965199Y195763D01*
X965199Y195765D01*
X965201Y195765D01*
X965201Y195763D01*
X965199Y195763D01*
G37*
%LPD*%
%LPC*%
G36*
X179069Y180339D02*
X179069Y180339D01*
X179069Y180341D01*
X179071Y180341D01*
X179071Y180339D01*
X179069Y180339D01*
G37*
%LPD*%
%LPC*%
G36*
X713739Y177799D02*
X713739Y177799D01*
X713739Y177801D01*
X713741Y177801D01*
X713741Y177799D01*
X713739Y177799D01*
G37*
%LPD*%
D10*
X549910Y376520D03*
X549910Y451520D03*
D11*
X78740Y302260D03*
D12*
X104140Y302260D03*
X129540Y302260D03*
X154940Y302260D03*
X180340Y302260D03*
X205740Y302260D03*
X231140Y302260D03*
X256540Y302260D03*
X281940Y302260D03*
X307340Y302260D03*
X332740Y302260D03*
X358140Y302260D03*
X383540Y302260D03*
X408940Y302260D03*
X434340Y302260D03*
X434340Y149860D03*
X408940Y149860D03*
X383540Y149860D03*
X358140Y149860D03*
X332740Y149860D03*
X307340Y149860D03*
X281940Y149860D03*
X256540Y149860D03*
X231140Y149860D03*
X205740Y149860D03*
X180340Y149860D03*
X154940Y149860D03*
X129540Y149860D03*
X104140Y149860D03*
D11*
X78740Y149860D03*
D13*
X990200Y340764D03*
X940200Y340764D03*
X990200Y195764D03*
X965200Y195764D03*
X940200Y195764D03*
D14*
X127000Y458153D02*
X127000Y479108D01*
X76200Y479108D02*
X76200Y458153D01*
X422910Y458153D02*
X422910Y479108D01*
X372110Y479108D02*
X372110Y458153D01*
X990600Y458153D02*
X990600Y479108D01*
X939800Y479108D02*
X939800Y458153D01*
D15*
X104140Y112670D03*
X104140Y97670D03*
X104140Y82670D03*
X104140Y67670D03*
D16*
X608330Y116840D03*
D17*
X549910Y175260D01*
X549910Y376520D01*
D16*
X713740Y177800D03*
D18*
X422910Y461010D02*
X422910Y468630D01*
X422910Y461010D02*
X372110Y410210D01*
D16*
X372110Y410210D03*
D19*
X965200Y308610D02*
X965200Y195764D01*
X965200Y308610D02*
X965200Y315764D01*
X990200Y340764D01*
X104140Y182880D02*
X104140Y149860D01*
X154940Y233680D02*
X154940Y302260D01*
X154940Y233680D02*
X104140Y182880D01*
X76200Y410210D02*
X76200Y468630D01*
X76200Y410210D02*
X76200Y400050D01*
X154940Y321310D02*
X154940Y302260D01*
X154940Y321310D02*
X76200Y400050D01*
X76200Y410210D02*
X372110Y410210D01*
X881380Y308610D02*
X965200Y308610D01*
D16*
X881380Y308610D03*
D19*
X765810Y177800D02*
X713740Y177800D01*
X765810Y177800D02*
X829310Y177800D01*
X881380Y229870D01*
X881380Y308610D01*
D17*
X881380Y353060D01*
D19*
X765810Y177800D02*
X765810Y81280D01*
X744220Y59690D02*
X668020Y59690D01*
X744220Y59690D02*
X765810Y81280D01*
X668020Y62260D02*
X668020Y59690D01*
D16*
X668020Y62260D03*
X325120Y119380D03*
X467360Y487680D03*
X632460Y487680D03*
X972820Y133350D03*
X919480Y195580D03*
X179070Y180340D03*
X76200Y421640D03*
X480060Y302260D03*
D17*
X549910Y451520D02*
X671160Y451520D01*
X701040Y421640D02*
X701040Y381000D01*
X712470Y369570D01*
X864870Y369570D02*
X881380Y353060D01*
X701040Y421640D02*
X671160Y451520D01*
X712470Y369570D02*
X864870Y369570D01*
D20*
X751840Y473710D03*
X764540Y473710D03*
X777240Y473710D03*
X789940Y473710D03*
X802640Y473710D03*
X751840Y443230D03*
X764540Y443230D03*
X777240Y443230D03*
X789940Y443230D03*
X802640Y443230D03*
X751840Y426720D03*
X764540Y426720D03*
X777240Y426720D03*
X789940Y426720D03*
X802640Y426720D03*
X751840Y411480D03*
X764540Y411480D03*
X777240Y411480D03*
X789940Y411480D03*
X802640Y411480D03*
X751840Y458470D03*
X764540Y458470D03*
X777240Y458470D03*
X789940Y458470D03*
X802640Y458470D03*
D16*
X657860Y417830D03*
D17*
X657860Y346710D01*
D16*
X657860Y346710D03*
X458470Y302260D03*
D19*
X417830Y261620D01*
X363220Y261620D01*
D16*
X363220Y261620D03*
X961390Y363220D03*
D19*
X961390Y361954D02*
X940200Y340764D01*
X961390Y361954D02*
X961390Y363220D01*
D16*
X819150Y326390D03*
X824949Y294610D03*
D19*
X819150Y300409D01*
X819150Y326390D01*
M02*
