G04 EAGLE Gerber RS-274X export*
G75*
%MOMM*%
%FSLAX34Y34*%
%LPD*%
%INSilkscreen Top*%
%IPPOS*%
%AMOC8*
5,1,8,0,0,1.08239X$1,22.5*%
G01*
%ADD10C,0.431800*%
%ADD11R,77.920000X38.920000*%
%ADD12C,0.076200*%
%ADD13C,0.200000*%
%ADD14C,0.127000*%
%ADD15C,0.400000*%
%ADD16C,0.152400*%


D10*
X366847Y385699D02*
X345059Y385699D01*
X345059Y434721D01*
X366847Y434721D01*
X361400Y412933D02*
X345059Y412933D01*
X389320Y385699D02*
X400214Y385699D01*
X389320Y385699D02*
X389057Y385702D01*
X388794Y385712D01*
X388531Y385728D01*
X388269Y385750D01*
X388007Y385778D01*
X387746Y385813D01*
X387486Y385855D01*
X387227Y385902D01*
X386969Y385956D01*
X386713Y386016D01*
X386458Y386082D01*
X386205Y386154D01*
X385954Y386232D01*
X385704Y386317D01*
X385457Y386407D01*
X385212Y386503D01*
X384969Y386605D01*
X384729Y386714D01*
X384492Y386827D01*
X384257Y386947D01*
X384026Y387072D01*
X383797Y387203D01*
X383572Y387339D01*
X383350Y387480D01*
X383132Y387627D01*
X382917Y387780D01*
X382706Y387937D01*
X382498Y388099D01*
X382295Y388267D01*
X382096Y388439D01*
X381901Y388616D01*
X381710Y388797D01*
X381524Y388983D01*
X381343Y389174D01*
X381166Y389369D01*
X380994Y389568D01*
X380826Y389771D01*
X380664Y389979D01*
X380507Y390190D01*
X380354Y390405D01*
X380207Y390623D01*
X380066Y390845D01*
X379930Y391070D01*
X379799Y391299D01*
X379674Y391530D01*
X379554Y391765D01*
X379441Y392002D01*
X379332Y392242D01*
X379230Y392485D01*
X379134Y392730D01*
X379044Y392977D01*
X378959Y393227D01*
X378881Y393478D01*
X378809Y393731D01*
X378743Y393986D01*
X378683Y394242D01*
X378629Y394500D01*
X378582Y394759D01*
X378540Y395019D01*
X378505Y395280D01*
X378477Y395542D01*
X378455Y395804D01*
X378439Y396067D01*
X378429Y396330D01*
X378426Y396593D01*
X378427Y396593D02*
X378427Y423827D01*
X378426Y423827D02*
X378429Y424094D01*
X378439Y424362D01*
X378456Y424628D01*
X378478Y424895D01*
X378508Y425161D01*
X378544Y425425D01*
X378586Y425689D01*
X378635Y425952D01*
X378691Y426214D01*
X378752Y426474D01*
X378821Y426733D01*
X378895Y426989D01*
X378976Y427244D01*
X379063Y427497D01*
X379156Y427748D01*
X379255Y427996D01*
X379361Y428242D01*
X379472Y428485D01*
X379589Y428725D01*
X379712Y428962D01*
X379841Y429197D01*
X379976Y429428D01*
X380116Y429655D01*
X380262Y429879D01*
X380413Y430100D01*
X380570Y430317D01*
X380732Y430529D01*
X380899Y430738D01*
X381071Y430943D01*
X381248Y431143D01*
X381430Y431339D01*
X381617Y431530D01*
X381808Y431717D01*
X382004Y431899D01*
X382204Y432076D01*
X382409Y432248D01*
X382618Y432415D01*
X382830Y432577D01*
X383047Y432734D01*
X383268Y432885D01*
X383492Y433031D01*
X383719Y433171D01*
X383950Y433306D01*
X384185Y433435D01*
X384422Y433558D01*
X384662Y433675D01*
X384905Y433786D01*
X385151Y433892D01*
X385399Y433991D01*
X385650Y434084D01*
X385903Y434171D01*
X386158Y434252D01*
X386414Y434326D01*
X386673Y434395D01*
X386933Y434456D01*
X387195Y434512D01*
X387458Y434561D01*
X387721Y434603D01*
X387986Y434639D01*
X388252Y434669D01*
X388519Y434691D01*
X388785Y434708D01*
X389053Y434718D01*
X389320Y434721D01*
X400214Y434721D01*
X413046Y434721D02*
X413046Y385699D01*
X413046Y434721D02*
X426663Y434721D01*
X426995Y434717D01*
X427326Y434705D01*
X427657Y434685D01*
X427987Y434656D01*
X428317Y434620D01*
X428646Y434576D01*
X428973Y434524D01*
X429299Y434463D01*
X429624Y434395D01*
X429947Y434319D01*
X430267Y434235D01*
X430586Y434144D01*
X430902Y434044D01*
X431216Y433937D01*
X431527Y433822D01*
X431836Y433700D01*
X432141Y433571D01*
X432443Y433433D01*
X432741Y433289D01*
X433036Y433137D01*
X433327Y432979D01*
X433615Y432813D01*
X433898Y432640D01*
X434176Y432461D01*
X434451Y432274D01*
X434720Y432081D01*
X434985Y431882D01*
X435245Y431676D01*
X435500Y431464D01*
X435750Y431246D01*
X435994Y431021D01*
X436233Y430791D01*
X436466Y430555D01*
X436693Y430314D01*
X436914Y430067D01*
X437130Y429814D01*
X437339Y429557D01*
X437541Y429295D01*
X437738Y429027D01*
X437927Y428755D01*
X438110Y428479D01*
X438286Y428198D01*
X438456Y427913D01*
X438618Y427623D01*
X438773Y427330D01*
X438921Y427034D01*
X439062Y426733D01*
X439195Y426430D01*
X439321Y426123D01*
X439440Y425813D01*
X439551Y425501D01*
X439654Y425186D01*
X439749Y424868D01*
X439837Y424548D01*
X439917Y424226D01*
X439989Y423903D01*
X440053Y423577D01*
X440110Y423251D01*
X440158Y422922D01*
X440198Y422593D01*
X440231Y422263D01*
X440255Y421933D01*
X440271Y421601D01*
X440279Y421270D01*
X440279Y420938D01*
X440271Y420607D01*
X440255Y420275D01*
X440231Y419945D01*
X440198Y419615D01*
X440158Y419286D01*
X440110Y418957D01*
X440053Y418631D01*
X439989Y418305D01*
X439917Y417982D01*
X439837Y417660D01*
X439749Y417340D01*
X439654Y417022D01*
X439551Y416707D01*
X439440Y416395D01*
X439321Y416085D01*
X439195Y415778D01*
X439062Y415475D01*
X438921Y415174D01*
X438773Y414878D01*
X438618Y414585D01*
X438456Y414296D01*
X438286Y414010D01*
X438110Y413729D01*
X437927Y413453D01*
X437738Y413181D01*
X437541Y412913D01*
X437339Y412651D01*
X437130Y412394D01*
X436914Y412141D01*
X436693Y411894D01*
X436466Y411653D01*
X436233Y411417D01*
X435994Y411187D01*
X435750Y410962D01*
X435500Y410744D01*
X435245Y410532D01*
X434985Y410326D01*
X434720Y410127D01*
X434451Y409934D01*
X434176Y409747D01*
X433898Y409568D01*
X433615Y409395D01*
X433327Y409229D01*
X433036Y409071D01*
X432741Y408919D01*
X432443Y408775D01*
X432141Y408637D01*
X431836Y408508D01*
X431527Y408386D01*
X431216Y408271D01*
X430902Y408164D01*
X430586Y408064D01*
X430267Y407973D01*
X429947Y407889D01*
X429624Y407813D01*
X429299Y407745D01*
X428973Y407684D01*
X428646Y407632D01*
X428317Y407588D01*
X427987Y407552D01*
X427657Y407523D01*
X427326Y407503D01*
X426995Y407491D01*
X426663Y407487D01*
X413046Y407487D01*
X429387Y407487D02*
X440280Y385699D01*
X450368Y385699D02*
X466708Y434721D01*
X483049Y385699D01*
X478964Y397955D02*
X454453Y397955D01*
X494430Y385699D02*
X494430Y434721D01*
X521664Y385699D01*
X521664Y434721D01*
D11*
X440400Y245400D03*
D12*
X931581Y318772D02*
X933669Y316162D01*
X931581Y318772D02*
X940979Y318772D01*
X940979Y316162D02*
X940979Y321383D01*
X935581Y217250D02*
X944979Y214118D01*
X944979Y220383D02*
X935581Y217250D01*
X942630Y219600D02*
X942630Y214901D01*
X969979Y218295D02*
X969979Y220383D01*
X969979Y218295D02*
X969977Y218206D01*
X969971Y218118D01*
X969962Y218030D01*
X969949Y217942D01*
X969932Y217855D01*
X969912Y217769D01*
X969887Y217684D01*
X969860Y217599D01*
X969828Y217516D01*
X969794Y217435D01*
X969755Y217355D01*
X969714Y217277D01*
X969669Y217200D01*
X969621Y217126D01*
X969570Y217053D01*
X969516Y216983D01*
X969458Y216916D01*
X969398Y216850D01*
X969336Y216788D01*
X969270Y216728D01*
X969203Y216670D01*
X969133Y216616D01*
X969060Y216565D01*
X968986Y216517D01*
X968909Y216472D01*
X968831Y216431D01*
X968751Y216392D01*
X968670Y216358D01*
X968587Y216326D01*
X968502Y216299D01*
X968417Y216274D01*
X968331Y216254D01*
X968244Y216237D01*
X968156Y216224D01*
X968068Y216215D01*
X967980Y216209D01*
X967891Y216207D01*
X967891Y216206D02*
X962669Y216206D01*
X962578Y216208D01*
X962487Y216214D01*
X962396Y216224D01*
X962306Y216238D01*
X962217Y216256D01*
X962128Y216277D01*
X962041Y216303D01*
X961955Y216332D01*
X961870Y216365D01*
X961786Y216402D01*
X961704Y216442D01*
X961625Y216486D01*
X961547Y216533D01*
X961471Y216584D01*
X961397Y216638D01*
X961326Y216695D01*
X961258Y216755D01*
X961192Y216818D01*
X961129Y216884D01*
X961069Y216952D01*
X961012Y217023D01*
X960958Y217097D01*
X960907Y217173D01*
X960860Y217250D01*
X960816Y217330D01*
X960776Y217412D01*
X960739Y217496D01*
X960706Y217580D01*
X960677Y217667D01*
X960651Y217754D01*
X960630Y217843D01*
X960612Y217932D01*
X960598Y218022D01*
X960588Y218113D01*
X960582Y218204D01*
X960580Y218295D01*
X960581Y218295D02*
X960581Y220383D01*
X988758Y217772D02*
X988758Y215162D01*
X988757Y217772D02*
X988759Y217873D01*
X988765Y217974D01*
X988775Y218075D01*
X988788Y218175D01*
X988806Y218275D01*
X988827Y218374D01*
X988853Y218472D01*
X988882Y218569D01*
X988914Y218665D01*
X988951Y218759D01*
X988991Y218852D01*
X989035Y218944D01*
X989082Y219033D01*
X989133Y219121D01*
X989187Y219207D01*
X989244Y219290D01*
X989304Y219372D01*
X989368Y219450D01*
X989434Y219527D01*
X989504Y219600D01*
X989576Y219671D01*
X989651Y219739D01*
X989729Y219804D01*
X989809Y219866D01*
X989891Y219925D01*
X989976Y219981D01*
X990063Y220033D01*
X990151Y220082D01*
X990242Y220128D01*
X990334Y220169D01*
X990428Y220208D01*
X990523Y220242D01*
X990619Y220273D01*
X990717Y220300D01*
X990815Y220324D01*
X990915Y220343D01*
X991015Y220359D01*
X991115Y220371D01*
X991216Y220379D01*
X991317Y220383D01*
X991419Y220383D01*
X991520Y220379D01*
X991621Y220371D01*
X991721Y220359D01*
X991821Y220343D01*
X991921Y220324D01*
X992019Y220300D01*
X992117Y220273D01*
X992213Y220242D01*
X992308Y220208D01*
X992402Y220169D01*
X992494Y220128D01*
X992585Y220082D01*
X992674Y220033D01*
X992760Y219981D01*
X992845Y219925D01*
X992927Y219866D01*
X993007Y219804D01*
X993085Y219739D01*
X993160Y219671D01*
X993232Y219600D01*
X993302Y219527D01*
X993368Y219450D01*
X993432Y219372D01*
X993492Y219290D01*
X993549Y219207D01*
X993603Y219121D01*
X993654Y219033D01*
X993701Y218944D01*
X993745Y218852D01*
X993785Y218759D01*
X993822Y218665D01*
X993854Y218569D01*
X993883Y218472D01*
X993909Y218374D01*
X993930Y218275D01*
X993948Y218175D01*
X993961Y218075D01*
X993971Y217974D01*
X993977Y217873D01*
X993979Y217772D01*
X993979Y215162D01*
X984581Y215162D01*
X984581Y217772D01*
X984583Y217862D01*
X984589Y217951D01*
X984598Y218041D01*
X984612Y218130D01*
X984629Y218218D01*
X984650Y218305D01*
X984675Y218392D01*
X984704Y218477D01*
X984736Y218561D01*
X984771Y218643D01*
X984811Y218724D01*
X984853Y218803D01*
X984899Y218880D01*
X984949Y218955D01*
X985001Y219028D01*
X985057Y219099D01*
X985115Y219167D01*
X985177Y219232D01*
X985241Y219295D01*
X985308Y219355D01*
X985377Y219412D01*
X985449Y219466D01*
X985523Y219517D01*
X985599Y219565D01*
X985677Y219609D01*
X985757Y219650D01*
X985839Y219688D01*
X985922Y219722D01*
X986007Y219752D01*
X986093Y219779D01*
X986179Y219802D01*
X986267Y219821D01*
X986356Y219836D01*
X986445Y219848D01*
X986534Y219856D01*
X986624Y219860D01*
X986714Y219860D01*
X986804Y219856D01*
X986893Y219848D01*
X986982Y219836D01*
X987071Y219821D01*
X987159Y219802D01*
X987245Y219779D01*
X987331Y219752D01*
X987416Y219722D01*
X987499Y219688D01*
X987581Y219650D01*
X987661Y219609D01*
X987739Y219565D01*
X987815Y219517D01*
X987889Y219466D01*
X987961Y219412D01*
X988030Y219355D01*
X988097Y219295D01*
X988161Y219232D01*
X988223Y219167D01*
X988281Y219099D01*
X988337Y219028D01*
X988389Y218955D01*
X988439Y218880D01*
X988485Y218803D01*
X988527Y218724D01*
X988567Y218643D01*
X988602Y218561D01*
X988634Y218477D01*
X988663Y218392D01*
X988688Y218305D01*
X988709Y218218D01*
X988726Y218130D01*
X988740Y218041D01*
X988749Y217951D01*
X988755Y217862D01*
X988757Y217772D01*
X985581Y320034D02*
X985583Y320129D01*
X985589Y320223D01*
X985598Y320317D01*
X985611Y320411D01*
X985628Y320504D01*
X985649Y320596D01*
X985674Y320688D01*
X985702Y320778D01*
X985734Y320867D01*
X985769Y320955D01*
X985808Y321041D01*
X985850Y321126D01*
X985896Y321209D01*
X985945Y321290D01*
X985997Y321369D01*
X986052Y321446D01*
X986111Y321520D01*
X986172Y321592D01*
X986236Y321662D01*
X986303Y321729D01*
X986373Y321793D01*
X986445Y321854D01*
X986519Y321913D01*
X986596Y321968D01*
X986675Y322020D01*
X986756Y322069D01*
X986839Y322115D01*
X986924Y322157D01*
X987010Y322196D01*
X987098Y322231D01*
X987187Y322263D01*
X987277Y322291D01*
X987369Y322316D01*
X987461Y322337D01*
X987554Y322354D01*
X987648Y322367D01*
X987742Y322376D01*
X987836Y322382D01*
X987931Y322384D01*
X985581Y320034D02*
X985583Y319926D01*
X985589Y319817D01*
X985599Y319709D01*
X985612Y319602D01*
X985630Y319495D01*
X985651Y319388D01*
X985676Y319283D01*
X985705Y319178D01*
X985737Y319075D01*
X985774Y318973D01*
X985814Y318872D01*
X985857Y318773D01*
X985904Y318675D01*
X985955Y318579D01*
X986009Y318485D01*
X986066Y318393D01*
X986127Y318303D01*
X986191Y318215D01*
X986257Y318130D01*
X986327Y318047D01*
X986400Y317967D01*
X986476Y317889D01*
X986554Y317814D01*
X986635Y317742D01*
X986719Y317673D01*
X986805Y317607D01*
X986893Y317544D01*
X986984Y317485D01*
X987076Y317428D01*
X987171Y317375D01*
X987268Y317326D01*
X987366Y317280D01*
X987465Y317237D01*
X987567Y317198D01*
X987669Y317163D01*
X989759Y321600D02*
X989690Y321669D01*
X989619Y321735D01*
X989546Y321799D01*
X989470Y321860D01*
X989391Y321918D01*
X989311Y321972D01*
X989228Y322024D01*
X989144Y322072D01*
X989058Y322118D01*
X988970Y322159D01*
X988880Y322198D01*
X988789Y322233D01*
X988697Y322264D01*
X988604Y322292D01*
X988510Y322316D01*
X988415Y322336D01*
X988319Y322353D01*
X988222Y322366D01*
X988125Y322375D01*
X988028Y322381D01*
X987931Y322383D01*
X989758Y321600D02*
X994979Y317162D01*
X994979Y322383D01*
D13*
X1024700Y344264D02*
X1024700Y292764D01*
X1024700Y344264D02*
X1002200Y344264D01*
X1024700Y248764D02*
X1024700Y204764D01*
X998200Y204764D01*
X982200Y204764D02*
X973200Y204764D01*
X957200Y204764D02*
X948200Y204764D01*
X932200Y204764D02*
X905700Y204764D01*
X905700Y248764D01*
X905700Y344264D02*
X929200Y344264D01*
X905700Y344264D02*
X905700Y292764D01*
X951200Y344264D02*
X979200Y344264D01*
D14*
X908200Y262764D02*
X899200Y253764D01*
X899200Y218764D01*
X901200Y220764D01*
X899200Y218764D02*
X897200Y220764D01*
X1022200Y278764D02*
X1031200Y287764D01*
X1031200Y322764D01*
X1029200Y320764D01*
X1031200Y322764D02*
X1033200Y320764D01*
D15*
X923200Y356764D02*
X923202Y356853D01*
X923208Y356942D01*
X923218Y357031D01*
X923232Y357119D01*
X923249Y357206D01*
X923271Y357292D01*
X923297Y357378D01*
X923326Y357462D01*
X923359Y357545D01*
X923395Y357626D01*
X923436Y357706D01*
X923479Y357783D01*
X923526Y357859D01*
X923577Y357932D01*
X923630Y358003D01*
X923687Y358072D01*
X923747Y358138D01*
X923810Y358202D01*
X923875Y358262D01*
X923943Y358320D01*
X924014Y358374D01*
X924087Y358425D01*
X924162Y358473D01*
X924239Y358518D01*
X924318Y358559D01*
X924399Y358596D01*
X924481Y358630D01*
X924565Y358661D01*
X924650Y358687D01*
X924736Y358710D01*
X924823Y358728D01*
X924911Y358743D01*
X925000Y358754D01*
X925089Y358761D01*
X925178Y358764D01*
X925267Y358763D01*
X925356Y358758D01*
X925444Y358749D01*
X925533Y358736D01*
X925620Y358719D01*
X925707Y358699D01*
X925793Y358674D01*
X925877Y358646D01*
X925960Y358614D01*
X926042Y358578D01*
X926122Y358539D01*
X926200Y358496D01*
X926276Y358450D01*
X926350Y358400D01*
X926422Y358347D01*
X926491Y358291D01*
X926558Y358232D01*
X926622Y358170D01*
X926683Y358106D01*
X926742Y358038D01*
X926797Y357968D01*
X926849Y357896D01*
X926898Y357821D01*
X926943Y357745D01*
X926985Y357666D01*
X927023Y357586D01*
X927058Y357504D01*
X927089Y357420D01*
X927117Y357335D01*
X927140Y357249D01*
X927160Y357162D01*
X927176Y357075D01*
X927188Y356986D01*
X927196Y356898D01*
X927200Y356809D01*
X927200Y356719D01*
X927196Y356630D01*
X927188Y356542D01*
X927176Y356453D01*
X927160Y356366D01*
X927140Y356279D01*
X927117Y356193D01*
X927089Y356108D01*
X927058Y356024D01*
X927023Y355942D01*
X926985Y355862D01*
X926943Y355783D01*
X926898Y355707D01*
X926849Y355632D01*
X926797Y355560D01*
X926742Y355490D01*
X926683Y355422D01*
X926622Y355358D01*
X926558Y355296D01*
X926491Y355237D01*
X926422Y355181D01*
X926350Y355128D01*
X926276Y355078D01*
X926200Y355032D01*
X926122Y354989D01*
X926042Y354950D01*
X925960Y354914D01*
X925877Y354882D01*
X925793Y354854D01*
X925707Y354829D01*
X925620Y354809D01*
X925533Y354792D01*
X925444Y354779D01*
X925356Y354770D01*
X925267Y354765D01*
X925178Y354764D01*
X925089Y354767D01*
X925000Y354774D01*
X924911Y354785D01*
X924823Y354800D01*
X924736Y354818D01*
X924650Y354841D01*
X924565Y354867D01*
X924481Y354898D01*
X924399Y354932D01*
X924318Y354969D01*
X924239Y355010D01*
X924162Y355055D01*
X924087Y355103D01*
X924014Y355154D01*
X923943Y355208D01*
X923875Y355266D01*
X923810Y355326D01*
X923747Y355390D01*
X923687Y355456D01*
X923630Y355525D01*
X923577Y355596D01*
X923526Y355669D01*
X923479Y355745D01*
X923436Y355822D01*
X923395Y355902D01*
X923359Y355983D01*
X923326Y356066D01*
X923297Y356150D01*
X923271Y356236D01*
X923249Y356322D01*
X923232Y356409D01*
X923218Y356497D01*
X923208Y356586D01*
X923202Y356675D01*
X923200Y356764D01*
D16*
X1051606Y268724D02*
X1051724Y268722D01*
X1051842Y268716D01*
X1051960Y268707D01*
X1052077Y268693D01*
X1052194Y268676D01*
X1052311Y268655D01*
X1052426Y268630D01*
X1052541Y268601D01*
X1052655Y268568D01*
X1052767Y268532D01*
X1052878Y268492D01*
X1052988Y268449D01*
X1053097Y268402D01*
X1053204Y268352D01*
X1053309Y268297D01*
X1053412Y268240D01*
X1053513Y268179D01*
X1053613Y268115D01*
X1053710Y268048D01*
X1053805Y267978D01*
X1053897Y267904D01*
X1053988Y267828D01*
X1054075Y267748D01*
X1054160Y267666D01*
X1054242Y267581D01*
X1054322Y267494D01*
X1054398Y267403D01*
X1054472Y267311D01*
X1054542Y267216D01*
X1054609Y267119D01*
X1054673Y267019D01*
X1054734Y266918D01*
X1054791Y266815D01*
X1054846Y266710D01*
X1054896Y266603D01*
X1054943Y266494D01*
X1054986Y266384D01*
X1055026Y266273D01*
X1055062Y266161D01*
X1055095Y266047D01*
X1055124Y265932D01*
X1055149Y265817D01*
X1055170Y265700D01*
X1055187Y265583D01*
X1055201Y265466D01*
X1055210Y265348D01*
X1055216Y265230D01*
X1055218Y265112D01*
X1055216Y264929D01*
X1055209Y264747D01*
X1055198Y264565D01*
X1055183Y264383D01*
X1055163Y264201D01*
X1055140Y264020D01*
X1055111Y263840D01*
X1055079Y263660D01*
X1055042Y263481D01*
X1055001Y263304D01*
X1054955Y263127D01*
X1054906Y262951D01*
X1054852Y262777D01*
X1054794Y262603D01*
X1054732Y262432D01*
X1054666Y262262D01*
X1054595Y262093D01*
X1054521Y261926D01*
X1054443Y261761D01*
X1054361Y261598D01*
X1054275Y261437D01*
X1054185Y261278D01*
X1054091Y261121D01*
X1053994Y260967D01*
X1053893Y260815D01*
X1053788Y260665D01*
X1053680Y260518D01*
X1053569Y260374D01*
X1053454Y260232D01*
X1053335Y260093D01*
X1053213Y259957D01*
X1053088Y259824D01*
X1052960Y259694D01*
X1042574Y260145D02*
X1042456Y260147D01*
X1042338Y260153D01*
X1042220Y260162D01*
X1042103Y260176D01*
X1041986Y260193D01*
X1041869Y260214D01*
X1041754Y260239D01*
X1041639Y260268D01*
X1041525Y260301D01*
X1041413Y260337D01*
X1041302Y260377D01*
X1041192Y260420D01*
X1041083Y260467D01*
X1040976Y260517D01*
X1040871Y260572D01*
X1040768Y260629D01*
X1040667Y260690D01*
X1040567Y260754D01*
X1040470Y260821D01*
X1040375Y260891D01*
X1040283Y260965D01*
X1040192Y261041D01*
X1040105Y261121D01*
X1040020Y261203D01*
X1039938Y261288D01*
X1039858Y261375D01*
X1039782Y261466D01*
X1039708Y261558D01*
X1039638Y261653D01*
X1039571Y261750D01*
X1039507Y261850D01*
X1039446Y261951D01*
X1039389Y262054D01*
X1039334Y262159D01*
X1039284Y262266D01*
X1039237Y262375D01*
X1039194Y262485D01*
X1039154Y262596D01*
X1039118Y262708D01*
X1039085Y262822D01*
X1039056Y262937D01*
X1039031Y263052D01*
X1039010Y263169D01*
X1038993Y263286D01*
X1038979Y263403D01*
X1038970Y263521D01*
X1038964Y263639D01*
X1038962Y263757D01*
X1038964Y263918D01*
X1038970Y264080D01*
X1038979Y264241D01*
X1038993Y264402D01*
X1039010Y264562D01*
X1039031Y264722D01*
X1039056Y264882D01*
X1039085Y265041D01*
X1039117Y265199D01*
X1039153Y265356D01*
X1039193Y265512D01*
X1039237Y265668D01*
X1039285Y265822D01*
X1039336Y265975D01*
X1039390Y266127D01*
X1039449Y266278D01*
X1039510Y266427D01*
X1039576Y266574D01*
X1039645Y266720D01*
X1039717Y266865D01*
X1039793Y267007D01*
X1039872Y267148D01*
X1039954Y267287D01*
X1040040Y267423D01*
X1040129Y267558D01*
X1040221Y267691D01*
X1040317Y267821D01*
X1045735Y261951D02*
X1045673Y261850D01*
X1045608Y261750D01*
X1045539Y261653D01*
X1045467Y261558D01*
X1045393Y261465D01*
X1045315Y261375D01*
X1045234Y261287D01*
X1045151Y261202D01*
X1045065Y261120D01*
X1044976Y261041D01*
X1044885Y260964D01*
X1044791Y260891D01*
X1044695Y260820D01*
X1044597Y260753D01*
X1044497Y260689D01*
X1044394Y260628D01*
X1044290Y260571D01*
X1044184Y260517D01*
X1044076Y260467D01*
X1043967Y260420D01*
X1043856Y260376D01*
X1043744Y260336D01*
X1043630Y260300D01*
X1043516Y260268D01*
X1043400Y260239D01*
X1043284Y260214D01*
X1043167Y260193D01*
X1043049Y260176D01*
X1042931Y260162D01*
X1042812Y260153D01*
X1042693Y260147D01*
X1042574Y260145D01*
X1048445Y266919D02*
X1048507Y267020D01*
X1048572Y267120D01*
X1048641Y267217D01*
X1048713Y267312D01*
X1048787Y267405D01*
X1048865Y267495D01*
X1048946Y267583D01*
X1049029Y267668D01*
X1049115Y267750D01*
X1049204Y267829D01*
X1049295Y267906D01*
X1049389Y267979D01*
X1049485Y268050D01*
X1049583Y268117D01*
X1049683Y268181D01*
X1049786Y268242D01*
X1049890Y268299D01*
X1049996Y268353D01*
X1050104Y268403D01*
X1050213Y268450D01*
X1050324Y268494D01*
X1050436Y268534D01*
X1050550Y268570D01*
X1050664Y268602D01*
X1050780Y268631D01*
X1050896Y268656D01*
X1051013Y268677D01*
X1051131Y268694D01*
X1051249Y268708D01*
X1051368Y268717D01*
X1051487Y268723D01*
X1051606Y268725D01*
X1048445Y266918D02*
X1045735Y261951D01*
X1042574Y274804D02*
X1038962Y279319D01*
X1055218Y279319D01*
X1055218Y274804D02*
X1055218Y283835D01*
M02*
