G04 EAGLE Gerber RS-274X export*
G75*
%MOMM*%
%FSLAX34Y34*%
%LPD*%
%INSilkscreen Bottom*%
%IPPOS*%
%AMOC8*
5,1,8,0,0,1.08239X$1,22.5*%
G01*
%ADD10C,0.101600*%
%ADD11C,0.200000*%
%ADD12C,0.076200*%
%ADD13C,0.254000*%
%ADD14C,0.600000*%
%ADD15C,0.266050*%
%ADD16C,0.266050*%
%ADD17C,0.127000*%
%ADD18C,0.152400*%
%ADD19C,0.177800*%
%ADD20C,0.203200*%


D10*
X695339Y161798D02*
X697936Y161798D01*
X698035Y161800D01*
X698135Y161806D01*
X698234Y161815D01*
X698332Y161828D01*
X698430Y161845D01*
X698528Y161866D01*
X698624Y161891D01*
X698719Y161919D01*
X698813Y161951D01*
X698906Y161986D01*
X698998Y162025D01*
X699088Y162068D01*
X699176Y162113D01*
X699263Y162163D01*
X699347Y162215D01*
X699430Y162271D01*
X699510Y162329D01*
X699588Y162391D01*
X699663Y162456D01*
X699736Y162524D01*
X699806Y162594D01*
X699874Y162667D01*
X699939Y162742D01*
X700001Y162820D01*
X700059Y162900D01*
X700115Y162983D01*
X700167Y163067D01*
X700217Y163154D01*
X700262Y163242D01*
X700305Y163332D01*
X700344Y163424D01*
X700379Y163517D01*
X700411Y163611D01*
X700439Y163706D01*
X700464Y163802D01*
X700485Y163900D01*
X700502Y163998D01*
X700515Y164096D01*
X700524Y164195D01*
X700530Y164295D01*
X700532Y164394D01*
X700532Y170886D01*
X700530Y170985D01*
X700524Y171085D01*
X700515Y171184D01*
X700502Y171282D01*
X700485Y171380D01*
X700464Y171478D01*
X700439Y171574D01*
X700411Y171669D01*
X700379Y171763D01*
X700344Y171856D01*
X700305Y171948D01*
X700262Y172038D01*
X700217Y172126D01*
X700167Y172213D01*
X700115Y172297D01*
X700059Y172380D01*
X700001Y172460D01*
X699939Y172538D01*
X699874Y172613D01*
X699806Y172686D01*
X699736Y172756D01*
X699663Y172824D01*
X699588Y172889D01*
X699510Y172951D01*
X699430Y173009D01*
X699347Y173065D01*
X699263Y173117D01*
X699176Y173167D01*
X699088Y173212D01*
X698998Y173255D01*
X698906Y173294D01*
X698813Y173329D01*
X698719Y173361D01*
X698624Y173389D01*
X698528Y173414D01*
X698430Y173435D01*
X698332Y173452D01*
X698234Y173465D01*
X698135Y173474D01*
X698035Y173480D01*
X697936Y173482D01*
X695339Y173482D01*
X691468Y160500D02*
X686275Y160500D01*
X681279Y168289D02*
X678034Y168289D01*
X678034Y168290D02*
X677921Y168288D01*
X677808Y168282D01*
X677695Y168272D01*
X677582Y168258D01*
X677470Y168241D01*
X677359Y168219D01*
X677249Y168194D01*
X677139Y168164D01*
X677031Y168131D01*
X676924Y168094D01*
X676818Y168054D01*
X676714Y168009D01*
X676611Y167961D01*
X676510Y167910D01*
X676411Y167855D01*
X676314Y167797D01*
X676219Y167735D01*
X676126Y167670D01*
X676036Y167602D01*
X675948Y167531D01*
X675862Y167456D01*
X675779Y167379D01*
X675699Y167299D01*
X675622Y167216D01*
X675547Y167130D01*
X675476Y167042D01*
X675408Y166952D01*
X675343Y166859D01*
X675281Y166764D01*
X675223Y166667D01*
X675168Y166568D01*
X675117Y166467D01*
X675069Y166364D01*
X675024Y166260D01*
X674984Y166154D01*
X674947Y166047D01*
X674914Y165939D01*
X674884Y165829D01*
X674859Y165719D01*
X674837Y165608D01*
X674820Y165496D01*
X674806Y165383D01*
X674796Y165270D01*
X674790Y165157D01*
X674788Y165044D01*
X674790Y164931D01*
X674796Y164818D01*
X674806Y164705D01*
X674820Y164592D01*
X674837Y164480D01*
X674859Y164369D01*
X674884Y164259D01*
X674914Y164149D01*
X674947Y164041D01*
X674984Y163934D01*
X675024Y163828D01*
X675069Y163724D01*
X675117Y163621D01*
X675168Y163520D01*
X675223Y163421D01*
X675281Y163324D01*
X675343Y163229D01*
X675408Y163136D01*
X675476Y163046D01*
X675547Y162958D01*
X675622Y162872D01*
X675699Y162789D01*
X675779Y162709D01*
X675862Y162632D01*
X675948Y162557D01*
X676036Y162486D01*
X676126Y162418D01*
X676219Y162353D01*
X676314Y162291D01*
X676411Y162233D01*
X676510Y162178D01*
X676611Y162127D01*
X676714Y162079D01*
X676818Y162034D01*
X676924Y161994D01*
X677031Y161957D01*
X677139Y161924D01*
X677249Y161894D01*
X677359Y161869D01*
X677470Y161847D01*
X677582Y161830D01*
X677695Y161816D01*
X677808Y161806D01*
X677921Y161800D01*
X678034Y161798D01*
X681279Y161798D01*
X681279Y173482D01*
X678034Y173482D01*
X677933Y173480D01*
X677833Y173474D01*
X677733Y173464D01*
X677633Y173451D01*
X677534Y173433D01*
X677435Y173412D01*
X677338Y173387D01*
X677241Y173358D01*
X677146Y173325D01*
X677052Y173289D01*
X676960Y173249D01*
X676869Y173206D01*
X676780Y173159D01*
X676693Y173109D01*
X676607Y173055D01*
X676524Y172998D01*
X676444Y172938D01*
X676365Y172875D01*
X676289Y172808D01*
X676216Y172739D01*
X676146Y172667D01*
X676078Y172593D01*
X676013Y172516D01*
X675952Y172436D01*
X675893Y172354D01*
X675838Y172270D01*
X675786Y172184D01*
X675737Y172096D01*
X675692Y172006D01*
X675650Y171914D01*
X675612Y171821D01*
X675578Y171726D01*
X675547Y171631D01*
X675520Y171534D01*
X675497Y171436D01*
X675477Y171337D01*
X675462Y171237D01*
X675450Y171137D01*
X675442Y171037D01*
X675438Y170936D01*
X675438Y170836D01*
X675442Y170735D01*
X675450Y170635D01*
X675462Y170535D01*
X675477Y170435D01*
X675497Y170336D01*
X675520Y170238D01*
X675547Y170141D01*
X675578Y170046D01*
X675612Y169951D01*
X675650Y169858D01*
X675692Y169766D01*
X675737Y169676D01*
X675786Y169588D01*
X675838Y169502D01*
X675893Y169418D01*
X675952Y169336D01*
X676013Y169256D01*
X676078Y169179D01*
X676146Y169105D01*
X676216Y169033D01*
X676289Y168964D01*
X676365Y168897D01*
X676444Y168834D01*
X676524Y168774D01*
X676607Y168717D01*
X676693Y168663D01*
X676780Y168613D01*
X676869Y168566D01*
X676960Y168523D01*
X677052Y168483D01*
X677146Y168447D01*
X677241Y168414D01*
X677338Y168385D01*
X677435Y168360D01*
X677534Y168339D01*
X677633Y168321D01*
X677733Y168308D01*
X677833Y168298D01*
X677933Y168292D01*
X678034Y168290D01*
X666886Y161798D02*
X666787Y161800D01*
X666687Y161806D01*
X666588Y161815D01*
X666490Y161828D01*
X666392Y161845D01*
X666294Y161866D01*
X666198Y161891D01*
X666103Y161919D01*
X666009Y161951D01*
X665916Y161986D01*
X665824Y162025D01*
X665734Y162068D01*
X665646Y162113D01*
X665559Y162163D01*
X665475Y162215D01*
X665392Y162271D01*
X665312Y162329D01*
X665234Y162391D01*
X665159Y162456D01*
X665086Y162524D01*
X665016Y162594D01*
X664948Y162667D01*
X664883Y162742D01*
X664821Y162820D01*
X664763Y162900D01*
X664707Y162983D01*
X664655Y163067D01*
X664605Y163154D01*
X664560Y163242D01*
X664517Y163332D01*
X664478Y163424D01*
X664443Y163517D01*
X664411Y163611D01*
X664383Y163706D01*
X664358Y163802D01*
X664337Y163900D01*
X664320Y163998D01*
X664307Y164096D01*
X664298Y164195D01*
X664292Y164295D01*
X664290Y164394D01*
X666886Y161798D02*
X667030Y161800D01*
X667175Y161806D01*
X667319Y161815D01*
X667462Y161828D01*
X667606Y161845D01*
X667749Y161866D01*
X667891Y161891D01*
X668032Y161919D01*
X668173Y161951D01*
X668313Y161987D01*
X668452Y162026D01*
X668590Y162069D01*
X668726Y162116D01*
X668862Y162166D01*
X668996Y162220D01*
X669128Y162277D01*
X669259Y162338D01*
X669388Y162402D01*
X669516Y162470D01*
X669642Y162541D01*
X669766Y162615D01*
X669887Y162692D01*
X670007Y162773D01*
X670125Y162856D01*
X670240Y162943D01*
X670353Y163033D01*
X670464Y163126D01*
X670572Y163221D01*
X670678Y163320D01*
X670781Y163421D01*
X670456Y170886D02*
X670454Y170985D01*
X670448Y171085D01*
X670439Y171184D01*
X670426Y171282D01*
X670409Y171380D01*
X670388Y171478D01*
X670363Y171574D01*
X670335Y171669D01*
X670303Y171763D01*
X670268Y171856D01*
X670229Y171948D01*
X670186Y172038D01*
X670141Y172126D01*
X670091Y172213D01*
X670039Y172297D01*
X669983Y172380D01*
X669925Y172460D01*
X669863Y172538D01*
X669798Y172613D01*
X669730Y172686D01*
X669660Y172756D01*
X669587Y172824D01*
X669512Y172889D01*
X669434Y172951D01*
X669354Y173009D01*
X669271Y173065D01*
X669187Y173117D01*
X669100Y173167D01*
X669012Y173212D01*
X668922Y173255D01*
X668830Y173294D01*
X668737Y173329D01*
X668643Y173361D01*
X668548Y173389D01*
X668452Y173414D01*
X668354Y173435D01*
X668256Y173452D01*
X668158Y173465D01*
X668059Y173474D01*
X667959Y173480D01*
X667860Y173482D01*
X667724Y173480D01*
X667588Y173474D01*
X667452Y173465D01*
X667316Y173452D01*
X667181Y173434D01*
X667047Y173414D01*
X666913Y173389D01*
X666779Y173361D01*
X666647Y173328D01*
X666516Y173293D01*
X666385Y173253D01*
X666256Y173210D01*
X666128Y173164D01*
X666002Y173113D01*
X665876Y173060D01*
X665753Y173002D01*
X665631Y172942D01*
X665511Y172878D01*
X665392Y172810D01*
X665276Y172740D01*
X665162Y172666D01*
X665049Y172589D01*
X664939Y172508D01*
X669158Y168614D02*
X669244Y168667D01*
X669328Y168724D01*
X669410Y168783D01*
X669490Y168846D01*
X669567Y168912D01*
X669642Y168980D01*
X669714Y169052D01*
X669783Y169126D01*
X669849Y169203D01*
X669912Y169282D01*
X669972Y169364D01*
X670029Y169448D01*
X670083Y169534D01*
X670133Y169622D01*
X670180Y169712D01*
X670224Y169803D01*
X670263Y169897D01*
X670300Y169991D01*
X670332Y170087D01*
X670361Y170185D01*
X670386Y170283D01*
X670407Y170382D01*
X670425Y170482D01*
X670438Y170582D01*
X670448Y170683D01*
X670454Y170785D01*
X670456Y170886D01*
X665588Y166666D02*
X665502Y166613D01*
X665418Y166556D01*
X665336Y166497D01*
X665256Y166434D01*
X665179Y166368D01*
X665104Y166300D01*
X665032Y166228D01*
X664963Y166154D01*
X664897Y166077D01*
X664834Y165998D01*
X664774Y165916D01*
X664717Y165832D01*
X664663Y165746D01*
X664613Y165658D01*
X664566Y165568D01*
X664522Y165477D01*
X664483Y165383D01*
X664446Y165289D01*
X664414Y165193D01*
X664385Y165095D01*
X664360Y164997D01*
X664339Y164898D01*
X664321Y164798D01*
X664308Y164698D01*
X664298Y164597D01*
X664292Y164495D01*
X664290Y164394D01*
X665588Y166666D02*
X669158Y168614D01*
X657248Y173482D02*
X657248Y161798D01*
X660494Y173482D02*
X654003Y173482D01*
X696609Y85598D02*
X699206Y85598D01*
X699305Y85600D01*
X699405Y85606D01*
X699504Y85615D01*
X699602Y85628D01*
X699700Y85645D01*
X699798Y85666D01*
X699894Y85691D01*
X699989Y85719D01*
X700083Y85751D01*
X700176Y85786D01*
X700268Y85825D01*
X700358Y85868D01*
X700446Y85913D01*
X700533Y85963D01*
X700617Y86015D01*
X700700Y86071D01*
X700780Y86129D01*
X700858Y86191D01*
X700933Y86256D01*
X701006Y86324D01*
X701076Y86394D01*
X701144Y86467D01*
X701209Y86542D01*
X701271Y86620D01*
X701329Y86700D01*
X701385Y86783D01*
X701437Y86867D01*
X701487Y86954D01*
X701532Y87042D01*
X701575Y87132D01*
X701614Y87224D01*
X701649Y87317D01*
X701681Y87411D01*
X701709Y87506D01*
X701734Y87602D01*
X701755Y87700D01*
X701772Y87798D01*
X701785Y87896D01*
X701794Y87995D01*
X701800Y88095D01*
X701802Y88194D01*
X701802Y94686D01*
X701800Y94785D01*
X701794Y94885D01*
X701785Y94984D01*
X701772Y95082D01*
X701755Y95180D01*
X701734Y95278D01*
X701709Y95374D01*
X701681Y95469D01*
X701649Y95563D01*
X701614Y95656D01*
X701575Y95748D01*
X701532Y95838D01*
X701487Y95926D01*
X701437Y96013D01*
X701385Y96097D01*
X701329Y96180D01*
X701271Y96260D01*
X701209Y96338D01*
X701144Y96413D01*
X701076Y96486D01*
X701006Y96556D01*
X700933Y96624D01*
X700858Y96689D01*
X700780Y96751D01*
X700700Y96809D01*
X700617Y96865D01*
X700533Y96917D01*
X700446Y96967D01*
X700358Y97012D01*
X700268Y97055D01*
X700176Y97094D01*
X700083Y97129D01*
X699989Y97161D01*
X699894Y97189D01*
X699798Y97214D01*
X699700Y97235D01*
X699602Y97252D01*
X699504Y97265D01*
X699405Y97274D01*
X699305Y97280D01*
X699206Y97282D01*
X696609Y97282D01*
X692738Y84300D02*
X687545Y84300D01*
X679854Y85598D02*
X683749Y97282D01*
X675960Y97282D02*
X679854Y85598D01*
X671289Y85598D02*
X671289Y97282D01*
X668043Y97282D01*
X667930Y97280D01*
X667817Y97274D01*
X667704Y97264D01*
X667591Y97250D01*
X667479Y97233D01*
X667368Y97211D01*
X667258Y97186D01*
X667148Y97156D01*
X667040Y97123D01*
X666933Y97086D01*
X666827Y97046D01*
X666723Y97001D01*
X666620Y96953D01*
X666519Y96902D01*
X666420Y96847D01*
X666323Y96789D01*
X666228Y96727D01*
X666135Y96662D01*
X666045Y96594D01*
X665957Y96523D01*
X665871Y96448D01*
X665788Y96371D01*
X665708Y96291D01*
X665631Y96208D01*
X665556Y96122D01*
X665485Y96034D01*
X665417Y95944D01*
X665352Y95851D01*
X665290Y95756D01*
X665232Y95659D01*
X665177Y95560D01*
X665126Y95459D01*
X665078Y95356D01*
X665033Y95252D01*
X664993Y95146D01*
X664956Y95039D01*
X664923Y94931D01*
X664893Y94821D01*
X664868Y94711D01*
X664846Y94600D01*
X664829Y94488D01*
X664815Y94375D01*
X664805Y94262D01*
X664799Y94149D01*
X664797Y94036D01*
X664798Y94036D02*
X664798Y88844D01*
X664797Y88844D02*
X664799Y88731D01*
X664805Y88618D01*
X664815Y88505D01*
X664829Y88392D01*
X664846Y88280D01*
X664868Y88169D01*
X664893Y88059D01*
X664923Y87949D01*
X664956Y87841D01*
X664993Y87734D01*
X665033Y87628D01*
X665078Y87524D01*
X665126Y87421D01*
X665177Y87320D01*
X665232Y87221D01*
X665290Y87124D01*
X665352Y87029D01*
X665417Y86936D01*
X665485Y86846D01*
X665556Y86758D01*
X665631Y86672D01*
X665708Y86589D01*
X665788Y86509D01*
X665871Y86432D01*
X665957Y86357D01*
X666045Y86286D01*
X666135Y86218D01*
X666228Y86153D01*
X666323Y86091D01*
X666420Y86033D01*
X666519Y85978D01*
X666620Y85927D01*
X666723Y85879D01*
X666827Y85834D01*
X666933Y85794D01*
X667040Y85757D01*
X667148Y85724D01*
X667258Y85694D01*
X667368Y85669D01*
X667479Y85647D01*
X667591Y85630D01*
X667704Y85616D01*
X667817Y85606D01*
X667930Y85600D01*
X668043Y85598D01*
X671289Y85598D01*
X700419Y331978D02*
X703016Y331978D01*
X703115Y331980D01*
X703215Y331986D01*
X703314Y331995D01*
X703412Y332008D01*
X703510Y332025D01*
X703608Y332046D01*
X703704Y332071D01*
X703799Y332099D01*
X703893Y332131D01*
X703986Y332166D01*
X704078Y332205D01*
X704168Y332248D01*
X704256Y332293D01*
X704343Y332343D01*
X704427Y332395D01*
X704510Y332451D01*
X704590Y332509D01*
X704668Y332571D01*
X704743Y332636D01*
X704816Y332704D01*
X704886Y332774D01*
X704954Y332847D01*
X705019Y332922D01*
X705081Y333000D01*
X705139Y333080D01*
X705195Y333163D01*
X705247Y333247D01*
X705297Y333334D01*
X705342Y333422D01*
X705385Y333512D01*
X705424Y333604D01*
X705459Y333697D01*
X705491Y333791D01*
X705519Y333886D01*
X705544Y333982D01*
X705565Y334080D01*
X705582Y334178D01*
X705595Y334276D01*
X705604Y334375D01*
X705610Y334475D01*
X705612Y334574D01*
X705612Y341066D01*
X705610Y341165D01*
X705604Y341265D01*
X705595Y341364D01*
X705582Y341462D01*
X705565Y341560D01*
X705544Y341658D01*
X705519Y341754D01*
X705491Y341849D01*
X705459Y341943D01*
X705424Y342036D01*
X705385Y342128D01*
X705342Y342218D01*
X705297Y342306D01*
X705247Y342393D01*
X705195Y342477D01*
X705139Y342560D01*
X705081Y342640D01*
X705019Y342718D01*
X704954Y342793D01*
X704886Y342866D01*
X704816Y342936D01*
X704743Y343004D01*
X704668Y343069D01*
X704590Y343131D01*
X704510Y343189D01*
X704427Y343245D01*
X704343Y343297D01*
X704256Y343347D01*
X704168Y343392D01*
X704078Y343435D01*
X703986Y343474D01*
X703893Y343509D01*
X703799Y343541D01*
X703704Y343569D01*
X703608Y343594D01*
X703510Y343615D01*
X703412Y343632D01*
X703314Y343645D01*
X703215Y343654D01*
X703115Y343660D01*
X703016Y343662D01*
X700419Y343662D01*
X696548Y330680D02*
X691355Y330680D01*
X681985Y338469D02*
X680038Y338469D01*
X680038Y331978D01*
X683932Y331978D01*
X684031Y331980D01*
X684131Y331986D01*
X684230Y331995D01*
X684328Y332008D01*
X684426Y332025D01*
X684524Y332046D01*
X684620Y332071D01*
X684715Y332099D01*
X684809Y332131D01*
X684902Y332166D01*
X684994Y332205D01*
X685084Y332248D01*
X685172Y332293D01*
X685259Y332343D01*
X685343Y332395D01*
X685426Y332451D01*
X685506Y332509D01*
X685584Y332571D01*
X685659Y332636D01*
X685732Y332704D01*
X685802Y332774D01*
X685870Y332847D01*
X685935Y332922D01*
X685997Y333000D01*
X686055Y333080D01*
X686111Y333163D01*
X686163Y333247D01*
X686213Y333334D01*
X686258Y333422D01*
X686301Y333512D01*
X686340Y333604D01*
X686375Y333697D01*
X686407Y333791D01*
X686435Y333886D01*
X686460Y333982D01*
X686481Y334080D01*
X686498Y334178D01*
X686511Y334276D01*
X686520Y334375D01*
X686526Y334475D01*
X686528Y334574D01*
X686529Y334574D02*
X686529Y341066D01*
X686528Y341066D02*
X686526Y341165D01*
X686520Y341265D01*
X686511Y341364D01*
X686498Y341462D01*
X686481Y341560D01*
X686460Y341658D01*
X686435Y341754D01*
X686407Y341849D01*
X686375Y341943D01*
X686340Y342036D01*
X686301Y342128D01*
X686258Y342218D01*
X686213Y342306D01*
X686163Y342393D01*
X686111Y342477D01*
X686055Y342560D01*
X685997Y342640D01*
X685935Y342718D01*
X685870Y342793D01*
X685802Y342866D01*
X685732Y342936D01*
X685659Y343004D01*
X685584Y343069D01*
X685506Y343131D01*
X685426Y343189D01*
X685343Y343245D01*
X685259Y343297D01*
X685172Y343347D01*
X685084Y343392D01*
X684994Y343435D01*
X684902Y343474D01*
X684809Y343509D01*
X684715Y343541D01*
X684620Y343569D01*
X684524Y343594D01*
X684426Y343615D01*
X684328Y343632D01*
X684230Y343645D01*
X684131Y343654D01*
X684031Y343660D01*
X683932Y343662D01*
X680038Y343662D01*
X671472Y343662D02*
X675367Y331978D01*
X667578Y331978D02*
X671472Y343662D01*
X668551Y334899D02*
X674393Y334899D01*
X660804Y331978D02*
X660804Y343662D01*
X657559Y343662D02*
X664050Y343662D01*
X652978Y331978D02*
X647785Y331978D01*
X652978Y331978D02*
X652978Y343662D01*
X647785Y343662D01*
X649084Y338469D02*
X652978Y338469D01*
X818388Y210886D02*
X818388Y208289D01*
X818390Y208190D01*
X818396Y208090D01*
X818405Y207991D01*
X818418Y207893D01*
X818435Y207795D01*
X818456Y207697D01*
X818481Y207601D01*
X818509Y207506D01*
X818541Y207412D01*
X818576Y207319D01*
X818615Y207227D01*
X818658Y207137D01*
X818703Y207049D01*
X818753Y206962D01*
X818805Y206878D01*
X818861Y206795D01*
X818919Y206715D01*
X818981Y206637D01*
X819046Y206562D01*
X819114Y206489D01*
X819184Y206419D01*
X819257Y206351D01*
X819332Y206286D01*
X819410Y206224D01*
X819490Y206166D01*
X819573Y206110D01*
X819657Y206058D01*
X819744Y206008D01*
X819832Y205963D01*
X819922Y205920D01*
X820014Y205881D01*
X820107Y205846D01*
X820201Y205814D01*
X820296Y205786D01*
X820392Y205761D01*
X820490Y205740D01*
X820588Y205723D01*
X820686Y205710D01*
X820785Y205701D01*
X820885Y205695D01*
X820984Y205693D01*
X827476Y205693D01*
X827575Y205695D01*
X827675Y205701D01*
X827774Y205710D01*
X827872Y205723D01*
X827970Y205740D01*
X828068Y205761D01*
X828164Y205786D01*
X828259Y205814D01*
X828353Y205846D01*
X828446Y205881D01*
X828538Y205920D01*
X828628Y205963D01*
X828716Y206008D01*
X828803Y206058D01*
X828887Y206110D01*
X828970Y206166D01*
X829050Y206224D01*
X829128Y206286D01*
X829203Y206351D01*
X829276Y206419D01*
X829346Y206489D01*
X829414Y206562D01*
X829479Y206637D01*
X829541Y206715D01*
X829599Y206795D01*
X829655Y206878D01*
X829707Y206962D01*
X829757Y207049D01*
X829802Y207137D01*
X829845Y207227D01*
X829884Y207319D01*
X829919Y207411D01*
X829951Y207506D01*
X829979Y207601D01*
X830004Y207697D01*
X830025Y207795D01*
X830042Y207893D01*
X830055Y207991D01*
X830064Y208090D01*
X830070Y208190D01*
X830072Y208289D01*
X830072Y210886D01*
X817090Y214757D02*
X817090Y219950D01*
X818388Y224776D02*
X830072Y224776D01*
X830072Y228022D01*
X830070Y228135D01*
X830064Y228248D01*
X830054Y228361D01*
X830040Y228474D01*
X830023Y228586D01*
X830001Y228697D01*
X829976Y228807D01*
X829946Y228917D01*
X829913Y229025D01*
X829876Y229132D01*
X829836Y229238D01*
X829791Y229342D01*
X829743Y229445D01*
X829692Y229546D01*
X829637Y229645D01*
X829579Y229742D01*
X829517Y229837D01*
X829452Y229930D01*
X829384Y230020D01*
X829313Y230108D01*
X829238Y230194D01*
X829161Y230277D01*
X829081Y230357D01*
X828998Y230434D01*
X828912Y230509D01*
X828824Y230580D01*
X828734Y230648D01*
X828641Y230713D01*
X828546Y230775D01*
X828449Y230833D01*
X828350Y230888D01*
X828249Y230939D01*
X828146Y230987D01*
X828042Y231032D01*
X827936Y231072D01*
X827829Y231109D01*
X827721Y231142D01*
X827611Y231172D01*
X827501Y231197D01*
X827390Y231219D01*
X827278Y231236D01*
X827165Y231250D01*
X827052Y231260D01*
X826939Y231266D01*
X826826Y231268D01*
X826826Y231267D02*
X821634Y231267D01*
X821634Y231268D02*
X821521Y231266D01*
X821408Y231260D01*
X821295Y231250D01*
X821182Y231236D01*
X821070Y231219D01*
X820959Y231197D01*
X820849Y231172D01*
X820739Y231142D01*
X820631Y231109D01*
X820524Y231072D01*
X820418Y231032D01*
X820314Y230987D01*
X820211Y230939D01*
X820110Y230888D01*
X820011Y230833D01*
X819914Y230775D01*
X819819Y230713D01*
X819726Y230648D01*
X819636Y230580D01*
X819548Y230509D01*
X819462Y230434D01*
X819379Y230357D01*
X819299Y230277D01*
X819222Y230194D01*
X819147Y230108D01*
X819076Y230020D01*
X819008Y229930D01*
X818943Y229837D01*
X818881Y229742D01*
X818823Y229645D01*
X818768Y229546D01*
X818717Y229445D01*
X818669Y229342D01*
X818624Y229238D01*
X818584Y229132D01*
X818547Y229025D01*
X818514Y228917D01*
X818484Y228807D01*
X818459Y228697D01*
X818437Y228586D01*
X818420Y228474D01*
X818406Y228361D01*
X818396Y228248D01*
X818390Y228135D01*
X818388Y228022D01*
X818388Y224776D01*
X818388Y237042D02*
X830072Y237042D01*
X830072Y240287D01*
X830070Y240400D01*
X830064Y240513D01*
X830054Y240626D01*
X830040Y240739D01*
X830023Y240851D01*
X830001Y240962D01*
X829976Y241072D01*
X829946Y241182D01*
X829913Y241290D01*
X829876Y241397D01*
X829836Y241503D01*
X829791Y241607D01*
X829743Y241710D01*
X829692Y241811D01*
X829637Y241910D01*
X829579Y242007D01*
X829517Y242102D01*
X829452Y242195D01*
X829384Y242285D01*
X829313Y242373D01*
X829238Y242459D01*
X829161Y242542D01*
X829081Y242622D01*
X828998Y242699D01*
X828912Y242774D01*
X828824Y242845D01*
X828734Y242913D01*
X828641Y242978D01*
X828546Y243040D01*
X828449Y243098D01*
X828350Y243153D01*
X828249Y243204D01*
X828146Y243252D01*
X828042Y243297D01*
X827936Y243337D01*
X827829Y243374D01*
X827721Y243407D01*
X827611Y243437D01*
X827501Y243462D01*
X827390Y243484D01*
X827278Y243501D01*
X827165Y243515D01*
X827052Y243525D01*
X826939Y243531D01*
X826826Y243533D01*
X826713Y243531D01*
X826600Y243525D01*
X826487Y243515D01*
X826374Y243501D01*
X826262Y243484D01*
X826151Y243462D01*
X826041Y243437D01*
X825931Y243407D01*
X825823Y243374D01*
X825716Y243337D01*
X825610Y243297D01*
X825506Y243252D01*
X825403Y243204D01*
X825302Y243153D01*
X825203Y243098D01*
X825106Y243040D01*
X825011Y242978D01*
X824918Y242913D01*
X824828Y242845D01*
X824740Y242774D01*
X824654Y242699D01*
X824571Y242622D01*
X824491Y242542D01*
X824414Y242459D01*
X824339Y242373D01*
X824268Y242285D01*
X824200Y242195D01*
X824135Y242102D01*
X824073Y242007D01*
X824015Y241910D01*
X823960Y241811D01*
X823909Y241710D01*
X823861Y241607D01*
X823816Y241503D01*
X823776Y241397D01*
X823739Y241290D01*
X823706Y241182D01*
X823676Y241072D01*
X823651Y240962D01*
X823629Y240851D01*
X823612Y240739D01*
X823598Y240626D01*
X823588Y240513D01*
X823582Y240400D01*
X823580Y240287D01*
X823581Y240287D02*
X823581Y237042D01*
X823581Y240936D02*
X818388Y243533D01*
X818388Y249358D02*
X830072Y249358D01*
X818388Y248059D02*
X818388Y250656D01*
X830072Y250656D02*
X830072Y248059D01*
X830072Y254607D02*
X818388Y258502D01*
X830072Y262396D01*
X818388Y267090D02*
X818388Y272282D01*
X818388Y267090D02*
X830072Y267090D01*
X830072Y272282D01*
X824879Y270984D02*
X824879Y267090D01*
X830072Y277047D02*
X818388Y277047D01*
X830072Y277047D02*
X830072Y280292D01*
X830070Y280405D01*
X830064Y280518D01*
X830054Y280631D01*
X830040Y280744D01*
X830023Y280856D01*
X830001Y280967D01*
X829976Y281077D01*
X829946Y281187D01*
X829913Y281295D01*
X829876Y281402D01*
X829836Y281508D01*
X829791Y281612D01*
X829743Y281715D01*
X829692Y281816D01*
X829637Y281915D01*
X829579Y282012D01*
X829517Y282107D01*
X829452Y282200D01*
X829384Y282290D01*
X829313Y282378D01*
X829238Y282464D01*
X829161Y282547D01*
X829081Y282627D01*
X828998Y282704D01*
X828912Y282779D01*
X828824Y282850D01*
X828734Y282918D01*
X828641Y282983D01*
X828546Y283045D01*
X828449Y283103D01*
X828350Y283158D01*
X828249Y283209D01*
X828146Y283257D01*
X828042Y283302D01*
X827936Y283342D01*
X827829Y283379D01*
X827721Y283412D01*
X827611Y283442D01*
X827501Y283467D01*
X827390Y283489D01*
X827278Y283506D01*
X827165Y283520D01*
X827052Y283530D01*
X826939Y283536D01*
X826826Y283538D01*
X826713Y283536D01*
X826600Y283530D01*
X826487Y283520D01*
X826374Y283506D01*
X826262Y283489D01*
X826151Y283467D01*
X826041Y283442D01*
X825931Y283412D01*
X825823Y283379D01*
X825716Y283342D01*
X825610Y283302D01*
X825506Y283257D01*
X825403Y283209D01*
X825302Y283158D01*
X825203Y283103D01*
X825106Y283045D01*
X825011Y282983D01*
X824918Y282918D01*
X824828Y282850D01*
X824740Y282779D01*
X824654Y282704D01*
X824571Y282627D01*
X824491Y282547D01*
X824414Y282464D01*
X824339Y282378D01*
X824268Y282290D01*
X824200Y282200D01*
X824135Y282107D01*
X824073Y282012D01*
X824015Y281915D01*
X823960Y281816D01*
X823909Y281715D01*
X823861Y281612D01*
X823816Y281508D01*
X823776Y281402D01*
X823739Y281295D01*
X823706Y281187D01*
X823676Y281077D01*
X823651Y280967D01*
X823629Y280856D01*
X823612Y280744D01*
X823598Y280631D01*
X823588Y280518D01*
X823582Y280405D01*
X823580Y280292D01*
X823581Y280292D02*
X823581Y277047D01*
X823581Y280941D02*
X818388Y283538D01*
X817090Y287909D02*
X817090Y293102D01*
X818388Y298507D02*
X830072Y298507D01*
X818388Y297208D02*
X818388Y299805D01*
X830072Y299805D02*
X830072Y297208D01*
X830072Y304786D02*
X818388Y304786D01*
X818388Y311277D02*
X830072Y304786D01*
X830072Y311277D02*
X818388Y311277D01*
X817090Y316103D02*
X817090Y321296D01*
X827151Y332232D02*
X827258Y332230D01*
X827364Y332224D01*
X827470Y332214D01*
X827576Y332201D01*
X827682Y332183D01*
X827786Y332162D01*
X827890Y332137D01*
X827993Y332108D01*
X828094Y332076D01*
X828194Y332039D01*
X828293Y331999D01*
X828391Y331956D01*
X828487Y331909D01*
X828581Y331858D01*
X828673Y331804D01*
X828763Y331747D01*
X828851Y331687D01*
X828936Y331623D01*
X829019Y331556D01*
X829100Y331486D01*
X829178Y331414D01*
X829254Y331338D01*
X829326Y331260D01*
X829396Y331179D01*
X829463Y331096D01*
X829527Y331011D01*
X829587Y330923D01*
X829644Y330833D01*
X829698Y330741D01*
X829749Y330647D01*
X829796Y330551D01*
X829839Y330453D01*
X829879Y330354D01*
X829916Y330254D01*
X829948Y330153D01*
X829977Y330050D01*
X830002Y329946D01*
X830023Y329842D01*
X830041Y329736D01*
X830054Y329630D01*
X830064Y329524D01*
X830070Y329418D01*
X830072Y329311D01*
X830070Y329190D01*
X830064Y329069D01*
X830054Y328949D01*
X830041Y328828D01*
X830023Y328709D01*
X830002Y328589D01*
X829977Y328471D01*
X829948Y328354D01*
X829915Y328237D01*
X829879Y328122D01*
X829838Y328008D01*
X829795Y327895D01*
X829747Y327783D01*
X829696Y327674D01*
X829641Y327566D01*
X829583Y327459D01*
X829522Y327355D01*
X829457Y327253D01*
X829389Y327153D01*
X829318Y327055D01*
X829244Y326959D01*
X829167Y326866D01*
X829086Y326776D01*
X829003Y326688D01*
X828917Y326603D01*
X828828Y326520D01*
X828737Y326441D01*
X828643Y326364D01*
X828547Y326291D01*
X828449Y326221D01*
X828348Y326154D01*
X828245Y326090D01*
X828140Y326030D01*
X828033Y325973D01*
X827925Y325919D01*
X827815Y325869D01*
X827703Y325823D01*
X827590Y325780D01*
X827475Y325741D01*
X824879Y331259D02*
X824956Y331338D01*
X825037Y331414D01*
X825120Y331487D01*
X825205Y331557D01*
X825293Y331624D01*
X825383Y331688D01*
X825475Y331748D01*
X825570Y331805D01*
X825666Y331859D01*
X825764Y331910D01*
X825864Y331957D01*
X825966Y332001D01*
X826069Y332041D01*
X826173Y332077D01*
X826279Y332109D01*
X826385Y332138D01*
X826493Y332163D01*
X826601Y332185D01*
X826711Y332202D01*
X826820Y332216D01*
X826930Y332225D01*
X827041Y332231D01*
X827151Y332233D01*
X824879Y331258D02*
X818388Y325741D01*
X818388Y332232D01*
X838708Y210886D02*
X838708Y208289D01*
X838710Y208190D01*
X838716Y208090D01*
X838725Y207991D01*
X838738Y207893D01*
X838755Y207795D01*
X838776Y207697D01*
X838801Y207601D01*
X838829Y207506D01*
X838861Y207412D01*
X838896Y207319D01*
X838935Y207227D01*
X838978Y207137D01*
X839023Y207049D01*
X839073Y206962D01*
X839125Y206878D01*
X839181Y206795D01*
X839239Y206715D01*
X839301Y206637D01*
X839366Y206562D01*
X839434Y206489D01*
X839504Y206419D01*
X839577Y206351D01*
X839652Y206286D01*
X839730Y206224D01*
X839810Y206166D01*
X839893Y206110D01*
X839977Y206058D01*
X840064Y206008D01*
X840152Y205963D01*
X840242Y205920D01*
X840334Y205881D01*
X840427Y205846D01*
X840521Y205814D01*
X840616Y205786D01*
X840712Y205761D01*
X840810Y205740D01*
X840908Y205723D01*
X841006Y205710D01*
X841105Y205701D01*
X841205Y205695D01*
X841304Y205693D01*
X847796Y205693D01*
X847895Y205695D01*
X847995Y205701D01*
X848094Y205710D01*
X848192Y205723D01*
X848290Y205740D01*
X848388Y205761D01*
X848484Y205786D01*
X848579Y205814D01*
X848673Y205846D01*
X848766Y205881D01*
X848858Y205920D01*
X848948Y205963D01*
X849036Y206008D01*
X849123Y206058D01*
X849207Y206110D01*
X849290Y206166D01*
X849370Y206224D01*
X849448Y206286D01*
X849523Y206351D01*
X849596Y206419D01*
X849666Y206489D01*
X849734Y206562D01*
X849799Y206637D01*
X849861Y206715D01*
X849919Y206795D01*
X849975Y206878D01*
X850027Y206962D01*
X850077Y207049D01*
X850122Y207137D01*
X850165Y207227D01*
X850204Y207319D01*
X850239Y207411D01*
X850271Y207506D01*
X850299Y207601D01*
X850324Y207697D01*
X850345Y207795D01*
X850362Y207893D01*
X850375Y207991D01*
X850384Y208090D01*
X850390Y208190D01*
X850392Y208289D01*
X850392Y210886D01*
X837410Y214757D02*
X837410Y219950D01*
X838708Y224776D02*
X850392Y224776D01*
X850392Y228022D01*
X850390Y228135D01*
X850384Y228248D01*
X850374Y228361D01*
X850360Y228474D01*
X850343Y228586D01*
X850321Y228697D01*
X850296Y228807D01*
X850266Y228917D01*
X850233Y229025D01*
X850196Y229132D01*
X850156Y229238D01*
X850111Y229342D01*
X850063Y229445D01*
X850012Y229546D01*
X849957Y229645D01*
X849899Y229742D01*
X849837Y229837D01*
X849772Y229930D01*
X849704Y230020D01*
X849633Y230108D01*
X849558Y230194D01*
X849481Y230277D01*
X849401Y230357D01*
X849318Y230434D01*
X849232Y230509D01*
X849144Y230580D01*
X849054Y230648D01*
X848961Y230713D01*
X848866Y230775D01*
X848769Y230833D01*
X848670Y230888D01*
X848569Y230939D01*
X848466Y230987D01*
X848362Y231032D01*
X848256Y231072D01*
X848149Y231109D01*
X848041Y231142D01*
X847931Y231172D01*
X847821Y231197D01*
X847710Y231219D01*
X847598Y231236D01*
X847485Y231250D01*
X847372Y231260D01*
X847259Y231266D01*
X847146Y231268D01*
X847146Y231267D02*
X841954Y231267D01*
X841954Y231268D02*
X841841Y231266D01*
X841728Y231260D01*
X841615Y231250D01*
X841502Y231236D01*
X841390Y231219D01*
X841279Y231197D01*
X841169Y231172D01*
X841059Y231142D01*
X840951Y231109D01*
X840844Y231072D01*
X840738Y231032D01*
X840634Y230987D01*
X840531Y230939D01*
X840430Y230888D01*
X840331Y230833D01*
X840234Y230775D01*
X840139Y230713D01*
X840046Y230648D01*
X839956Y230580D01*
X839868Y230509D01*
X839782Y230434D01*
X839699Y230357D01*
X839619Y230277D01*
X839542Y230194D01*
X839467Y230108D01*
X839396Y230020D01*
X839328Y229930D01*
X839263Y229837D01*
X839201Y229742D01*
X839143Y229645D01*
X839088Y229546D01*
X839037Y229445D01*
X838989Y229342D01*
X838944Y229238D01*
X838904Y229132D01*
X838867Y229025D01*
X838834Y228917D01*
X838804Y228807D01*
X838779Y228697D01*
X838757Y228586D01*
X838740Y228474D01*
X838726Y228361D01*
X838716Y228248D01*
X838710Y228135D01*
X838708Y228022D01*
X838708Y224776D01*
X838708Y237042D02*
X850392Y237042D01*
X850392Y240287D01*
X850390Y240400D01*
X850384Y240513D01*
X850374Y240626D01*
X850360Y240739D01*
X850343Y240851D01*
X850321Y240962D01*
X850296Y241072D01*
X850266Y241182D01*
X850233Y241290D01*
X850196Y241397D01*
X850156Y241503D01*
X850111Y241607D01*
X850063Y241710D01*
X850012Y241811D01*
X849957Y241910D01*
X849899Y242007D01*
X849837Y242102D01*
X849772Y242195D01*
X849704Y242285D01*
X849633Y242373D01*
X849558Y242459D01*
X849481Y242542D01*
X849401Y242622D01*
X849318Y242699D01*
X849232Y242774D01*
X849144Y242845D01*
X849054Y242913D01*
X848961Y242978D01*
X848866Y243040D01*
X848769Y243098D01*
X848670Y243153D01*
X848569Y243204D01*
X848466Y243252D01*
X848362Y243297D01*
X848256Y243337D01*
X848149Y243374D01*
X848041Y243407D01*
X847931Y243437D01*
X847821Y243462D01*
X847710Y243484D01*
X847598Y243501D01*
X847485Y243515D01*
X847372Y243525D01*
X847259Y243531D01*
X847146Y243533D01*
X847033Y243531D01*
X846920Y243525D01*
X846807Y243515D01*
X846694Y243501D01*
X846582Y243484D01*
X846471Y243462D01*
X846361Y243437D01*
X846251Y243407D01*
X846143Y243374D01*
X846036Y243337D01*
X845930Y243297D01*
X845826Y243252D01*
X845723Y243204D01*
X845622Y243153D01*
X845523Y243098D01*
X845426Y243040D01*
X845331Y242978D01*
X845238Y242913D01*
X845148Y242845D01*
X845060Y242774D01*
X844974Y242699D01*
X844891Y242622D01*
X844811Y242542D01*
X844734Y242459D01*
X844659Y242373D01*
X844588Y242285D01*
X844520Y242195D01*
X844455Y242102D01*
X844393Y242007D01*
X844335Y241910D01*
X844280Y241811D01*
X844229Y241710D01*
X844181Y241607D01*
X844136Y241503D01*
X844096Y241397D01*
X844059Y241290D01*
X844026Y241182D01*
X843996Y241072D01*
X843971Y240962D01*
X843949Y240851D01*
X843932Y240739D01*
X843918Y240626D01*
X843908Y240513D01*
X843902Y240400D01*
X843900Y240287D01*
X843901Y240287D02*
X843901Y237042D01*
X843901Y240936D02*
X838708Y243533D01*
X838708Y249358D02*
X850392Y249358D01*
X838708Y248059D02*
X838708Y250656D01*
X850392Y250656D02*
X850392Y248059D01*
X850392Y254607D02*
X838708Y258502D01*
X850392Y262396D01*
X838708Y267090D02*
X838708Y272282D01*
X838708Y267090D02*
X850392Y267090D01*
X850392Y272282D01*
X845199Y270984D02*
X845199Y267090D01*
X850392Y277047D02*
X838708Y277047D01*
X850392Y277047D02*
X850392Y280292D01*
X850390Y280405D01*
X850384Y280518D01*
X850374Y280631D01*
X850360Y280744D01*
X850343Y280856D01*
X850321Y280967D01*
X850296Y281077D01*
X850266Y281187D01*
X850233Y281295D01*
X850196Y281402D01*
X850156Y281508D01*
X850111Y281612D01*
X850063Y281715D01*
X850012Y281816D01*
X849957Y281915D01*
X849899Y282012D01*
X849837Y282107D01*
X849772Y282200D01*
X849704Y282290D01*
X849633Y282378D01*
X849558Y282464D01*
X849481Y282547D01*
X849401Y282627D01*
X849318Y282704D01*
X849232Y282779D01*
X849144Y282850D01*
X849054Y282918D01*
X848961Y282983D01*
X848866Y283045D01*
X848769Y283103D01*
X848670Y283158D01*
X848569Y283209D01*
X848466Y283257D01*
X848362Y283302D01*
X848256Y283342D01*
X848149Y283379D01*
X848041Y283412D01*
X847931Y283442D01*
X847821Y283467D01*
X847710Y283489D01*
X847598Y283506D01*
X847485Y283520D01*
X847372Y283530D01*
X847259Y283536D01*
X847146Y283538D01*
X847033Y283536D01*
X846920Y283530D01*
X846807Y283520D01*
X846694Y283506D01*
X846582Y283489D01*
X846471Y283467D01*
X846361Y283442D01*
X846251Y283412D01*
X846143Y283379D01*
X846036Y283342D01*
X845930Y283302D01*
X845826Y283257D01*
X845723Y283209D01*
X845622Y283158D01*
X845523Y283103D01*
X845426Y283045D01*
X845331Y282983D01*
X845238Y282918D01*
X845148Y282850D01*
X845060Y282779D01*
X844974Y282704D01*
X844891Y282627D01*
X844811Y282547D01*
X844734Y282464D01*
X844659Y282378D01*
X844588Y282290D01*
X844520Y282200D01*
X844455Y282107D01*
X844393Y282012D01*
X844335Y281915D01*
X844280Y281816D01*
X844229Y281715D01*
X844181Y281612D01*
X844136Y281508D01*
X844096Y281402D01*
X844059Y281295D01*
X844026Y281187D01*
X843996Y281077D01*
X843971Y280967D01*
X843949Y280856D01*
X843932Y280744D01*
X843918Y280631D01*
X843908Y280518D01*
X843902Y280405D01*
X843900Y280292D01*
X843901Y280292D02*
X843901Y277047D01*
X843901Y280941D02*
X838708Y283538D01*
X837410Y287909D02*
X837410Y293102D01*
X838708Y298507D02*
X850392Y298507D01*
X838708Y297208D02*
X838708Y299805D01*
X850392Y299805D02*
X850392Y297208D01*
X850392Y304786D02*
X838708Y304786D01*
X838708Y311277D02*
X850392Y304786D01*
X850392Y311277D02*
X838708Y311277D01*
X837410Y316103D02*
X837410Y321296D01*
X847796Y325741D02*
X850392Y328986D01*
X838708Y328986D01*
X838708Y325741D02*
X838708Y332232D01*
X980948Y239381D02*
X980948Y236784D01*
X980950Y236685D01*
X980956Y236585D01*
X980965Y236486D01*
X980978Y236388D01*
X980995Y236290D01*
X981016Y236192D01*
X981041Y236096D01*
X981069Y236001D01*
X981101Y235907D01*
X981136Y235814D01*
X981175Y235722D01*
X981218Y235632D01*
X981263Y235544D01*
X981313Y235457D01*
X981365Y235373D01*
X981421Y235290D01*
X981479Y235210D01*
X981541Y235132D01*
X981606Y235057D01*
X981674Y234984D01*
X981744Y234914D01*
X981817Y234846D01*
X981892Y234781D01*
X981970Y234719D01*
X982050Y234661D01*
X982133Y234605D01*
X982217Y234553D01*
X982304Y234503D01*
X982392Y234458D01*
X982482Y234415D01*
X982574Y234376D01*
X982667Y234341D01*
X982761Y234309D01*
X982856Y234281D01*
X982952Y234256D01*
X983050Y234235D01*
X983148Y234218D01*
X983246Y234205D01*
X983345Y234196D01*
X983445Y234190D01*
X983544Y234188D01*
X990036Y234188D01*
X990135Y234190D01*
X990235Y234196D01*
X990334Y234205D01*
X990432Y234218D01*
X990530Y234235D01*
X990628Y234256D01*
X990724Y234281D01*
X990819Y234309D01*
X990913Y234341D01*
X991006Y234376D01*
X991098Y234415D01*
X991188Y234458D01*
X991276Y234503D01*
X991363Y234553D01*
X991447Y234605D01*
X991530Y234661D01*
X991610Y234719D01*
X991688Y234781D01*
X991763Y234846D01*
X991836Y234914D01*
X991906Y234984D01*
X991974Y235057D01*
X992039Y235132D01*
X992101Y235210D01*
X992159Y235290D01*
X992215Y235373D01*
X992267Y235457D01*
X992317Y235544D01*
X992362Y235632D01*
X992405Y235722D01*
X992444Y235814D01*
X992479Y235906D01*
X992511Y236001D01*
X992539Y236096D01*
X992564Y236192D01*
X992585Y236290D01*
X992602Y236388D01*
X992615Y236486D01*
X992624Y236585D01*
X992630Y236685D01*
X992632Y236784D01*
X992632Y239381D01*
X979650Y243252D02*
X979650Y248445D01*
X980948Y256404D02*
X980950Y256503D01*
X980956Y256603D01*
X980965Y256702D01*
X980978Y256800D01*
X980995Y256898D01*
X981016Y256996D01*
X981041Y257092D01*
X981069Y257187D01*
X981101Y257281D01*
X981136Y257374D01*
X981175Y257466D01*
X981218Y257556D01*
X981263Y257644D01*
X981313Y257731D01*
X981365Y257815D01*
X981421Y257898D01*
X981479Y257978D01*
X981541Y258056D01*
X981606Y258131D01*
X981674Y258204D01*
X981744Y258274D01*
X981817Y258342D01*
X981892Y258407D01*
X981970Y258469D01*
X982050Y258527D01*
X982133Y258583D01*
X982217Y258635D01*
X982304Y258685D01*
X982392Y258730D01*
X982482Y258773D01*
X982574Y258812D01*
X982667Y258847D01*
X982761Y258879D01*
X982856Y258907D01*
X982952Y258932D01*
X983050Y258953D01*
X983148Y258970D01*
X983246Y258983D01*
X983345Y258992D01*
X983445Y258998D01*
X983544Y259000D01*
X980948Y256404D02*
X980950Y256260D01*
X980956Y256115D01*
X980965Y255971D01*
X980978Y255828D01*
X980995Y255684D01*
X981016Y255541D01*
X981041Y255399D01*
X981069Y255258D01*
X981101Y255117D01*
X981137Y254977D01*
X981176Y254838D01*
X981219Y254700D01*
X981266Y254564D01*
X981316Y254428D01*
X981370Y254294D01*
X981427Y254162D01*
X981488Y254031D01*
X981552Y253902D01*
X981620Y253774D01*
X981690Y253648D01*
X981765Y253524D01*
X981842Y253403D01*
X981923Y253283D01*
X982006Y253165D01*
X982093Y253050D01*
X982183Y252937D01*
X982276Y252826D01*
X982371Y252718D01*
X982470Y252612D01*
X982571Y252509D01*
X990036Y252834D02*
X990135Y252836D01*
X990235Y252842D01*
X990334Y252851D01*
X990432Y252864D01*
X990530Y252881D01*
X990628Y252902D01*
X990724Y252927D01*
X990819Y252955D01*
X990913Y252987D01*
X991006Y253022D01*
X991098Y253061D01*
X991188Y253104D01*
X991276Y253149D01*
X991363Y253199D01*
X991447Y253251D01*
X991530Y253307D01*
X991610Y253365D01*
X991688Y253427D01*
X991763Y253492D01*
X991836Y253560D01*
X991906Y253630D01*
X991974Y253703D01*
X992039Y253778D01*
X992101Y253856D01*
X992159Y253936D01*
X992215Y254019D01*
X992267Y254103D01*
X992317Y254190D01*
X992362Y254278D01*
X992405Y254368D01*
X992444Y254460D01*
X992479Y254553D01*
X992511Y254647D01*
X992539Y254742D01*
X992564Y254839D01*
X992585Y254936D01*
X992602Y255034D01*
X992615Y255132D01*
X992624Y255231D01*
X992630Y255331D01*
X992632Y255430D01*
X992630Y255566D01*
X992624Y255702D01*
X992615Y255838D01*
X992602Y255974D01*
X992584Y256109D01*
X992564Y256243D01*
X992539Y256377D01*
X992511Y256511D01*
X992478Y256643D01*
X992443Y256774D01*
X992403Y256905D01*
X992360Y257034D01*
X992314Y257162D01*
X992263Y257288D01*
X992210Y257414D01*
X992152Y257537D01*
X992092Y257659D01*
X992028Y257779D01*
X991960Y257898D01*
X991890Y258014D01*
X991816Y258128D01*
X991739Y258241D01*
X991658Y258351D01*
X987764Y254132D02*
X987817Y254046D01*
X987874Y253962D01*
X987933Y253880D01*
X987996Y253800D01*
X988062Y253723D01*
X988130Y253648D01*
X988202Y253576D01*
X988276Y253507D01*
X988353Y253441D01*
X988432Y253378D01*
X988514Y253318D01*
X988598Y253261D01*
X988684Y253207D01*
X988772Y253157D01*
X988862Y253110D01*
X988953Y253066D01*
X989047Y253027D01*
X989141Y252990D01*
X989237Y252958D01*
X989335Y252929D01*
X989433Y252904D01*
X989532Y252883D01*
X989632Y252865D01*
X989732Y252852D01*
X989833Y252842D01*
X989935Y252836D01*
X990036Y252834D01*
X985816Y257702D02*
X985763Y257788D01*
X985706Y257872D01*
X985647Y257954D01*
X985584Y258034D01*
X985518Y258111D01*
X985450Y258186D01*
X985378Y258258D01*
X985304Y258327D01*
X985227Y258393D01*
X985148Y258456D01*
X985066Y258516D01*
X984982Y258573D01*
X984896Y258627D01*
X984808Y258677D01*
X984718Y258724D01*
X984627Y258768D01*
X984533Y258807D01*
X984439Y258844D01*
X984343Y258876D01*
X984245Y258905D01*
X984147Y258930D01*
X984048Y258951D01*
X983948Y258969D01*
X983848Y258982D01*
X983747Y258992D01*
X983645Y258998D01*
X983544Y259000D01*
X985816Y257702D02*
X987764Y254132D01*
D11*
X458910Y414020D02*
X458937Y416253D01*
X459020Y418485D01*
X459157Y420714D01*
X459348Y422940D01*
X459594Y425159D01*
X459895Y427372D01*
X460250Y429578D01*
X460659Y431773D01*
X461121Y433958D01*
X461637Y436131D01*
X462206Y438291D01*
X462828Y440436D01*
X463503Y442565D01*
X464229Y444677D01*
X465008Y446770D01*
X465837Y448844D01*
X466717Y450897D01*
X467647Y452928D01*
X468627Y454935D01*
X469655Y456917D01*
X470732Y458874D01*
X471857Y460803D01*
X473028Y462705D01*
X474246Y464577D01*
X475510Y466419D01*
X476818Y468229D01*
X478170Y470006D01*
X479566Y471750D01*
X481004Y473459D01*
X482483Y475132D01*
X484004Y476768D01*
X485563Y478367D01*
X487162Y479926D01*
X488798Y481447D01*
X490471Y482926D01*
X492180Y484364D01*
X493924Y485760D01*
X495701Y487112D01*
X497511Y488420D01*
X499353Y489684D01*
X501225Y490902D01*
X503127Y492073D01*
X505056Y493198D01*
X507013Y494275D01*
X508995Y495303D01*
X511002Y496283D01*
X513033Y497213D01*
X515086Y498093D01*
X517160Y498922D01*
X519253Y499701D01*
X521365Y500427D01*
X523494Y501102D01*
X525639Y501724D01*
X527799Y502293D01*
X529972Y502809D01*
X532157Y503271D01*
X534352Y503680D01*
X536558Y504035D01*
X538771Y504336D01*
X540990Y504582D01*
X543216Y504773D01*
X545445Y504910D01*
X547677Y504993D01*
X549910Y505020D01*
X552143Y504993D01*
X554375Y504910D01*
X556604Y504773D01*
X558830Y504582D01*
X561049Y504336D01*
X563262Y504035D01*
X565468Y503680D01*
X567663Y503271D01*
X569848Y502809D01*
X572021Y502293D01*
X574181Y501724D01*
X576326Y501102D01*
X578455Y500427D01*
X580567Y499701D01*
X582660Y498922D01*
X584734Y498093D01*
X586787Y497213D01*
X588818Y496283D01*
X590825Y495303D01*
X592807Y494275D01*
X594764Y493198D01*
X596693Y492073D01*
X598595Y490902D01*
X600467Y489684D01*
X602309Y488420D01*
X604119Y487112D01*
X605896Y485760D01*
X607640Y484364D01*
X609349Y482926D01*
X611022Y481447D01*
X612658Y479926D01*
X614257Y478367D01*
X615816Y476768D01*
X617337Y475132D01*
X618816Y473459D01*
X620254Y471750D01*
X621650Y470006D01*
X623002Y468229D01*
X624310Y466419D01*
X625574Y464577D01*
X626792Y462705D01*
X627963Y460803D01*
X629088Y458874D01*
X630165Y456917D01*
X631193Y454935D01*
X632173Y452928D01*
X633103Y450897D01*
X633983Y448844D01*
X634812Y446770D01*
X635591Y444677D01*
X636317Y442565D01*
X636992Y440436D01*
X637614Y438291D01*
X638183Y436131D01*
X638699Y433958D01*
X639161Y431773D01*
X639570Y429578D01*
X639925Y427372D01*
X640226Y425159D01*
X640472Y422940D01*
X640663Y420714D01*
X640800Y418485D01*
X640883Y416253D01*
X640910Y414020D01*
X640883Y411787D01*
X640800Y409555D01*
X640663Y407326D01*
X640472Y405100D01*
X640226Y402881D01*
X639925Y400668D01*
X639570Y398462D01*
X639161Y396267D01*
X638699Y394082D01*
X638183Y391909D01*
X637614Y389749D01*
X636992Y387604D01*
X636317Y385475D01*
X635591Y383363D01*
X634812Y381270D01*
X633983Y379196D01*
X633103Y377143D01*
X632173Y375112D01*
X631193Y373105D01*
X630165Y371123D01*
X629088Y369166D01*
X627963Y367237D01*
X626792Y365335D01*
X625574Y363463D01*
X624310Y361621D01*
X623002Y359811D01*
X621650Y358034D01*
X620254Y356290D01*
X618816Y354581D01*
X617337Y352908D01*
X615816Y351272D01*
X614257Y349673D01*
X612658Y348114D01*
X611022Y346593D01*
X609349Y345114D01*
X607640Y343676D01*
X605896Y342280D01*
X604119Y340928D01*
X602309Y339620D01*
X600467Y338356D01*
X598595Y337138D01*
X596693Y335967D01*
X594764Y334842D01*
X592807Y333765D01*
X590825Y332737D01*
X588818Y331757D01*
X586787Y330827D01*
X584734Y329947D01*
X582660Y329118D01*
X580567Y328339D01*
X578455Y327613D01*
X576326Y326938D01*
X574181Y326316D01*
X572021Y325747D01*
X569848Y325231D01*
X567663Y324769D01*
X565468Y324360D01*
X563262Y324005D01*
X561049Y323704D01*
X558830Y323458D01*
X556604Y323267D01*
X554375Y323130D01*
X552143Y323047D01*
X549910Y323020D01*
X547677Y323047D01*
X545445Y323130D01*
X543216Y323267D01*
X540990Y323458D01*
X538771Y323704D01*
X536558Y324005D01*
X534352Y324360D01*
X532157Y324769D01*
X529972Y325231D01*
X527799Y325747D01*
X525639Y326316D01*
X523494Y326938D01*
X521365Y327613D01*
X519253Y328339D01*
X517160Y329118D01*
X515086Y329947D01*
X513033Y330827D01*
X511002Y331757D01*
X508995Y332737D01*
X507013Y333765D01*
X505056Y334842D01*
X503127Y335967D01*
X501225Y337138D01*
X499353Y338356D01*
X497511Y339620D01*
X495701Y340928D01*
X493924Y342280D01*
X492180Y343676D01*
X490471Y345114D01*
X488798Y346593D01*
X487162Y348114D01*
X485563Y349673D01*
X484004Y351272D01*
X482483Y352908D01*
X481004Y354581D01*
X479566Y356290D01*
X478170Y358034D01*
X476818Y359811D01*
X475510Y361621D01*
X474246Y363463D01*
X473028Y365335D01*
X471857Y367237D01*
X470732Y369166D01*
X469655Y371123D01*
X468627Y373105D01*
X467647Y375112D01*
X466717Y377143D01*
X465837Y379196D01*
X465008Y381270D01*
X464229Y383363D01*
X463503Y385475D01*
X462828Y387604D01*
X462206Y389749D01*
X461637Y391909D01*
X461121Y394082D01*
X460659Y396267D01*
X460250Y398462D01*
X459895Y400668D01*
X459594Y402881D01*
X459348Y405100D01*
X459157Y407326D01*
X459020Y409555D01*
X458937Y411787D01*
X458910Y414020D01*
D12*
X550786Y316153D02*
X550786Y309887D01*
X547653Y313020D02*
X553918Y313020D01*
X439331Y401950D02*
X439331Y404038D01*
X439331Y401950D02*
X439333Y401861D01*
X439339Y401773D01*
X439348Y401685D01*
X439361Y401597D01*
X439378Y401510D01*
X439398Y401424D01*
X439423Y401339D01*
X439450Y401254D01*
X439482Y401171D01*
X439516Y401090D01*
X439555Y401010D01*
X439596Y400932D01*
X439641Y400855D01*
X439689Y400781D01*
X439740Y400708D01*
X439794Y400638D01*
X439852Y400571D01*
X439912Y400505D01*
X439974Y400443D01*
X440040Y400383D01*
X440107Y400325D01*
X440177Y400271D01*
X440250Y400220D01*
X440324Y400172D01*
X440401Y400127D01*
X440479Y400086D01*
X440559Y400047D01*
X440640Y400013D01*
X440723Y399981D01*
X440808Y399954D01*
X440893Y399929D01*
X440979Y399909D01*
X441066Y399892D01*
X441154Y399879D01*
X441242Y399870D01*
X441330Y399864D01*
X441419Y399862D01*
X441419Y399861D02*
X446641Y399861D01*
X446641Y399862D02*
X446732Y399864D01*
X446823Y399870D01*
X446914Y399880D01*
X447004Y399894D01*
X447093Y399911D01*
X447181Y399933D01*
X447269Y399959D01*
X447355Y399988D01*
X447440Y400021D01*
X447523Y400058D01*
X447605Y400098D01*
X447685Y400142D01*
X447763Y400189D01*
X447839Y400240D01*
X447912Y400293D01*
X447983Y400350D01*
X448052Y400411D01*
X448117Y400474D01*
X448180Y400539D01*
X448240Y400608D01*
X448298Y400679D01*
X448351Y400752D01*
X448402Y400828D01*
X448449Y400906D01*
X448493Y400986D01*
X448533Y401068D01*
X448570Y401151D01*
X448603Y401236D01*
X448632Y401322D01*
X448658Y401410D01*
X448680Y401498D01*
X448697Y401587D01*
X448711Y401677D01*
X448721Y401768D01*
X448727Y401859D01*
X448729Y401950D01*
X448729Y404038D01*
X438287Y407115D02*
X438287Y411292D01*
X439331Y417433D02*
X448729Y414300D01*
X448729Y420565D02*
X439331Y417433D01*
X439331Y424748D02*
X448729Y424748D01*
X439331Y423704D02*
X439331Y425792D01*
X448729Y425792D02*
X448729Y423704D01*
X448729Y429757D02*
X439331Y429757D01*
X439331Y434979D02*
X448729Y429757D01*
X448729Y434979D02*
X439331Y434979D01*
D13*
X579551Y131840D02*
X579553Y131890D01*
X579559Y131940D01*
X579568Y131990D01*
X579582Y132038D01*
X579599Y132085D01*
X579620Y132131D01*
X579644Y132175D01*
X579672Y132217D01*
X579703Y132257D01*
X579737Y132294D01*
X579773Y132329D01*
X579812Y132361D01*
X579854Y132389D01*
X579898Y132414D01*
X579943Y132436D01*
X579990Y132454D01*
X580038Y132468D01*
X580087Y132479D01*
X580137Y132486D01*
X580187Y132489D01*
X580238Y132488D01*
X580288Y132483D01*
X580337Y132474D01*
X580386Y132462D01*
X580434Y132445D01*
X580480Y132426D01*
X580524Y132402D01*
X580567Y132375D01*
X580607Y132345D01*
X580645Y132312D01*
X580681Y132276D01*
X580713Y132238D01*
X580742Y132197D01*
X580768Y132154D01*
X580791Y132109D01*
X580810Y132062D01*
X580825Y132014D01*
X580837Y131965D01*
X580845Y131915D01*
X580849Y131865D01*
X580849Y131815D01*
X580845Y131765D01*
X580837Y131715D01*
X580825Y131666D01*
X580810Y131618D01*
X580791Y131571D01*
X580768Y131526D01*
X580742Y131483D01*
X580713Y131442D01*
X580681Y131404D01*
X580645Y131368D01*
X580607Y131335D01*
X580567Y131305D01*
X580525Y131278D01*
X580480Y131254D01*
X580434Y131235D01*
X580386Y131218D01*
X580337Y131206D01*
X580288Y131197D01*
X580238Y131192D01*
X580187Y131191D01*
X580137Y131194D01*
X580087Y131201D01*
X580038Y131212D01*
X579990Y131226D01*
X579943Y131244D01*
X579898Y131266D01*
X579854Y131291D01*
X579812Y131319D01*
X579773Y131351D01*
X579737Y131386D01*
X579703Y131423D01*
X579672Y131463D01*
X579644Y131505D01*
X579620Y131549D01*
X579599Y131595D01*
X579582Y131642D01*
X579568Y131690D01*
X579559Y131740D01*
X579553Y131790D01*
X579551Y131840D01*
D10*
X578542Y96224D02*
X566858Y96224D01*
X578542Y96224D02*
X578542Y99470D01*
X578540Y99583D01*
X578534Y99696D01*
X578524Y99809D01*
X578510Y99922D01*
X578493Y100034D01*
X578471Y100145D01*
X578446Y100255D01*
X578416Y100365D01*
X578383Y100473D01*
X578346Y100580D01*
X578306Y100686D01*
X578261Y100790D01*
X578213Y100893D01*
X578162Y100994D01*
X578107Y101093D01*
X578049Y101190D01*
X577987Y101285D01*
X577922Y101378D01*
X577854Y101468D01*
X577783Y101556D01*
X577708Y101642D01*
X577631Y101725D01*
X577551Y101805D01*
X577468Y101882D01*
X577382Y101957D01*
X577294Y102028D01*
X577204Y102096D01*
X577111Y102161D01*
X577016Y102223D01*
X576919Y102281D01*
X576820Y102336D01*
X576719Y102387D01*
X576616Y102435D01*
X576512Y102480D01*
X576406Y102520D01*
X576299Y102557D01*
X576191Y102590D01*
X576081Y102620D01*
X575971Y102645D01*
X575860Y102667D01*
X575748Y102684D01*
X575635Y102698D01*
X575522Y102708D01*
X575409Y102714D01*
X575296Y102716D01*
X575296Y102715D02*
X570104Y102715D01*
X570104Y102716D02*
X569991Y102714D01*
X569878Y102708D01*
X569765Y102698D01*
X569652Y102684D01*
X569540Y102667D01*
X569429Y102645D01*
X569319Y102620D01*
X569209Y102590D01*
X569101Y102557D01*
X568994Y102520D01*
X568888Y102480D01*
X568784Y102435D01*
X568681Y102387D01*
X568580Y102336D01*
X568481Y102281D01*
X568384Y102223D01*
X568289Y102161D01*
X568196Y102096D01*
X568106Y102028D01*
X568018Y101957D01*
X567932Y101882D01*
X567849Y101805D01*
X567769Y101725D01*
X567692Y101642D01*
X567617Y101556D01*
X567546Y101468D01*
X567478Y101378D01*
X567413Y101285D01*
X567351Y101190D01*
X567293Y101093D01*
X567238Y100994D01*
X567187Y100893D01*
X567139Y100790D01*
X567094Y100686D01*
X567054Y100580D01*
X567017Y100473D01*
X566984Y100365D01*
X566954Y100255D01*
X566929Y100145D01*
X566907Y100034D01*
X566890Y99922D01*
X566876Y99809D01*
X566866Y99696D01*
X566860Y99583D01*
X566858Y99470D01*
X566858Y96224D01*
X575946Y108035D02*
X578542Y111280D01*
X566858Y111280D01*
X566858Y108035D02*
X566858Y114526D01*
X236982Y215752D02*
X225298Y215752D01*
X225298Y214454D02*
X225298Y217050D01*
X236982Y217050D02*
X236982Y214454D01*
X225298Y224214D02*
X225298Y226810D01*
X225298Y224214D02*
X225300Y224115D01*
X225306Y224015D01*
X225315Y223916D01*
X225328Y223818D01*
X225345Y223720D01*
X225366Y223622D01*
X225391Y223526D01*
X225419Y223431D01*
X225451Y223337D01*
X225486Y223244D01*
X225525Y223152D01*
X225568Y223062D01*
X225613Y222974D01*
X225663Y222887D01*
X225715Y222803D01*
X225771Y222720D01*
X225829Y222640D01*
X225891Y222562D01*
X225956Y222487D01*
X226024Y222414D01*
X226094Y222344D01*
X226167Y222276D01*
X226242Y222211D01*
X226320Y222149D01*
X226400Y222091D01*
X226483Y222035D01*
X226567Y221983D01*
X226654Y221933D01*
X226742Y221888D01*
X226832Y221845D01*
X226924Y221806D01*
X227017Y221771D01*
X227111Y221739D01*
X227206Y221711D01*
X227302Y221686D01*
X227400Y221665D01*
X227498Y221648D01*
X227596Y221635D01*
X227695Y221626D01*
X227795Y221620D01*
X227894Y221618D01*
X227894Y221617D02*
X234386Y221617D01*
X234386Y221618D02*
X234485Y221620D01*
X234585Y221626D01*
X234684Y221635D01*
X234782Y221648D01*
X234880Y221665D01*
X234978Y221686D01*
X235074Y221711D01*
X235169Y221739D01*
X235263Y221771D01*
X235356Y221806D01*
X235448Y221845D01*
X235538Y221888D01*
X235626Y221933D01*
X235713Y221983D01*
X235797Y222035D01*
X235880Y222091D01*
X235960Y222149D01*
X236038Y222211D01*
X236113Y222276D01*
X236186Y222344D01*
X236256Y222414D01*
X236324Y222487D01*
X236389Y222562D01*
X236451Y222640D01*
X236509Y222720D01*
X236565Y222803D01*
X236617Y222887D01*
X236667Y222974D01*
X236712Y223062D01*
X236755Y223152D01*
X236794Y223244D01*
X236829Y223336D01*
X236861Y223431D01*
X236889Y223526D01*
X236914Y223622D01*
X236935Y223720D01*
X236952Y223818D01*
X236965Y223916D01*
X236974Y224015D01*
X236980Y224115D01*
X236982Y224214D01*
X236982Y226810D01*
X234386Y231175D02*
X236982Y234421D01*
X225298Y234421D01*
X225298Y237666D02*
X225298Y231175D01*
D11*
X679960Y141340D02*
X711960Y141340D01*
X679960Y141340D02*
X679960Y92340D01*
X711960Y92340D01*
X711960Y141340D01*
X715460Y142640D02*
X730460Y142640D01*
D10*
X706268Y109982D02*
X706268Y98298D01*
X707566Y98298D02*
X704970Y98298D01*
X704970Y109982D02*
X707566Y109982D01*
X697806Y98298D02*
X695210Y98298D01*
X697806Y98298D02*
X697905Y98300D01*
X698005Y98306D01*
X698104Y98315D01*
X698202Y98328D01*
X698300Y98345D01*
X698398Y98366D01*
X698494Y98391D01*
X698589Y98419D01*
X698683Y98451D01*
X698776Y98486D01*
X698868Y98525D01*
X698958Y98568D01*
X699046Y98613D01*
X699133Y98663D01*
X699217Y98715D01*
X699300Y98771D01*
X699380Y98829D01*
X699458Y98891D01*
X699533Y98956D01*
X699606Y99024D01*
X699676Y99094D01*
X699744Y99167D01*
X699809Y99242D01*
X699871Y99320D01*
X699929Y99400D01*
X699985Y99483D01*
X700037Y99567D01*
X700087Y99654D01*
X700132Y99742D01*
X700175Y99832D01*
X700214Y99924D01*
X700249Y100017D01*
X700281Y100111D01*
X700309Y100206D01*
X700334Y100302D01*
X700355Y100400D01*
X700372Y100498D01*
X700385Y100596D01*
X700394Y100695D01*
X700400Y100795D01*
X700402Y100894D01*
X700403Y100894D02*
X700403Y107386D01*
X700402Y107386D02*
X700400Y107485D01*
X700394Y107585D01*
X700385Y107684D01*
X700372Y107782D01*
X700355Y107880D01*
X700334Y107978D01*
X700309Y108074D01*
X700281Y108169D01*
X700249Y108263D01*
X700214Y108356D01*
X700175Y108448D01*
X700132Y108538D01*
X700087Y108626D01*
X700037Y108713D01*
X699985Y108797D01*
X699929Y108880D01*
X699871Y108960D01*
X699809Y109038D01*
X699744Y109113D01*
X699676Y109186D01*
X699606Y109256D01*
X699533Y109324D01*
X699458Y109389D01*
X699380Y109451D01*
X699300Y109509D01*
X699217Y109565D01*
X699133Y109617D01*
X699046Y109667D01*
X698958Y109712D01*
X698868Y109755D01*
X698776Y109794D01*
X698683Y109829D01*
X698589Y109861D01*
X698494Y109889D01*
X698398Y109914D01*
X698300Y109935D01*
X698202Y109952D01*
X698104Y109965D01*
X698005Y109974D01*
X697905Y109980D01*
X697806Y109982D01*
X695210Y109982D01*
X687275Y109982D02*
X687168Y109980D01*
X687062Y109974D01*
X686956Y109964D01*
X686850Y109951D01*
X686744Y109933D01*
X686640Y109912D01*
X686536Y109887D01*
X686433Y109858D01*
X686332Y109826D01*
X686232Y109789D01*
X686133Y109749D01*
X686035Y109706D01*
X685939Y109659D01*
X685845Y109608D01*
X685753Y109554D01*
X685663Y109497D01*
X685575Y109437D01*
X685490Y109373D01*
X685407Y109306D01*
X685326Y109236D01*
X685248Y109164D01*
X685172Y109088D01*
X685100Y109010D01*
X685030Y108929D01*
X684963Y108846D01*
X684899Y108761D01*
X684839Y108673D01*
X684782Y108583D01*
X684728Y108491D01*
X684677Y108397D01*
X684630Y108301D01*
X684587Y108203D01*
X684547Y108104D01*
X684510Y108004D01*
X684478Y107903D01*
X684449Y107800D01*
X684424Y107696D01*
X684403Y107592D01*
X684385Y107486D01*
X684372Y107380D01*
X684362Y107274D01*
X684356Y107168D01*
X684354Y107061D01*
X687275Y109982D02*
X687396Y109980D01*
X687517Y109974D01*
X687637Y109964D01*
X687758Y109951D01*
X687877Y109933D01*
X687997Y109912D01*
X688115Y109887D01*
X688232Y109858D01*
X688349Y109825D01*
X688464Y109789D01*
X688578Y109748D01*
X688691Y109705D01*
X688803Y109657D01*
X688912Y109606D01*
X689020Y109551D01*
X689127Y109493D01*
X689231Y109432D01*
X689333Y109367D01*
X689433Y109299D01*
X689531Y109228D01*
X689627Y109154D01*
X689720Y109077D01*
X689810Y108996D01*
X689898Y108913D01*
X689983Y108827D01*
X690066Y108738D01*
X690145Y108647D01*
X690222Y108553D01*
X690295Y108457D01*
X690365Y108359D01*
X690432Y108258D01*
X690496Y108155D01*
X690557Y108050D01*
X690614Y107943D01*
X690667Y107835D01*
X690717Y107725D01*
X690763Y107613D01*
X690806Y107500D01*
X690845Y107385D01*
X685328Y104789D02*
X685249Y104867D01*
X685173Y104947D01*
X685100Y105030D01*
X685030Y105116D01*
X684963Y105203D01*
X684899Y105294D01*
X684839Y105386D01*
X684781Y105480D01*
X684727Y105577D01*
X684677Y105675D01*
X684630Y105775D01*
X684586Y105876D01*
X684546Y105979D01*
X684510Y106084D01*
X684478Y106189D01*
X684449Y106296D01*
X684424Y106403D01*
X684402Y106512D01*
X684385Y106621D01*
X684371Y106730D01*
X684362Y106840D01*
X684356Y106951D01*
X684354Y107061D01*
X685327Y104789D02*
X690845Y98298D01*
X684354Y98298D01*
D11*
X756160Y344540D02*
X788160Y344540D01*
X756160Y344540D02*
X756160Y295540D01*
X788160Y295540D01*
X788160Y344540D01*
X791660Y345840D02*
X806660Y345840D01*
D10*
X782468Y313182D02*
X782468Y301498D01*
X783766Y301498D02*
X781170Y301498D01*
X781170Y313182D02*
X783766Y313182D01*
X774006Y301498D02*
X771410Y301498D01*
X774006Y301498D02*
X774105Y301500D01*
X774205Y301506D01*
X774304Y301515D01*
X774402Y301528D01*
X774500Y301545D01*
X774598Y301566D01*
X774694Y301591D01*
X774789Y301619D01*
X774883Y301651D01*
X774976Y301686D01*
X775068Y301725D01*
X775158Y301768D01*
X775246Y301813D01*
X775333Y301863D01*
X775417Y301915D01*
X775500Y301971D01*
X775580Y302029D01*
X775658Y302091D01*
X775733Y302156D01*
X775806Y302224D01*
X775876Y302294D01*
X775944Y302367D01*
X776009Y302442D01*
X776071Y302520D01*
X776129Y302600D01*
X776185Y302683D01*
X776237Y302767D01*
X776287Y302854D01*
X776332Y302942D01*
X776375Y303032D01*
X776414Y303124D01*
X776449Y303217D01*
X776481Y303311D01*
X776509Y303406D01*
X776534Y303502D01*
X776555Y303600D01*
X776572Y303698D01*
X776585Y303796D01*
X776594Y303895D01*
X776600Y303995D01*
X776602Y304094D01*
X776603Y304094D02*
X776603Y310586D01*
X776602Y310586D02*
X776600Y310685D01*
X776594Y310785D01*
X776585Y310884D01*
X776572Y310982D01*
X776555Y311080D01*
X776534Y311178D01*
X776509Y311274D01*
X776481Y311369D01*
X776449Y311463D01*
X776414Y311556D01*
X776375Y311648D01*
X776332Y311738D01*
X776287Y311826D01*
X776237Y311913D01*
X776185Y311997D01*
X776129Y312080D01*
X776071Y312160D01*
X776009Y312238D01*
X775944Y312313D01*
X775876Y312386D01*
X775806Y312456D01*
X775733Y312524D01*
X775658Y312589D01*
X775580Y312651D01*
X775500Y312709D01*
X775417Y312765D01*
X775333Y312817D01*
X775246Y312867D01*
X775158Y312912D01*
X775068Y312955D01*
X774976Y312994D01*
X774883Y313029D01*
X774789Y313061D01*
X774694Y313089D01*
X774598Y313114D01*
X774500Y313135D01*
X774402Y313152D01*
X774304Y313165D01*
X774205Y313174D01*
X774105Y313180D01*
X774006Y313182D01*
X771410Y313182D01*
X767045Y301498D02*
X763799Y301498D01*
X763686Y301500D01*
X763573Y301506D01*
X763460Y301516D01*
X763347Y301530D01*
X763235Y301547D01*
X763124Y301569D01*
X763014Y301594D01*
X762904Y301624D01*
X762796Y301657D01*
X762689Y301694D01*
X762583Y301734D01*
X762479Y301779D01*
X762376Y301827D01*
X762275Y301878D01*
X762176Y301933D01*
X762079Y301991D01*
X761984Y302053D01*
X761891Y302118D01*
X761801Y302186D01*
X761713Y302257D01*
X761627Y302332D01*
X761544Y302409D01*
X761464Y302489D01*
X761387Y302572D01*
X761312Y302658D01*
X761241Y302746D01*
X761173Y302836D01*
X761108Y302929D01*
X761046Y303024D01*
X760988Y303121D01*
X760933Y303220D01*
X760882Y303321D01*
X760834Y303424D01*
X760789Y303528D01*
X760749Y303634D01*
X760712Y303741D01*
X760679Y303849D01*
X760649Y303959D01*
X760624Y304069D01*
X760602Y304180D01*
X760585Y304292D01*
X760571Y304405D01*
X760561Y304518D01*
X760555Y304631D01*
X760553Y304744D01*
X760555Y304857D01*
X760561Y304970D01*
X760571Y305083D01*
X760585Y305196D01*
X760602Y305308D01*
X760624Y305419D01*
X760649Y305529D01*
X760679Y305639D01*
X760712Y305747D01*
X760749Y305854D01*
X760789Y305960D01*
X760834Y306064D01*
X760882Y306167D01*
X760933Y306268D01*
X760988Y306367D01*
X761046Y306464D01*
X761108Y306559D01*
X761173Y306652D01*
X761241Y306742D01*
X761312Y306830D01*
X761387Y306916D01*
X761464Y306999D01*
X761544Y307079D01*
X761627Y307156D01*
X761713Y307231D01*
X761801Y307302D01*
X761891Y307370D01*
X761984Y307435D01*
X762079Y307497D01*
X762176Y307555D01*
X762275Y307610D01*
X762376Y307661D01*
X762479Y307709D01*
X762583Y307754D01*
X762689Y307794D01*
X762796Y307831D01*
X762904Y307864D01*
X763014Y307894D01*
X763124Y307919D01*
X763235Y307941D01*
X763347Y307958D01*
X763460Y307972D01*
X763573Y307982D01*
X763686Y307988D01*
X763799Y307990D01*
X763150Y313182D02*
X767045Y313182D01*
X763150Y313182D02*
X763049Y313180D01*
X762949Y313174D01*
X762849Y313164D01*
X762749Y313151D01*
X762650Y313133D01*
X762551Y313112D01*
X762454Y313087D01*
X762357Y313058D01*
X762262Y313025D01*
X762168Y312989D01*
X762076Y312949D01*
X761985Y312906D01*
X761896Y312859D01*
X761809Y312809D01*
X761723Y312755D01*
X761640Y312698D01*
X761560Y312638D01*
X761481Y312575D01*
X761405Y312508D01*
X761332Y312439D01*
X761262Y312367D01*
X761194Y312293D01*
X761129Y312216D01*
X761068Y312136D01*
X761009Y312054D01*
X760954Y311970D01*
X760902Y311884D01*
X760853Y311796D01*
X760808Y311706D01*
X760766Y311614D01*
X760728Y311521D01*
X760694Y311426D01*
X760663Y311331D01*
X760636Y311234D01*
X760613Y311136D01*
X760593Y311037D01*
X760578Y310937D01*
X760566Y310837D01*
X760558Y310737D01*
X760554Y310636D01*
X760554Y310536D01*
X760558Y310435D01*
X760566Y310335D01*
X760578Y310235D01*
X760593Y310135D01*
X760613Y310036D01*
X760636Y309938D01*
X760663Y309841D01*
X760694Y309746D01*
X760728Y309651D01*
X760766Y309558D01*
X760808Y309466D01*
X760853Y309376D01*
X760902Y309288D01*
X760954Y309202D01*
X761009Y309118D01*
X761068Y309036D01*
X761129Y308956D01*
X761194Y308879D01*
X761262Y308805D01*
X761332Y308733D01*
X761405Y308664D01*
X761481Y308597D01*
X761560Y308534D01*
X761640Y308474D01*
X761723Y308417D01*
X761809Y308363D01*
X761896Y308313D01*
X761985Y308266D01*
X762076Y308223D01*
X762168Y308183D01*
X762262Y308147D01*
X762357Y308114D01*
X762454Y308085D01*
X762551Y308060D01*
X762650Y308039D01*
X762749Y308021D01*
X762849Y308008D01*
X762949Y307998D01*
X763049Y307992D01*
X763150Y307990D01*
X763150Y307989D02*
X765747Y307989D01*
D11*
X580870Y153630D02*
X549870Y153630D01*
X549870Y275630D01*
X580870Y275630D01*
X640870Y275630D02*
X671870Y275630D01*
X671870Y153630D01*
X640870Y153630D01*
D14*
X556870Y166630D02*
X556872Y166739D01*
X556878Y166848D01*
X556888Y166956D01*
X556902Y167064D01*
X556919Y167172D01*
X556941Y167279D01*
X556966Y167385D01*
X556996Y167489D01*
X557029Y167593D01*
X557066Y167696D01*
X557106Y167797D01*
X557150Y167896D01*
X557198Y167994D01*
X557250Y168091D01*
X557304Y168185D01*
X557362Y168277D01*
X557424Y168367D01*
X557489Y168454D01*
X557556Y168540D01*
X557627Y168623D01*
X557701Y168703D01*
X557778Y168780D01*
X557857Y168855D01*
X557939Y168926D01*
X558024Y168995D01*
X558111Y169060D01*
X558200Y169123D01*
X558292Y169181D01*
X558386Y169237D01*
X558481Y169289D01*
X558579Y169338D01*
X558678Y169383D01*
X558779Y169425D01*
X558881Y169462D01*
X558984Y169496D01*
X559089Y169527D01*
X559195Y169553D01*
X559301Y169576D01*
X559409Y169594D01*
X559517Y169609D01*
X559625Y169620D01*
X559734Y169627D01*
X559843Y169630D01*
X559952Y169629D01*
X560061Y169624D01*
X560169Y169615D01*
X560277Y169602D01*
X560385Y169585D01*
X560492Y169565D01*
X560598Y169540D01*
X560703Y169512D01*
X560807Y169480D01*
X560910Y169444D01*
X561012Y169404D01*
X561112Y169361D01*
X561210Y169314D01*
X561307Y169264D01*
X561401Y169210D01*
X561494Y169152D01*
X561585Y169092D01*
X561673Y169028D01*
X561759Y168961D01*
X561842Y168891D01*
X561923Y168818D01*
X562001Y168742D01*
X562076Y168663D01*
X562149Y168581D01*
X562218Y168497D01*
X562284Y168411D01*
X562347Y168322D01*
X562407Y168231D01*
X562464Y168138D01*
X562517Y168043D01*
X562566Y167946D01*
X562612Y167847D01*
X562654Y167747D01*
X562693Y167645D01*
X562728Y167541D01*
X562759Y167437D01*
X562787Y167332D01*
X562810Y167225D01*
X562830Y167118D01*
X562846Y167010D01*
X562858Y166902D01*
X562866Y166793D01*
X562870Y166684D01*
X562870Y166576D01*
X562866Y166467D01*
X562858Y166358D01*
X562846Y166250D01*
X562830Y166142D01*
X562810Y166035D01*
X562787Y165928D01*
X562759Y165823D01*
X562728Y165719D01*
X562693Y165615D01*
X562654Y165513D01*
X562612Y165413D01*
X562566Y165314D01*
X562517Y165217D01*
X562464Y165122D01*
X562407Y165029D01*
X562347Y164938D01*
X562284Y164849D01*
X562218Y164763D01*
X562149Y164679D01*
X562076Y164597D01*
X562001Y164518D01*
X561923Y164442D01*
X561842Y164369D01*
X561759Y164299D01*
X561673Y164232D01*
X561585Y164168D01*
X561494Y164108D01*
X561401Y164050D01*
X561307Y163996D01*
X561210Y163946D01*
X561112Y163899D01*
X561012Y163856D01*
X560910Y163816D01*
X560807Y163780D01*
X560703Y163748D01*
X560598Y163720D01*
X560492Y163695D01*
X560385Y163675D01*
X560277Y163658D01*
X560169Y163645D01*
X560061Y163636D01*
X559952Y163631D01*
X559843Y163630D01*
X559734Y163633D01*
X559625Y163640D01*
X559517Y163651D01*
X559409Y163666D01*
X559301Y163684D01*
X559195Y163707D01*
X559089Y163733D01*
X558984Y163764D01*
X558881Y163798D01*
X558779Y163835D01*
X558678Y163877D01*
X558579Y163922D01*
X558481Y163971D01*
X558386Y164023D01*
X558292Y164079D01*
X558200Y164137D01*
X558111Y164200D01*
X558024Y164265D01*
X557939Y164334D01*
X557857Y164405D01*
X557778Y164480D01*
X557701Y164557D01*
X557627Y164637D01*
X557556Y164720D01*
X557489Y164806D01*
X557424Y164893D01*
X557362Y164983D01*
X557304Y165075D01*
X557250Y165169D01*
X557198Y165266D01*
X557150Y165364D01*
X557106Y165463D01*
X557066Y165564D01*
X557029Y165667D01*
X556996Y165771D01*
X556966Y165875D01*
X556941Y165981D01*
X556919Y166088D01*
X556902Y166196D01*
X556888Y166304D01*
X556878Y166412D01*
X556872Y166521D01*
X556870Y166630D01*
D10*
X691257Y160948D02*
X691257Y172632D01*
X691257Y160948D02*
X686064Y160948D01*
X681754Y170036D02*
X678509Y172632D01*
X678509Y160948D01*
X681754Y160948D02*
X675263Y160948D01*
D15*
X659430Y414190D03*
D16*
X659358Y414192D01*
X659286Y414198D01*
X659215Y414208D01*
X659144Y414221D01*
X659074Y414238D01*
X659005Y414260D01*
X658938Y414284D01*
X658872Y414313D01*
X658807Y414345D01*
X658744Y414380D01*
X658684Y414419D01*
X658625Y414461D01*
X658569Y414506D01*
X658515Y414554D01*
X658464Y414605D01*
X658416Y414659D01*
X658371Y414715D01*
X658329Y414774D01*
X658290Y414834D01*
X658255Y414897D01*
X658223Y414962D01*
X658194Y415028D01*
X658170Y415095D01*
X658148Y415164D01*
X658131Y415234D01*
X658118Y415305D01*
X658108Y415376D01*
X658102Y415448D01*
X658100Y415520D01*
X658102Y415592D01*
X658108Y415664D01*
X658118Y415735D01*
X658131Y415806D01*
X658148Y415876D01*
X658170Y415945D01*
X658194Y416012D01*
X658223Y416078D01*
X658255Y416143D01*
X658290Y416206D01*
X658329Y416266D01*
X658371Y416325D01*
X658416Y416381D01*
X658464Y416435D01*
X658515Y416486D01*
X658569Y416534D01*
X658625Y416579D01*
X658684Y416621D01*
X658744Y416660D01*
X658807Y416695D01*
X658872Y416727D01*
X658938Y416756D01*
X659005Y416780D01*
X659074Y416802D01*
X659144Y416819D01*
X659215Y416832D01*
X659286Y416842D01*
X659358Y416848D01*
X659430Y416850D01*
D15*
X659430Y416850D03*
D16*
X659502Y416848D01*
X659574Y416842D01*
X659645Y416832D01*
X659716Y416819D01*
X659786Y416802D01*
X659855Y416780D01*
X659922Y416756D01*
X659988Y416727D01*
X660053Y416695D01*
X660116Y416660D01*
X660176Y416621D01*
X660235Y416579D01*
X660291Y416534D01*
X660345Y416486D01*
X660396Y416435D01*
X660444Y416381D01*
X660489Y416325D01*
X660531Y416266D01*
X660570Y416206D01*
X660605Y416143D01*
X660637Y416078D01*
X660666Y416012D01*
X660690Y415945D01*
X660712Y415876D01*
X660729Y415806D01*
X660742Y415735D01*
X660752Y415664D01*
X660758Y415592D01*
X660760Y415520D01*
X660758Y415448D01*
X660752Y415376D01*
X660742Y415305D01*
X660729Y415234D01*
X660712Y415164D01*
X660690Y415095D01*
X660666Y415028D01*
X660637Y414962D01*
X660605Y414897D01*
X660570Y414834D01*
X660531Y414774D01*
X660489Y414715D01*
X660444Y414659D01*
X660396Y414605D01*
X660345Y414554D01*
X660291Y414506D01*
X660235Y414461D01*
X660176Y414419D01*
X660116Y414380D01*
X660053Y414345D01*
X659988Y414313D01*
X659922Y414284D01*
X659855Y414260D01*
X659786Y414238D01*
X659716Y414221D01*
X659645Y414208D01*
X659574Y414198D01*
X659502Y414192D01*
X659430Y414190D01*
D11*
X713150Y393230D02*
X797400Y393230D01*
X713150Y393230D02*
X713150Y493230D01*
X797400Y493230D01*
D10*
X761706Y456003D02*
X756514Y456003D01*
X761706Y456002D02*
X761819Y456004D01*
X761932Y456010D01*
X762045Y456020D01*
X762158Y456034D01*
X762270Y456051D01*
X762381Y456073D01*
X762491Y456098D01*
X762601Y456128D01*
X762709Y456161D01*
X762816Y456198D01*
X762922Y456238D01*
X763026Y456283D01*
X763129Y456331D01*
X763230Y456382D01*
X763329Y456437D01*
X763426Y456495D01*
X763521Y456557D01*
X763614Y456622D01*
X763704Y456690D01*
X763792Y456761D01*
X763878Y456836D01*
X763961Y456913D01*
X764041Y456993D01*
X764118Y457076D01*
X764193Y457162D01*
X764264Y457250D01*
X764332Y457340D01*
X764397Y457433D01*
X764459Y457528D01*
X764517Y457625D01*
X764572Y457724D01*
X764623Y457825D01*
X764671Y457928D01*
X764716Y458032D01*
X764756Y458138D01*
X764793Y458245D01*
X764826Y458353D01*
X764856Y458463D01*
X764881Y458573D01*
X764903Y458684D01*
X764920Y458796D01*
X764934Y458909D01*
X764944Y459022D01*
X764950Y459135D01*
X764952Y459248D01*
X764950Y459361D01*
X764944Y459474D01*
X764934Y459587D01*
X764920Y459700D01*
X764903Y459812D01*
X764881Y459923D01*
X764856Y460033D01*
X764826Y460143D01*
X764793Y460251D01*
X764756Y460358D01*
X764716Y460464D01*
X764671Y460568D01*
X764623Y460671D01*
X764572Y460772D01*
X764517Y460871D01*
X764459Y460968D01*
X764397Y461063D01*
X764332Y461156D01*
X764264Y461246D01*
X764193Y461334D01*
X764118Y461420D01*
X764041Y461503D01*
X763961Y461583D01*
X763878Y461660D01*
X763792Y461735D01*
X763704Y461806D01*
X763614Y461874D01*
X763521Y461939D01*
X763426Y462001D01*
X763329Y462059D01*
X763230Y462114D01*
X763129Y462165D01*
X763026Y462213D01*
X762922Y462258D01*
X762816Y462298D01*
X762709Y462335D01*
X762601Y462368D01*
X762491Y462398D01*
X762381Y462423D01*
X762270Y462445D01*
X762158Y462462D01*
X762045Y462476D01*
X761932Y462486D01*
X761819Y462492D01*
X761706Y462494D01*
X756514Y462494D01*
X756401Y462492D01*
X756288Y462486D01*
X756175Y462476D01*
X756062Y462462D01*
X755950Y462445D01*
X755839Y462423D01*
X755729Y462398D01*
X755619Y462368D01*
X755511Y462335D01*
X755404Y462298D01*
X755298Y462258D01*
X755194Y462213D01*
X755091Y462165D01*
X754990Y462114D01*
X754891Y462059D01*
X754794Y462001D01*
X754699Y461939D01*
X754606Y461874D01*
X754516Y461806D01*
X754428Y461735D01*
X754342Y461660D01*
X754259Y461583D01*
X754179Y461503D01*
X754102Y461420D01*
X754027Y461334D01*
X753956Y461246D01*
X753888Y461156D01*
X753823Y461063D01*
X753761Y460968D01*
X753703Y460871D01*
X753648Y460772D01*
X753597Y460671D01*
X753549Y460568D01*
X753504Y460464D01*
X753464Y460358D01*
X753427Y460251D01*
X753394Y460143D01*
X753364Y460033D01*
X753339Y459923D01*
X753317Y459812D01*
X753300Y459700D01*
X753286Y459587D01*
X753276Y459474D01*
X753270Y459361D01*
X753268Y459248D01*
X753270Y459135D01*
X753276Y459022D01*
X753286Y458909D01*
X753300Y458796D01*
X753317Y458684D01*
X753339Y458573D01*
X753364Y458463D01*
X753394Y458353D01*
X753427Y458245D01*
X753464Y458138D01*
X753504Y458032D01*
X753549Y457928D01*
X753597Y457825D01*
X753648Y457724D01*
X753703Y457625D01*
X753761Y457528D01*
X753823Y457433D01*
X753888Y457340D01*
X753956Y457250D01*
X754027Y457162D01*
X754102Y457076D01*
X754179Y456993D01*
X754259Y456913D01*
X754342Y456836D01*
X754428Y456761D01*
X754516Y456690D01*
X754606Y456622D01*
X754699Y456557D01*
X754794Y456495D01*
X754891Y456437D01*
X754990Y456382D01*
X755091Y456331D01*
X755194Y456283D01*
X755298Y456238D01*
X755404Y456198D01*
X755511Y456161D01*
X755619Y456128D01*
X755729Y456098D01*
X755839Y456073D01*
X755950Y456051D01*
X756062Y456034D01*
X756175Y456020D01*
X756288Y456010D01*
X756401Y456004D01*
X756514Y456002D01*
X755864Y461195D02*
X753268Y463792D01*
X762356Y467146D02*
X764952Y470392D01*
X753268Y470392D01*
X753268Y467146D02*
X753268Y473638D01*
X619252Y88325D02*
X607568Y88325D01*
X619252Y88325D02*
X619252Y91570D01*
X619250Y91683D01*
X619244Y91796D01*
X619234Y91909D01*
X619220Y92022D01*
X619203Y92134D01*
X619181Y92245D01*
X619156Y92355D01*
X619126Y92465D01*
X619093Y92573D01*
X619056Y92680D01*
X619016Y92786D01*
X618971Y92890D01*
X618923Y92993D01*
X618872Y93094D01*
X618817Y93193D01*
X618759Y93290D01*
X618697Y93385D01*
X618632Y93478D01*
X618564Y93568D01*
X618493Y93656D01*
X618418Y93742D01*
X618341Y93825D01*
X618261Y93905D01*
X618178Y93982D01*
X618092Y94057D01*
X618004Y94128D01*
X617914Y94196D01*
X617821Y94261D01*
X617726Y94323D01*
X617629Y94381D01*
X617530Y94436D01*
X617429Y94487D01*
X617326Y94535D01*
X617222Y94580D01*
X617116Y94620D01*
X617009Y94657D01*
X616901Y94690D01*
X616791Y94720D01*
X616681Y94745D01*
X616570Y94767D01*
X616458Y94784D01*
X616345Y94798D01*
X616232Y94808D01*
X616119Y94814D01*
X616006Y94816D01*
X615893Y94814D01*
X615780Y94808D01*
X615667Y94798D01*
X615554Y94784D01*
X615442Y94767D01*
X615331Y94745D01*
X615221Y94720D01*
X615111Y94690D01*
X615003Y94657D01*
X614896Y94620D01*
X614790Y94580D01*
X614686Y94535D01*
X614583Y94487D01*
X614482Y94436D01*
X614383Y94381D01*
X614286Y94323D01*
X614191Y94261D01*
X614098Y94196D01*
X614008Y94128D01*
X613920Y94057D01*
X613834Y93982D01*
X613751Y93905D01*
X613671Y93825D01*
X613594Y93742D01*
X613519Y93656D01*
X613448Y93568D01*
X613380Y93478D01*
X613315Y93385D01*
X613253Y93290D01*
X613195Y93193D01*
X613140Y93094D01*
X613089Y92993D01*
X613041Y92890D01*
X612996Y92786D01*
X612956Y92680D01*
X612919Y92573D01*
X612886Y92465D01*
X612856Y92355D01*
X612831Y92245D01*
X612809Y92134D01*
X612792Y92022D01*
X612778Y91909D01*
X612768Y91796D01*
X612762Y91683D01*
X612760Y91570D01*
X612761Y91570D02*
X612761Y88325D01*
X612761Y92219D02*
X607568Y94816D01*
X616656Y99681D02*
X619252Y102926D01*
X607568Y102926D01*
X607568Y99681D02*
X607568Y106172D01*
X627888Y88325D02*
X639572Y88325D01*
X639572Y91570D01*
X639570Y91683D01*
X639564Y91796D01*
X639554Y91909D01*
X639540Y92022D01*
X639523Y92134D01*
X639501Y92245D01*
X639476Y92355D01*
X639446Y92465D01*
X639413Y92573D01*
X639376Y92680D01*
X639336Y92786D01*
X639291Y92890D01*
X639243Y92993D01*
X639192Y93094D01*
X639137Y93193D01*
X639079Y93290D01*
X639017Y93385D01*
X638952Y93478D01*
X638884Y93568D01*
X638813Y93656D01*
X638738Y93742D01*
X638661Y93825D01*
X638581Y93905D01*
X638498Y93982D01*
X638412Y94057D01*
X638324Y94128D01*
X638234Y94196D01*
X638141Y94261D01*
X638046Y94323D01*
X637949Y94381D01*
X637850Y94436D01*
X637749Y94487D01*
X637646Y94535D01*
X637542Y94580D01*
X637436Y94620D01*
X637329Y94657D01*
X637221Y94690D01*
X637111Y94720D01*
X637001Y94745D01*
X636890Y94767D01*
X636778Y94784D01*
X636665Y94798D01*
X636552Y94808D01*
X636439Y94814D01*
X636326Y94816D01*
X636213Y94814D01*
X636100Y94808D01*
X635987Y94798D01*
X635874Y94784D01*
X635762Y94767D01*
X635651Y94745D01*
X635541Y94720D01*
X635431Y94690D01*
X635323Y94657D01*
X635216Y94620D01*
X635110Y94580D01*
X635006Y94535D01*
X634903Y94487D01*
X634802Y94436D01*
X634703Y94381D01*
X634606Y94323D01*
X634511Y94261D01*
X634418Y94196D01*
X634328Y94128D01*
X634240Y94057D01*
X634154Y93982D01*
X634071Y93905D01*
X633991Y93825D01*
X633914Y93742D01*
X633839Y93656D01*
X633768Y93568D01*
X633700Y93478D01*
X633635Y93385D01*
X633573Y93290D01*
X633515Y93193D01*
X633460Y93094D01*
X633409Y92993D01*
X633361Y92890D01*
X633316Y92786D01*
X633276Y92680D01*
X633239Y92573D01*
X633206Y92465D01*
X633176Y92355D01*
X633151Y92245D01*
X633129Y92134D01*
X633112Y92022D01*
X633098Y91909D01*
X633088Y91796D01*
X633082Y91683D01*
X633080Y91570D01*
X633081Y91570D02*
X633081Y88325D01*
X633081Y92219D02*
X627888Y94816D01*
X636651Y106172D02*
X636758Y106170D01*
X636864Y106164D01*
X636970Y106154D01*
X637076Y106141D01*
X637182Y106123D01*
X637286Y106102D01*
X637390Y106077D01*
X637493Y106048D01*
X637594Y106016D01*
X637694Y105979D01*
X637793Y105939D01*
X637891Y105896D01*
X637987Y105849D01*
X638081Y105798D01*
X638173Y105744D01*
X638263Y105687D01*
X638351Y105627D01*
X638436Y105563D01*
X638519Y105496D01*
X638600Y105426D01*
X638678Y105354D01*
X638754Y105278D01*
X638826Y105200D01*
X638896Y105119D01*
X638963Y105036D01*
X639027Y104951D01*
X639087Y104863D01*
X639144Y104773D01*
X639198Y104681D01*
X639249Y104587D01*
X639296Y104491D01*
X639339Y104393D01*
X639379Y104294D01*
X639416Y104194D01*
X639448Y104093D01*
X639477Y103990D01*
X639502Y103886D01*
X639523Y103782D01*
X639541Y103676D01*
X639554Y103570D01*
X639564Y103464D01*
X639570Y103358D01*
X639572Y103251D01*
X639570Y103130D01*
X639564Y103009D01*
X639554Y102889D01*
X639541Y102768D01*
X639523Y102649D01*
X639502Y102529D01*
X639477Y102411D01*
X639448Y102294D01*
X639415Y102177D01*
X639379Y102062D01*
X639338Y101948D01*
X639295Y101835D01*
X639247Y101723D01*
X639196Y101614D01*
X639141Y101506D01*
X639083Y101399D01*
X639022Y101295D01*
X638957Y101193D01*
X638889Y101093D01*
X638818Y100995D01*
X638744Y100899D01*
X638667Y100806D01*
X638586Y100716D01*
X638503Y100628D01*
X638417Y100543D01*
X638328Y100460D01*
X638237Y100381D01*
X638143Y100304D01*
X638047Y100231D01*
X637949Y100161D01*
X637848Y100094D01*
X637745Y100030D01*
X637640Y99970D01*
X637533Y99913D01*
X637425Y99859D01*
X637315Y99809D01*
X637203Y99763D01*
X637090Y99720D01*
X636975Y99681D01*
X634379Y105199D02*
X634456Y105278D01*
X634537Y105354D01*
X634620Y105427D01*
X634705Y105497D01*
X634793Y105564D01*
X634883Y105628D01*
X634975Y105688D01*
X635070Y105745D01*
X635166Y105799D01*
X635264Y105850D01*
X635364Y105897D01*
X635466Y105941D01*
X635569Y105981D01*
X635673Y106017D01*
X635779Y106049D01*
X635885Y106078D01*
X635993Y106103D01*
X636101Y106125D01*
X636211Y106142D01*
X636320Y106156D01*
X636430Y106165D01*
X636541Y106171D01*
X636651Y106173D01*
X634379Y105198D02*
X627888Y99681D01*
X627888Y106172D01*
X369062Y377698D02*
X357378Y377698D01*
X369062Y377698D02*
X369062Y380944D01*
X369060Y381057D01*
X369054Y381170D01*
X369044Y381283D01*
X369030Y381396D01*
X369013Y381508D01*
X368991Y381619D01*
X368966Y381729D01*
X368936Y381839D01*
X368903Y381947D01*
X368866Y382054D01*
X368826Y382160D01*
X368781Y382264D01*
X368733Y382367D01*
X368682Y382468D01*
X368627Y382567D01*
X368569Y382664D01*
X368507Y382759D01*
X368442Y382852D01*
X368374Y382942D01*
X368303Y383030D01*
X368228Y383116D01*
X368151Y383199D01*
X368071Y383279D01*
X367988Y383356D01*
X367902Y383431D01*
X367814Y383502D01*
X367724Y383570D01*
X367631Y383635D01*
X367536Y383697D01*
X367439Y383755D01*
X367340Y383810D01*
X367239Y383861D01*
X367136Y383909D01*
X367032Y383954D01*
X366926Y383994D01*
X366819Y384031D01*
X366711Y384064D01*
X366601Y384094D01*
X366491Y384119D01*
X366380Y384141D01*
X366268Y384158D01*
X366155Y384172D01*
X366042Y384182D01*
X365929Y384188D01*
X365816Y384190D01*
X365703Y384188D01*
X365590Y384182D01*
X365477Y384172D01*
X365364Y384158D01*
X365252Y384141D01*
X365141Y384119D01*
X365031Y384094D01*
X364921Y384064D01*
X364813Y384031D01*
X364706Y383994D01*
X364600Y383954D01*
X364496Y383909D01*
X364393Y383861D01*
X364292Y383810D01*
X364193Y383755D01*
X364096Y383697D01*
X364001Y383635D01*
X363908Y383570D01*
X363818Y383502D01*
X363730Y383431D01*
X363644Y383356D01*
X363561Y383279D01*
X363481Y383199D01*
X363404Y383116D01*
X363329Y383030D01*
X363258Y382942D01*
X363190Y382852D01*
X363125Y382759D01*
X363063Y382664D01*
X363005Y382567D01*
X362950Y382468D01*
X362899Y382367D01*
X362851Y382264D01*
X362806Y382160D01*
X362766Y382054D01*
X362729Y381947D01*
X362696Y381839D01*
X362666Y381729D01*
X362641Y381619D01*
X362619Y381508D01*
X362602Y381396D01*
X362588Y381283D01*
X362578Y381170D01*
X362572Y381057D01*
X362570Y380944D01*
X362571Y380944D02*
X362571Y377698D01*
X362571Y381593D02*
X357378Y384189D01*
X357378Y389054D02*
X357378Y392300D01*
X357380Y392413D01*
X357386Y392526D01*
X357396Y392639D01*
X357410Y392752D01*
X357427Y392864D01*
X357449Y392975D01*
X357474Y393085D01*
X357504Y393195D01*
X357537Y393303D01*
X357574Y393410D01*
X357614Y393516D01*
X357659Y393620D01*
X357707Y393723D01*
X357758Y393824D01*
X357813Y393923D01*
X357871Y394020D01*
X357933Y394115D01*
X357998Y394208D01*
X358066Y394298D01*
X358137Y394386D01*
X358212Y394472D01*
X358289Y394555D01*
X358369Y394635D01*
X358452Y394712D01*
X358538Y394787D01*
X358626Y394858D01*
X358716Y394926D01*
X358809Y394991D01*
X358904Y395053D01*
X359001Y395111D01*
X359100Y395166D01*
X359201Y395217D01*
X359304Y395265D01*
X359408Y395310D01*
X359514Y395350D01*
X359621Y395387D01*
X359729Y395420D01*
X359839Y395450D01*
X359949Y395475D01*
X360060Y395497D01*
X360172Y395514D01*
X360285Y395528D01*
X360398Y395538D01*
X360511Y395544D01*
X360624Y395546D01*
X360737Y395544D01*
X360850Y395538D01*
X360963Y395528D01*
X361076Y395514D01*
X361188Y395497D01*
X361299Y395475D01*
X361409Y395450D01*
X361519Y395420D01*
X361627Y395387D01*
X361734Y395350D01*
X361840Y395310D01*
X361944Y395265D01*
X362047Y395217D01*
X362148Y395166D01*
X362247Y395111D01*
X362344Y395053D01*
X362439Y394991D01*
X362532Y394926D01*
X362622Y394858D01*
X362710Y394787D01*
X362796Y394712D01*
X362879Y394635D01*
X362959Y394555D01*
X363036Y394472D01*
X363111Y394386D01*
X363182Y394298D01*
X363250Y394208D01*
X363315Y394115D01*
X363377Y394020D01*
X363435Y393923D01*
X363490Y393824D01*
X363541Y393723D01*
X363589Y393620D01*
X363634Y393516D01*
X363674Y393410D01*
X363711Y393303D01*
X363744Y393195D01*
X363774Y393085D01*
X363799Y392975D01*
X363821Y392864D01*
X363838Y392752D01*
X363852Y392639D01*
X363862Y392526D01*
X363868Y392413D01*
X363870Y392300D01*
X369062Y392949D02*
X369062Y389054D01*
X369062Y392949D02*
X369060Y393050D01*
X369054Y393150D01*
X369044Y393250D01*
X369031Y393350D01*
X369013Y393449D01*
X368992Y393548D01*
X368967Y393645D01*
X368938Y393742D01*
X368905Y393837D01*
X368869Y393931D01*
X368829Y394023D01*
X368786Y394114D01*
X368739Y394203D01*
X368689Y394290D01*
X368635Y394376D01*
X368578Y394459D01*
X368518Y394539D01*
X368455Y394618D01*
X368388Y394694D01*
X368319Y394767D01*
X368247Y394837D01*
X368173Y394905D01*
X368096Y394970D01*
X368016Y395031D01*
X367934Y395090D01*
X367850Y395145D01*
X367764Y395197D01*
X367676Y395246D01*
X367586Y395291D01*
X367494Y395333D01*
X367401Y395371D01*
X367306Y395405D01*
X367211Y395436D01*
X367114Y395463D01*
X367016Y395486D01*
X366917Y395506D01*
X366817Y395521D01*
X366717Y395533D01*
X366617Y395541D01*
X366516Y395545D01*
X366416Y395545D01*
X366315Y395541D01*
X366215Y395533D01*
X366115Y395521D01*
X366015Y395506D01*
X365916Y395486D01*
X365818Y395463D01*
X365721Y395436D01*
X365626Y395405D01*
X365531Y395371D01*
X365438Y395333D01*
X365346Y395291D01*
X365256Y395246D01*
X365168Y395197D01*
X365082Y395145D01*
X364998Y395090D01*
X364916Y395031D01*
X364836Y394970D01*
X364759Y394905D01*
X364685Y394837D01*
X364613Y394767D01*
X364544Y394694D01*
X364477Y394618D01*
X364414Y394539D01*
X364354Y394459D01*
X364297Y394376D01*
X364243Y394290D01*
X364193Y394203D01*
X364146Y394114D01*
X364103Y394023D01*
X364063Y393931D01*
X364027Y393837D01*
X363994Y393742D01*
X363965Y393645D01*
X363940Y393548D01*
X363919Y393449D01*
X363901Y393350D01*
X363888Y393250D01*
X363878Y393150D01*
X363872Y393050D01*
X363870Y392949D01*
X363869Y392949D02*
X363869Y390353D01*
X365252Y371535D02*
X353568Y371535D01*
X365252Y371535D02*
X365252Y374780D01*
X365250Y374893D01*
X365244Y375006D01*
X365234Y375119D01*
X365220Y375232D01*
X365203Y375344D01*
X365181Y375455D01*
X365156Y375565D01*
X365126Y375675D01*
X365093Y375783D01*
X365056Y375890D01*
X365016Y375996D01*
X364971Y376100D01*
X364923Y376203D01*
X364872Y376304D01*
X364817Y376403D01*
X364759Y376500D01*
X364697Y376595D01*
X364632Y376688D01*
X364564Y376778D01*
X364493Y376866D01*
X364418Y376952D01*
X364341Y377035D01*
X364261Y377115D01*
X364178Y377192D01*
X364092Y377267D01*
X364004Y377338D01*
X363914Y377406D01*
X363821Y377471D01*
X363726Y377533D01*
X363629Y377591D01*
X363530Y377646D01*
X363429Y377697D01*
X363326Y377745D01*
X363222Y377790D01*
X363116Y377830D01*
X363009Y377867D01*
X362901Y377900D01*
X362791Y377930D01*
X362681Y377955D01*
X362570Y377977D01*
X362458Y377994D01*
X362345Y378008D01*
X362232Y378018D01*
X362119Y378024D01*
X362006Y378026D01*
X361893Y378024D01*
X361780Y378018D01*
X361667Y378008D01*
X361554Y377994D01*
X361442Y377977D01*
X361331Y377955D01*
X361221Y377930D01*
X361111Y377900D01*
X361003Y377867D01*
X360896Y377830D01*
X360790Y377790D01*
X360686Y377745D01*
X360583Y377697D01*
X360482Y377646D01*
X360383Y377591D01*
X360286Y377533D01*
X360191Y377471D01*
X360098Y377406D01*
X360008Y377338D01*
X359920Y377267D01*
X359834Y377192D01*
X359751Y377115D01*
X359671Y377035D01*
X359594Y376952D01*
X359519Y376866D01*
X359448Y376778D01*
X359380Y376688D01*
X359315Y376595D01*
X359253Y376500D01*
X359195Y376403D01*
X359140Y376304D01*
X359089Y376203D01*
X359041Y376100D01*
X358996Y375996D01*
X358956Y375890D01*
X358919Y375783D01*
X358886Y375675D01*
X358856Y375565D01*
X358831Y375455D01*
X358809Y375344D01*
X358792Y375232D01*
X358778Y375119D01*
X358768Y375006D01*
X358762Y374893D01*
X358760Y374780D01*
X358761Y374780D02*
X358761Y371535D01*
X358761Y375429D02*
X353568Y378026D01*
X356164Y382891D02*
X365252Y385487D01*
X356164Y382891D02*
X356164Y389382D01*
X358761Y387435D02*
X353568Y387435D01*
X914908Y201721D02*
X926592Y201721D01*
X926592Y204967D01*
X926590Y205080D01*
X926584Y205193D01*
X926574Y205306D01*
X926560Y205419D01*
X926543Y205531D01*
X926521Y205642D01*
X926496Y205752D01*
X926466Y205862D01*
X926433Y205970D01*
X926396Y206077D01*
X926356Y206183D01*
X926311Y206287D01*
X926263Y206390D01*
X926212Y206491D01*
X926157Y206590D01*
X926099Y206687D01*
X926037Y206782D01*
X925972Y206875D01*
X925904Y206965D01*
X925833Y207053D01*
X925758Y207139D01*
X925681Y207222D01*
X925601Y207302D01*
X925518Y207379D01*
X925432Y207454D01*
X925344Y207525D01*
X925254Y207593D01*
X925161Y207658D01*
X925066Y207720D01*
X924969Y207778D01*
X924870Y207833D01*
X924769Y207884D01*
X924666Y207932D01*
X924562Y207977D01*
X924456Y208017D01*
X924349Y208054D01*
X924241Y208087D01*
X924131Y208117D01*
X924021Y208142D01*
X923910Y208164D01*
X923798Y208181D01*
X923685Y208195D01*
X923572Y208205D01*
X923459Y208211D01*
X923346Y208213D01*
X923233Y208211D01*
X923120Y208205D01*
X923007Y208195D01*
X922894Y208181D01*
X922782Y208164D01*
X922671Y208142D01*
X922561Y208117D01*
X922451Y208087D01*
X922343Y208054D01*
X922236Y208017D01*
X922130Y207977D01*
X922026Y207932D01*
X921923Y207884D01*
X921822Y207833D01*
X921723Y207778D01*
X921626Y207720D01*
X921531Y207658D01*
X921438Y207593D01*
X921348Y207525D01*
X921260Y207454D01*
X921174Y207379D01*
X921091Y207302D01*
X921011Y207222D01*
X920934Y207139D01*
X920859Y207053D01*
X920788Y206965D01*
X920720Y206875D01*
X920655Y206782D01*
X920593Y206687D01*
X920535Y206590D01*
X920480Y206491D01*
X920429Y206390D01*
X920381Y206287D01*
X920336Y206183D01*
X920296Y206077D01*
X920259Y205970D01*
X920226Y205862D01*
X920196Y205752D01*
X920171Y205642D01*
X920149Y205531D01*
X920132Y205419D01*
X920118Y205306D01*
X920108Y205193D01*
X920102Y205080D01*
X920100Y204967D01*
X920101Y204967D02*
X920101Y201721D01*
X920101Y205616D02*
X914908Y208213D01*
X913610Y212584D02*
X913610Y217777D01*
X914908Y221573D02*
X926592Y225467D01*
X914908Y229362D01*
X917829Y228388D02*
X917829Y222546D01*
X975868Y200550D02*
X987552Y200550D01*
X987552Y203796D01*
X987550Y203909D01*
X987544Y204022D01*
X987534Y204135D01*
X987520Y204248D01*
X987503Y204360D01*
X987481Y204471D01*
X987456Y204581D01*
X987426Y204691D01*
X987393Y204799D01*
X987356Y204906D01*
X987316Y205012D01*
X987271Y205116D01*
X987223Y205219D01*
X987172Y205320D01*
X987117Y205419D01*
X987059Y205516D01*
X986997Y205611D01*
X986932Y205704D01*
X986864Y205794D01*
X986793Y205882D01*
X986718Y205968D01*
X986641Y206051D01*
X986561Y206131D01*
X986478Y206208D01*
X986392Y206283D01*
X986304Y206354D01*
X986214Y206422D01*
X986121Y206487D01*
X986026Y206549D01*
X985929Y206607D01*
X985830Y206662D01*
X985729Y206713D01*
X985626Y206761D01*
X985522Y206806D01*
X985416Y206846D01*
X985309Y206883D01*
X985201Y206916D01*
X985091Y206946D01*
X984981Y206971D01*
X984870Y206993D01*
X984758Y207010D01*
X984645Y207024D01*
X984532Y207034D01*
X984419Y207040D01*
X984306Y207042D01*
X984193Y207040D01*
X984080Y207034D01*
X983967Y207024D01*
X983854Y207010D01*
X983742Y206993D01*
X983631Y206971D01*
X983521Y206946D01*
X983411Y206916D01*
X983303Y206883D01*
X983196Y206846D01*
X983090Y206806D01*
X982986Y206761D01*
X982883Y206713D01*
X982782Y206662D01*
X982683Y206607D01*
X982586Y206549D01*
X982491Y206487D01*
X982398Y206422D01*
X982308Y206354D01*
X982220Y206283D01*
X982134Y206208D01*
X982051Y206131D01*
X981971Y206051D01*
X981894Y205968D01*
X981819Y205882D01*
X981748Y205794D01*
X981680Y205704D01*
X981615Y205611D01*
X981553Y205516D01*
X981495Y205419D01*
X981440Y205320D01*
X981389Y205219D01*
X981341Y205116D01*
X981296Y205012D01*
X981256Y204906D01*
X981219Y204799D01*
X981186Y204691D01*
X981156Y204581D01*
X981131Y204471D01*
X981109Y204360D01*
X981092Y204248D01*
X981078Y204135D01*
X981068Y204022D01*
X981062Y203909D01*
X981060Y203796D01*
X981061Y203796D02*
X981061Y200550D01*
X981061Y204445D02*
X975868Y207041D01*
X974570Y211413D02*
X974570Y216606D01*
X982359Y221601D02*
X982359Y224846D01*
X982360Y224846D02*
X982358Y224959D01*
X982352Y225072D01*
X982342Y225185D01*
X982328Y225298D01*
X982311Y225410D01*
X982289Y225521D01*
X982264Y225631D01*
X982234Y225741D01*
X982201Y225849D01*
X982164Y225956D01*
X982124Y226062D01*
X982079Y226166D01*
X982031Y226269D01*
X981980Y226370D01*
X981925Y226469D01*
X981867Y226566D01*
X981805Y226661D01*
X981740Y226754D01*
X981672Y226844D01*
X981601Y226932D01*
X981526Y227018D01*
X981449Y227101D01*
X981369Y227181D01*
X981286Y227258D01*
X981200Y227333D01*
X981112Y227404D01*
X981022Y227472D01*
X980929Y227537D01*
X980834Y227599D01*
X980737Y227657D01*
X980638Y227712D01*
X980537Y227763D01*
X980434Y227811D01*
X980330Y227856D01*
X980224Y227896D01*
X980117Y227933D01*
X980009Y227966D01*
X979899Y227996D01*
X979789Y228021D01*
X979678Y228043D01*
X979566Y228060D01*
X979453Y228074D01*
X979340Y228084D01*
X979227Y228090D01*
X979114Y228092D01*
X979001Y228090D01*
X978888Y228084D01*
X978775Y228074D01*
X978662Y228060D01*
X978550Y228043D01*
X978439Y228021D01*
X978329Y227996D01*
X978219Y227966D01*
X978111Y227933D01*
X978004Y227896D01*
X977898Y227856D01*
X977794Y227811D01*
X977691Y227763D01*
X977590Y227712D01*
X977491Y227657D01*
X977394Y227599D01*
X977299Y227537D01*
X977206Y227472D01*
X977116Y227404D01*
X977028Y227333D01*
X976942Y227258D01*
X976859Y227181D01*
X976779Y227101D01*
X976702Y227018D01*
X976627Y226932D01*
X976556Y226844D01*
X976488Y226754D01*
X976423Y226661D01*
X976361Y226566D01*
X976303Y226469D01*
X976248Y226370D01*
X976197Y226269D01*
X976149Y226166D01*
X976104Y226062D01*
X976064Y225956D01*
X976027Y225849D01*
X975994Y225741D01*
X975964Y225631D01*
X975939Y225521D01*
X975917Y225410D01*
X975900Y225298D01*
X975886Y225185D01*
X975876Y225072D01*
X975870Y224959D01*
X975868Y224846D01*
X975868Y221601D01*
X987552Y221601D01*
X987552Y224846D01*
X987550Y224947D01*
X987544Y225047D01*
X987534Y225147D01*
X987521Y225247D01*
X987503Y225346D01*
X987482Y225445D01*
X987457Y225542D01*
X987428Y225639D01*
X987395Y225734D01*
X987359Y225828D01*
X987319Y225920D01*
X987276Y226011D01*
X987229Y226100D01*
X987179Y226187D01*
X987125Y226273D01*
X987068Y226356D01*
X987008Y226436D01*
X986945Y226515D01*
X986878Y226591D01*
X986809Y226664D01*
X986737Y226734D01*
X986663Y226802D01*
X986586Y226867D01*
X986506Y226928D01*
X986424Y226987D01*
X986340Y227042D01*
X986254Y227094D01*
X986166Y227143D01*
X986076Y227188D01*
X985984Y227230D01*
X985891Y227268D01*
X985796Y227302D01*
X985701Y227333D01*
X985604Y227360D01*
X985506Y227383D01*
X985407Y227403D01*
X985307Y227418D01*
X985207Y227430D01*
X985107Y227438D01*
X985006Y227442D01*
X984906Y227442D01*
X984805Y227438D01*
X984705Y227430D01*
X984605Y227418D01*
X984505Y227403D01*
X984406Y227383D01*
X984308Y227360D01*
X984211Y227333D01*
X984116Y227302D01*
X984021Y227268D01*
X983928Y227230D01*
X983836Y227188D01*
X983746Y227143D01*
X983658Y227094D01*
X983572Y227042D01*
X983488Y226987D01*
X983406Y226928D01*
X983326Y226867D01*
X983249Y226802D01*
X983175Y226734D01*
X983103Y226664D01*
X983034Y226591D01*
X982967Y226515D01*
X982904Y226436D01*
X982844Y226356D01*
X982787Y226273D01*
X982733Y226187D01*
X982683Y226100D01*
X982636Y226011D01*
X982593Y225920D01*
X982553Y225828D01*
X982517Y225734D01*
X982484Y225639D01*
X982455Y225542D01*
X982430Y225445D01*
X982409Y225346D01*
X982391Y225247D01*
X982378Y225147D01*
X982368Y225047D01*
X982362Y224947D01*
X982360Y224846D01*
X705612Y359918D02*
X705612Y371602D01*
X702366Y371602D01*
X702253Y371600D01*
X702140Y371594D01*
X702027Y371584D01*
X701914Y371570D01*
X701802Y371553D01*
X701691Y371531D01*
X701581Y371506D01*
X701471Y371476D01*
X701363Y371443D01*
X701256Y371406D01*
X701150Y371366D01*
X701046Y371321D01*
X700943Y371273D01*
X700842Y371222D01*
X700743Y371167D01*
X700646Y371109D01*
X700551Y371047D01*
X700458Y370982D01*
X700368Y370914D01*
X700280Y370843D01*
X700194Y370768D01*
X700111Y370691D01*
X700031Y370611D01*
X699954Y370528D01*
X699879Y370442D01*
X699808Y370354D01*
X699740Y370264D01*
X699675Y370171D01*
X699613Y370076D01*
X699555Y369979D01*
X699500Y369880D01*
X699449Y369779D01*
X699401Y369676D01*
X699356Y369572D01*
X699316Y369466D01*
X699279Y369359D01*
X699246Y369251D01*
X699216Y369141D01*
X699191Y369031D01*
X699169Y368920D01*
X699152Y368808D01*
X699138Y368695D01*
X699128Y368582D01*
X699122Y368469D01*
X699120Y368356D01*
X699122Y368243D01*
X699128Y368130D01*
X699138Y368017D01*
X699152Y367904D01*
X699169Y367792D01*
X699191Y367681D01*
X699216Y367571D01*
X699246Y367461D01*
X699279Y367353D01*
X699316Y367246D01*
X699356Y367140D01*
X699401Y367036D01*
X699449Y366933D01*
X699500Y366832D01*
X699555Y366733D01*
X699613Y366636D01*
X699675Y366541D01*
X699740Y366448D01*
X699808Y366358D01*
X699879Y366270D01*
X699954Y366184D01*
X700031Y366101D01*
X700111Y366021D01*
X700194Y365944D01*
X700280Y365869D01*
X700368Y365798D01*
X700458Y365730D01*
X700551Y365665D01*
X700646Y365603D01*
X700743Y365545D01*
X700842Y365490D01*
X700943Y365439D01*
X701046Y365391D01*
X701150Y365346D01*
X701256Y365306D01*
X701363Y365269D01*
X701471Y365236D01*
X701581Y365206D01*
X701691Y365181D01*
X701802Y365159D01*
X701914Y365142D01*
X702027Y365128D01*
X702140Y365118D01*
X702253Y365112D01*
X702366Y365110D01*
X702366Y365111D02*
X705612Y365111D01*
X701717Y365111D02*
X699121Y359918D01*
X694750Y358620D02*
X689557Y358620D01*
X680187Y366409D02*
X678240Y366409D01*
X678240Y359918D01*
X682134Y359918D01*
X682233Y359920D01*
X682333Y359926D01*
X682432Y359935D01*
X682530Y359948D01*
X682628Y359965D01*
X682726Y359986D01*
X682822Y360011D01*
X682917Y360039D01*
X683011Y360071D01*
X683104Y360106D01*
X683196Y360145D01*
X683286Y360188D01*
X683374Y360233D01*
X683461Y360283D01*
X683545Y360335D01*
X683628Y360391D01*
X683708Y360449D01*
X683786Y360511D01*
X683861Y360576D01*
X683934Y360644D01*
X684004Y360714D01*
X684072Y360787D01*
X684137Y360862D01*
X684199Y360940D01*
X684257Y361020D01*
X684313Y361103D01*
X684365Y361187D01*
X684415Y361274D01*
X684460Y361362D01*
X684503Y361452D01*
X684542Y361544D01*
X684577Y361637D01*
X684609Y361731D01*
X684637Y361826D01*
X684662Y361922D01*
X684683Y362020D01*
X684700Y362118D01*
X684713Y362216D01*
X684722Y362315D01*
X684728Y362415D01*
X684730Y362514D01*
X684731Y362514D02*
X684731Y369006D01*
X684730Y369006D02*
X684728Y369105D01*
X684722Y369205D01*
X684713Y369304D01*
X684700Y369402D01*
X684683Y369500D01*
X684662Y369598D01*
X684637Y369694D01*
X684609Y369789D01*
X684577Y369883D01*
X684542Y369976D01*
X684503Y370068D01*
X684460Y370158D01*
X684415Y370246D01*
X684365Y370333D01*
X684313Y370417D01*
X684257Y370500D01*
X684199Y370580D01*
X684137Y370658D01*
X684072Y370733D01*
X684004Y370806D01*
X683934Y370876D01*
X683861Y370944D01*
X683786Y371009D01*
X683708Y371071D01*
X683628Y371129D01*
X683545Y371185D01*
X683461Y371237D01*
X683374Y371287D01*
X683286Y371332D01*
X683196Y371375D01*
X683104Y371414D01*
X683011Y371449D01*
X682917Y371481D01*
X682822Y371509D01*
X682726Y371534D01*
X682628Y371555D01*
X682530Y371572D01*
X682432Y371585D01*
X682333Y371594D01*
X682233Y371600D01*
X682134Y371602D01*
X678240Y371602D01*
X960628Y234188D02*
X972312Y234188D01*
X972312Y237434D01*
X972310Y237547D01*
X972304Y237660D01*
X972294Y237773D01*
X972280Y237886D01*
X972263Y237998D01*
X972241Y238109D01*
X972216Y238219D01*
X972186Y238329D01*
X972153Y238437D01*
X972116Y238544D01*
X972076Y238650D01*
X972031Y238754D01*
X971983Y238857D01*
X971932Y238958D01*
X971877Y239057D01*
X971819Y239154D01*
X971757Y239249D01*
X971692Y239342D01*
X971624Y239432D01*
X971553Y239520D01*
X971478Y239606D01*
X971401Y239689D01*
X971321Y239769D01*
X971238Y239846D01*
X971152Y239921D01*
X971064Y239992D01*
X970974Y240060D01*
X970881Y240125D01*
X970786Y240187D01*
X970689Y240245D01*
X970590Y240300D01*
X970489Y240351D01*
X970386Y240399D01*
X970282Y240444D01*
X970176Y240484D01*
X970069Y240521D01*
X969961Y240554D01*
X969851Y240584D01*
X969741Y240609D01*
X969630Y240631D01*
X969518Y240648D01*
X969405Y240662D01*
X969292Y240672D01*
X969179Y240678D01*
X969066Y240680D01*
X968953Y240678D01*
X968840Y240672D01*
X968727Y240662D01*
X968614Y240648D01*
X968502Y240631D01*
X968391Y240609D01*
X968281Y240584D01*
X968171Y240554D01*
X968063Y240521D01*
X967956Y240484D01*
X967850Y240444D01*
X967746Y240399D01*
X967643Y240351D01*
X967542Y240300D01*
X967443Y240245D01*
X967346Y240187D01*
X967251Y240125D01*
X967158Y240060D01*
X967068Y239992D01*
X966980Y239921D01*
X966894Y239846D01*
X966811Y239769D01*
X966731Y239689D01*
X966654Y239606D01*
X966579Y239520D01*
X966508Y239432D01*
X966440Y239342D01*
X966375Y239249D01*
X966313Y239154D01*
X966255Y239057D01*
X966200Y238958D01*
X966149Y238857D01*
X966101Y238754D01*
X966056Y238650D01*
X966016Y238544D01*
X965979Y238437D01*
X965946Y238329D01*
X965916Y238219D01*
X965891Y238109D01*
X965869Y237998D01*
X965852Y237886D01*
X965838Y237773D01*
X965828Y237660D01*
X965822Y237547D01*
X965820Y237434D01*
X965821Y237434D02*
X965821Y234188D01*
X965821Y238083D02*
X960628Y240679D01*
X959330Y245050D02*
X959330Y250243D01*
X960628Y258202D02*
X960630Y258301D01*
X960636Y258401D01*
X960645Y258500D01*
X960658Y258598D01*
X960675Y258696D01*
X960696Y258794D01*
X960721Y258890D01*
X960749Y258985D01*
X960781Y259079D01*
X960816Y259172D01*
X960855Y259264D01*
X960898Y259354D01*
X960943Y259442D01*
X960993Y259529D01*
X961045Y259613D01*
X961101Y259696D01*
X961159Y259776D01*
X961221Y259854D01*
X961286Y259929D01*
X961354Y260002D01*
X961424Y260072D01*
X961497Y260140D01*
X961572Y260205D01*
X961650Y260267D01*
X961730Y260325D01*
X961813Y260381D01*
X961897Y260433D01*
X961984Y260483D01*
X962072Y260528D01*
X962162Y260571D01*
X962254Y260610D01*
X962347Y260645D01*
X962441Y260677D01*
X962536Y260705D01*
X962632Y260730D01*
X962730Y260751D01*
X962828Y260768D01*
X962926Y260781D01*
X963025Y260790D01*
X963125Y260796D01*
X963224Y260798D01*
X960628Y258202D02*
X960630Y258058D01*
X960636Y257913D01*
X960645Y257769D01*
X960658Y257626D01*
X960675Y257482D01*
X960696Y257339D01*
X960721Y257197D01*
X960749Y257056D01*
X960781Y256915D01*
X960817Y256775D01*
X960856Y256636D01*
X960899Y256498D01*
X960946Y256362D01*
X960996Y256226D01*
X961050Y256092D01*
X961107Y255960D01*
X961168Y255829D01*
X961232Y255700D01*
X961300Y255572D01*
X961370Y255446D01*
X961445Y255322D01*
X961522Y255201D01*
X961603Y255081D01*
X961686Y254963D01*
X961773Y254848D01*
X961863Y254735D01*
X961956Y254624D01*
X962051Y254516D01*
X962150Y254410D01*
X962251Y254307D01*
X969716Y254632D02*
X969815Y254634D01*
X969915Y254640D01*
X970014Y254649D01*
X970112Y254662D01*
X970210Y254679D01*
X970308Y254700D01*
X970404Y254725D01*
X970499Y254753D01*
X970593Y254785D01*
X970686Y254820D01*
X970778Y254859D01*
X970868Y254902D01*
X970956Y254947D01*
X971043Y254997D01*
X971127Y255049D01*
X971210Y255105D01*
X971290Y255163D01*
X971368Y255225D01*
X971443Y255290D01*
X971516Y255358D01*
X971586Y255428D01*
X971654Y255501D01*
X971719Y255576D01*
X971781Y255654D01*
X971839Y255734D01*
X971895Y255817D01*
X971947Y255901D01*
X971997Y255988D01*
X972042Y256076D01*
X972085Y256166D01*
X972124Y256258D01*
X972159Y256351D01*
X972191Y256445D01*
X972219Y256540D01*
X972244Y256637D01*
X972265Y256734D01*
X972282Y256832D01*
X972295Y256930D01*
X972304Y257029D01*
X972310Y257129D01*
X972312Y257228D01*
X972310Y257364D01*
X972304Y257500D01*
X972295Y257636D01*
X972282Y257772D01*
X972264Y257907D01*
X972244Y258041D01*
X972219Y258175D01*
X972191Y258309D01*
X972158Y258441D01*
X972123Y258572D01*
X972083Y258703D01*
X972040Y258832D01*
X971994Y258960D01*
X971943Y259086D01*
X971890Y259212D01*
X971832Y259335D01*
X971772Y259457D01*
X971708Y259577D01*
X971640Y259696D01*
X971570Y259812D01*
X971496Y259926D01*
X971419Y260039D01*
X971338Y260149D01*
X967444Y255930D02*
X967497Y255844D01*
X967554Y255760D01*
X967613Y255678D01*
X967676Y255598D01*
X967742Y255521D01*
X967810Y255446D01*
X967882Y255374D01*
X967956Y255305D01*
X968033Y255239D01*
X968112Y255176D01*
X968194Y255116D01*
X968278Y255059D01*
X968364Y255005D01*
X968452Y254955D01*
X968542Y254908D01*
X968633Y254864D01*
X968727Y254825D01*
X968821Y254788D01*
X968917Y254756D01*
X969015Y254727D01*
X969113Y254702D01*
X969212Y254681D01*
X969312Y254663D01*
X969412Y254650D01*
X969513Y254640D01*
X969615Y254634D01*
X969716Y254632D01*
X965496Y259500D02*
X965443Y259586D01*
X965386Y259670D01*
X965327Y259752D01*
X965264Y259832D01*
X965198Y259909D01*
X965130Y259984D01*
X965058Y260056D01*
X964984Y260125D01*
X964907Y260191D01*
X964828Y260254D01*
X964746Y260314D01*
X964662Y260371D01*
X964576Y260425D01*
X964488Y260475D01*
X964398Y260522D01*
X964307Y260566D01*
X964213Y260605D01*
X964119Y260642D01*
X964023Y260674D01*
X963925Y260703D01*
X963827Y260728D01*
X963728Y260749D01*
X963628Y260767D01*
X963528Y260780D01*
X963427Y260790D01*
X963325Y260796D01*
X963224Y260798D01*
X965496Y259500D02*
X967444Y255930D01*
D17*
X334010Y388620D02*
X334010Y497840D01*
X237490Y497840D01*
X237490Y478790D01*
X165100Y478790D01*
X165100Y407670D01*
X237490Y407670D01*
X237490Y388620D01*
X334010Y388620D01*
D11*
X747740Y254220D02*
X747740Y202220D01*
X702740Y202220D02*
X679740Y202220D01*
X679740Y254220D01*
X724740Y202220D02*
X747740Y202220D01*
X747740Y254220D02*
X731740Y270220D01*
X695740Y270220D02*
X679740Y254220D01*
X724740Y270220D02*
X731740Y270220D01*
X702740Y270220D02*
X695740Y270220D01*
D10*
X694792Y275325D02*
X694792Y283115D01*
X698686Y279220D02*
X690897Y279220D01*
D12*
X756121Y201569D02*
X765519Y198436D01*
X765519Y204702D02*
X756121Y201569D01*
X755077Y207710D02*
X755077Y211887D01*
X756121Y218028D02*
X765519Y214895D01*
X765519Y221161D02*
X756121Y218028D01*
X756121Y226624D02*
X756121Y228713D01*
X756121Y226624D02*
X756123Y226535D01*
X756129Y226447D01*
X756138Y226359D01*
X756151Y226271D01*
X756168Y226184D01*
X756188Y226098D01*
X756213Y226013D01*
X756240Y225928D01*
X756272Y225845D01*
X756306Y225764D01*
X756345Y225684D01*
X756386Y225606D01*
X756431Y225529D01*
X756479Y225455D01*
X756530Y225382D01*
X756584Y225312D01*
X756642Y225245D01*
X756702Y225179D01*
X756764Y225117D01*
X756830Y225057D01*
X756897Y224999D01*
X756967Y224945D01*
X757040Y224894D01*
X757114Y224846D01*
X757191Y224801D01*
X757269Y224760D01*
X757349Y224721D01*
X757430Y224687D01*
X757513Y224655D01*
X757598Y224628D01*
X757683Y224603D01*
X757769Y224583D01*
X757856Y224566D01*
X757944Y224553D01*
X758032Y224544D01*
X758120Y224538D01*
X758209Y224536D01*
X763431Y224536D01*
X763522Y224538D01*
X763613Y224544D01*
X763704Y224554D01*
X763794Y224568D01*
X763883Y224585D01*
X763971Y224607D01*
X764059Y224633D01*
X764145Y224662D01*
X764230Y224695D01*
X764313Y224732D01*
X764395Y224772D01*
X764475Y224816D01*
X764553Y224863D01*
X764629Y224914D01*
X764702Y224967D01*
X764773Y225024D01*
X764842Y225085D01*
X764907Y225148D01*
X764970Y225213D01*
X765030Y225282D01*
X765088Y225353D01*
X765141Y225426D01*
X765192Y225502D01*
X765239Y225580D01*
X765283Y225660D01*
X765323Y225742D01*
X765360Y225825D01*
X765393Y225910D01*
X765422Y225996D01*
X765448Y226084D01*
X765470Y226172D01*
X765487Y226261D01*
X765501Y226351D01*
X765511Y226442D01*
X765517Y226533D01*
X765519Y226624D01*
X765519Y228713D01*
X756121Y234244D02*
X756121Y236333D01*
X756121Y234244D02*
X756123Y234155D01*
X756129Y234067D01*
X756138Y233979D01*
X756151Y233891D01*
X756168Y233804D01*
X756188Y233718D01*
X756213Y233633D01*
X756240Y233548D01*
X756272Y233465D01*
X756306Y233384D01*
X756345Y233304D01*
X756386Y233226D01*
X756431Y233149D01*
X756479Y233075D01*
X756530Y233002D01*
X756584Y232932D01*
X756642Y232865D01*
X756702Y232799D01*
X756764Y232737D01*
X756830Y232677D01*
X756897Y232619D01*
X756967Y232565D01*
X757040Y232514D01*
X757114Y232466D01*
X757191Y232421D01*
X757269Y232380D01*
X757349Y232341D01*
X757430Y232307D01*
X757513Y232275D01*
X757598Y232248D01*
X757683Y232223D01*
X757769Y232203D01*
X757856Y232186D01*
X757944Y232173D01*
X758032Y232164D01*
X758120Y232158D01*
X758209Y232156D01*
X763431Y232156D01*
X763522Y232158D01*
X763613Y232164D01*
X763704Y232174D01*
X763794Y232188D01*
X763883Y232205D01*
X763971Y232227D01*
X764059Y232253D01*
X764145Y232282D01*
X764230Y232315D01*
X764313Y232352D01*
X764395Y232392D01*
X764475Y232436D01*
X764553Y232483D01*
X764629Y232534D01*
X764702Y232587D01*
X764773Y232644D01*
X764842Y232705D01*
X764907Y232768D01*
X764970Y232833D01*
X765030Y232902D01*
X765088Y232973D01*
X765141Y233046D01*
X765192Y233122D01*
X765239Y233200D01*
X765283Y233280D01*
X765323Y233362D01*
X765360Y233445D01*
X765393Y233530D01*
X765422Y233616D01*
X765448Y233704D01*
X765470Y233792D01*
X765487Y233881D01*
X765501Y233971D01*
X765511Y234062D01*
X765517Y234153D01*
X765519Y234244D01*
X765519Y236333D01*
X755077Y239409D02*
X755077Y243586D01*
X756121Y247117D02*
X756121Y250249D01*
X756123Y250338D01*
X756129Y250426D01*
X756138Y250514D01*
X756151Y250602D01*
X756168Y250689D01*
X756188Y250775D01*
X756213Y250860D01*
X756240Y250945D01*
X756272Y251028D01*
X756306Y251109D01*
X756345Y251189D01*
X756386Y251267D01*
X756431Y251344D01*
X756479Y251418D01*
X756530Y251491D01*
X756584Y251561D01*
X756642Y251628D01*
X756702Y251694D01*
X756764Y251756D01*
X756830Y251816D01*
X756897Y251874D01*
X756967Y251928D01*
X757040Y251979D01*
X757114Y252027D01*
X757191Y252072D01*
X757269Y252113D01*
X757349Y252152D01*
X757430Y252186D01*
X757513Y252218D01*
X757598Y252245D01*
X757683Y252270D01*
X757769Y252290D01*
X757856Y252307D01*
X757944Y252320D01*
X758032Y252329D01*
X758120Y252335D01*
X758209Y252337D01*
X758209Y252338D02*
X759254Y252338D01*
X759254Y252337D02*
X759343Y252335D01*
X759431Y252329D01*
X759519Y252320D01*
X759607Y252307D01*
X759694Y252290D01*
X759780Y252270D01*
X759865Y252245D01*
X759950Y252218D01*
X760033Y252186D01*
X760114Y252152D01*
X760194Y252113D01*
X760272Y252072D01*
X760349Y252027D01*
X760423Y251979D01*
X760496Y251928D01*
X760566Y251874D01*
X760633Y251816D01*
X760699Y251756D01*
X760761Y251694D01*
X760821Y251628D01*
X760879Y251561D01*
X760933Y251491D01*
X760984Y251418D01*
X761032Y251344D01*
X761077Y251267D01*
X761118Y251189D01*
X761157Y251109D01*
X761191Y251028D01*
X761223Y250945D01*
X761250Y250860D01*
X761275Y250775D01*
X761295Y250689D01*
X761312Y250602D01*
X761325Y250514D01*
X761334Y250426D01*
X761340Y250338D01*
X761342Y250249D01*
X761342Y247117D01*
X765519Y247117D01*
X765519Y252338D01*
X765519Y255738D02*
X756121Y258871D01*
X765519Y262004D01*
D18*
X158750Y430530D02*
X44450Y430530D01*
X44450Y509270D01*
X44450Y514350D01*
X158750Y514350D02*
X158750Y509270D01*
X158750Y430530D01*
X152400Y443230D02*
X152400Y496570D01*
X152400Y499110D01*
X50800Y499110D02*
X50800Y496570D01*
X50800Y443230D01*
X127000Y433070D02*
X127651Y433078D01*
X128301Y433102D01*
X128951Y433141D01*
X129599Y433197D01*
X130246Y433268D01*
X130891Y433355D01*
X131534Y433458D01*
X132174Y433577D01*
X132810Y433711D01*
X133444Y433860D01*
X134073Y434025D01*
X134699Y434205D01*
X135319Y434401D01*
X135935Y434611D01*
X136546Y434837D01*
X137150Y435077D01*
X137749Y435332D01*
X138342Y435602D01*
X138927Y435886D01*
X139506Y436184D01*
X140077Y436496D01*
X140640Y436822D01*
X141195Y437162D01*
X141742Y437515D01*
X142280Y437881D01*
X142809Y438260D01*
X143328Y438652D01*
X143838Y439057D01*
X144337Y439474D01*
X144827Y439903D01*
X145305Y440344D01*
X145773Y440796D01*
X146230Y441260D01*
X146675Y441735D01*
X147108Y442220D01*
X147530Y442716D01*
X147939Y443222D01*
X148336Y443738D01*
X127000Y433070D02*
X126349Y433078D01*
X125699Y433102D01*
X125049Y433141D01*
X124401Y433197D01*
X123754Y433268D01*
X123109Y433355D01*
X122466Y433458D01*
X121826Y433577D01*
X121190Y433711D01*
X120556Y433860D01*
X119927Y434025D01*
X119301Y434205D01*
X118681Y434401D01*
X118065Y434611D01*
X117454Y434837D01*
X116850Y435077D01*
X116251Y435332D01*
X115658Y435602D01*
X115073Y435886D01*
X114494Y436184D01*
X113923Y436496D01*
X113360Y436822D01*
X112805Y437162D01*
X112258Y437515D01*
X111720Y437881D01*
X111191Y438260D01*
X110672Y438652D01*
X110162Y439057D01*
X109663Y439474D01*
X109173Y439903D01*
X108695Y440344D01*
X108227Y440796D01*
X107770Y441260D01*
X107325Y441735D01*
X106892Y442220D01*
X106470Y442716D01*
X106061Y443222D01*
X105664Y443738D01*
X105410Y443230D02*
X97790Y443230D01*
X148082Y443230D02*
X152400Y443230D01*
X97536Y443738D02*
X97139Y443222D01*
X96730Y442716D01*
X96308Y442220D01*
X95875Y441735D01*
X95430Y441260D01*
X94973Y440796D01*
X94505Y440344D01*
X94027Y439903D01*
X93537Y439474D01*
X93038Y439057D01*
X92528Y438652D01*
X92009Y438260D01*
X91480Y437881D01*
X90942Y437515D01*
X90395Y437162D01*
X89840Y436822D01*
X89277Y436496D01*
X88706Y436184D01*
X88127Y435886D01*
X87542Y435602D01*
X86949Y435332D01*
X86350Y435077D01*
X85746Y434837D01*
X85135Y434611D01*
X84519Y434401D01*
X83899Y434205D01*
X83273Y434025D01*
X82644Y433860D01*
X82010Y433711D01*
X81374Y433577D01*
X80734Y433458D01*
X80091Y433355D01*
X79446Y433268D01*
X78799Y433197D01*
X78151Y433141D01*
X77501Y433102D01*
X76851Y433078D01*
X76200Y433070D01*
X75549Y433078D01*
X74899Y433102D01*
X74249Y433141D01*
X73601Y433197D01*
X72954Y433268D01*
X72309Y433355D01*
X71666Y433458D01*
X71026Y433577D01*
X70390Y433711D01*
X69756Y433860D01*
X69127Y434025D01*
X68501Y434205D01*
X67881Y434401D01*
X67265Y434611D01*
X66654Y434837D01*
X66050Y435077D01*
X65451Y435332D01*
X64858Y435602D01*
X64273Y435886D01*
X63694Y436184D01*
X63123Y436496D01*
X62560Y436822D01*
X62005Y437162D01*
X61458Y437515D01*
X60920Y437881D01*
X60391Y438260D01*
X59872Y438652D01*
X59362Y439057D01*
X58863Y439474D01*
X58373Y439903D01*
X57895Y440344D01*
X57427Y440796D01*
X56970Y441260D01*
X56525Y441735D01*
X56092Y442220D01*
X55670Y442716D01*
X55261Y443222D01*
X54864Y443738D01*
X55118Y443230D02*
X50800Y443230D01*
X132080Y496570D02*
X152400Y496570D01*
X132080Y496570D02*
X121920Y496570D01*
X81280Y496570D01*
X71120Y496570D01*
X50800Y496570D01*
X132080Y514350D02*
X158750Y514350D01*
X132080Y514350D02*
X121920Y514350D01*
X81280Y514350D01*
X71120Y514350D01*
X44450Y514350D01*
X81280Y514350D02*
X81280Y496570D01*
X71120Y496570D02*
X71120Y514350D01*
X134620Y509270D02*
X158750Y509270D01*
X119380Y509270D02*
X83820Y509270D01*
X81280Y514350D01*
X83820Y509270D02*
X83820Y499110D01*
X81280Y496570D01*
X83820Y499110D02*
X119380Y499110D01*
X134620Y499110D02*
X152400Y499110D01*
X71120Y514350D02*
X68580Y509270D01*
X44450Y509270D01*
X68580Y509270D02*
X68580Y499110D01*
X71120Y496570D01*
X68580Y499110D02*
X50800Y499110D01*
X121920Y496570D02*
X121920Y514350D01*
X132080Y514350D02*
X132080Y496570D01*
X134620Y499110D02*
X134620Y509270D01*
X119380Y509270D02*
X119380Y499110D01*
X119380Y509270D02*
X121920Y514350D01*
X132080Y514350D02*
X134620Y509270D01*
X134620Y499110D02*
X132080Y496570D01*
X121920Y496570D02*
X119380Y499110D01*
D17*
X144780Y459105D02*
X147955Y456565D01*
X144780Y459105D02*
X144780Y447675D01*
X147955Y447675D02*
X141605Y447675D01*
X97473Y459106D02*
X97369Y459104D01*
X97264Y459098D01*
X97160Y459089D01*
X97057Y459076D01*
X96954Y459058D01*
X96852Y459038D01*
X96750Y459013D01*
X96650Y458985D01*
X96550Y458953D01*
X96452Y458917D01*
X96355Y458878D01*
X96260Y458836D01*
X96166Y458790D01*
X96074Y458740D01*
X95984Y458688D01*
X95896Y458632D01*
X95810Y458572D01*
X95726Y458510D01*
X95645Y458445D01*
X95566Y458377D01*
X95489Y458305D01*
X95416Y458232D01*
X95344Y458155D01*
X95276Y458076D01*
X95211Y457995D01*
X95149Y457911D01*
X95089Y457825D01*
X95033Y457737D01*
X94981Y457647D01*
X94931Y457555D01*
X94885Y457461D01*
X94843Y457366D01*
X94804Y457269D01*
X94768Y457171D01*
X94736Y457071D01*
X94708Y456971D01*
X94683Y456869D01*
X94663Y456767D01*
X94645Y456664D01*
X94632Y456561D01*
X94623Y456457D01*
X94617Y456352D01*
X94615Y456248D01*
X97473Y459105D02*
X97591Y459103D01*
X97710Y459097D01*
X97828Y459088D01*
X97945Y459075D01*
X98062Y459057D01*
X98179Y459037D01*
X98295Y459012D01*
X98410Y458984D01*
X98523Y458951D01*
X98636Y458916D01*
X98748Y458876D01*
X98858Y458834D01*
X98967Y458787D01*
X99075Y458737D01*
X99180Y458684D01*
X99284Y458627D01*
X99386Y458567D01*
X99486Y458504D01*
X99584Y458437D01*
X99680Y458368D01*
X99773Y458295D01*
X99864Y458219D01*
X99953Y458141D01*
X100039Y458059D01*
X100122Y457975D01*
X100203Y457889D01*
X100280Y457799D01*
X100355Y457708D01*
X100427Y457614D01*
X100496Y457517D01*
X100561Y457419D01*
X100624Y457318D01*
X100683Y457215D01*
X100739Y457111D01*
X100791Y457005D01*
X100840Y456897D01*
X100885Y456788D01*
X100927Y456677D01*
X100965Y456565D01*
X95567Y454026D02*
X95491Y454101D01*
X95416Y454180D01*
X95345Y454261D01*
X95276Y454345D01*
X95211Y454431D01*
X95149Y454519D01*
X95089Y454609D01*
X95033Y454701D01*
X94980Y454796D01*
X94931Y454892D01*
X94885Y454990D01*
X94842Y455089D01*
X94803Y455190D01*
X94768Y455292D01*
X94736Y455395D01*
X94708Y455499D01*
X94683Y455604D01*
X94662Y455711D01*
X94645Y455817D01*
X94632Y455924D01*
X94623Y456032D01*
X94617Y456140D01*
X94615Y456248D01*
X95568Y454025D02*
X100965Y447675D01*
X94615Y447675D01*
D19*
X148971Y412115D02*
X148973Y411999D01*
X148979Y411882D01*
X148988Y411766D01*
X149001Y411651D01*
X149018Y411536D01*
X149039Y411421D01*
X149064Y411308D01*
X149092Y411195D01*
X149124Y411083D01*
X149160Y410972D01*
X149199Y410862D01*
X149242Y410754D01*
X149288Y410647D01*
X149338Y410542D01*
X149391Y410439D01*
X149447Y410337D01*
X149507Y410237D01*
X149570Y410139D01*
X149637Y410044D01*
X149706Y409950D01*
X149778Y409859D01*
X149853Y409770D01*
X149932Y409684D01*
X150013Y409601D01*
X150096Y409520D01*
X150182Y409441D01*
X150271Y409366D01*
X150362Y409294D01*
X150456Y409225D01*
X150551Y409158D01*
X150649Y409095D01*
X150749Y409035D01*
X150851Y408979D01*
X150954Y408926D01*
X151059Y408876D01*
X151166Y408830D01*
X151274Y408787D01*
X151384Y408748D01*
X151495Y408712D01*
X151607Y408680D01*
X151720Y408652D01*
X151833Y408627D01*
X151948Y408606D01*
X152063Y408589D01*
X152178Y408576D01*
X152294Y408567D01*
X152411Y408561D01*
X152527Y408559D01*
X152707Y408561D01*
X152886Y408568D01*
X153066Y408578D01*
X153245Y408593D01*
X153424Y408613D01*
X153602Y408636D01*
X153779Y408664D01*
X153956Y408696D01*
X154132Y408732D01*
X154307Y408773D01*
X154481Y408818D01*
X154654Y408867D01*
X154826Y408919D01*
X154997Y408977D01*
X155166Y409038D01*
X155333Y409103D01*
X155499Y409172D01*
X155663Y409245D01*
X155826Y409322D01*
X155986Y409403D01*
X156145Y409487D01*
X156301Y409576D01*
X156455Y409668D01*
X156607Y409764D01*
X156757Y409863D01*
X156905Y409966D01*
X157049Y410073D01*
X157192Y410183D01*
X157331Y410296D01*
X157468Y410413D01*
X157602Y410532D01*
X157733Y410655D01*
X157861Y410781D01*
X157417Y421005D02*
X157415Y421121D01*
X157409Y421238D01*
X157400Y421354D01*
X157387Y421469D01*
X157370Y421584D01*
X157349Y421699D01*
X157324Y421812D01*
X157296Y421925D01*
X157264Y422037D01*
X157228Y422148D01*
X157189Y422258D01*
X157146Y422366D01*
X157100Y422473D01*
X157050Y422578D01*
X156997Y422681D01*
X156941Y422783D01*
X156881Y422883D01*
X156818Y422981D01*
X156751Y423076D01*
X156682Y423170D01*
X156610Y423261D01*
X156535Y423350D01*
X156456Y423436D01*
X156375Y423519D01*
X156292Y423600D01*
X156206Y423679D01*
X156117Y423754D01*
X156026Y423826D01*
X155932Y423895D01*
X155837Y423962D01*
X155739Y424025D01*
X155639Y424085D01*
X155537Y424141D01*
X155434Y424194D01*
X155329Y424244D01*
X155222Y424290D01*
X155114Y424333D01*
X155004Y424372D01*
X154893Y424408D01*
X154781Y424440D01*
X154668Y424468D01*
X154555Y424493D01*
X154440Y424514D01*
X154325Y424531D01*
X154210Y424544D01*
X154094Y424553D01*
X153977Y424559D01*
X153861Y424561D01*
X153861Y424562D02*
X153702Y424560D01*
X153543Y424554D01*
X153385Y424545D01*
X153226Y424532D01*
X153068Y424515D01*
X152911Y424494D01*
X152754Y424469D01*
X152597Y424441D01*
X152442Y424409D01*
X152287Y424374D01*
X152133Y424334D01*
X151980Y424291D01*
X151828Y424244D01*
X151677Y424194D01*
X151528Y424140D01*
X151379Y424083D01*
X151233Y424022D01*
X151087Y423958D01*
X150944Y423890D01*
X150802Y423819D01*
X150661Y423744D01*
X150523Y423666D01*
X150386Y423585D01*
X150252Y423501D01*
X150119Y423413D01*
X149988Y423322D01*
X149860Y423228D01*
X155639Y417893D02*
X155739Y417954D01*
X155837Y418019D01*
X155933Y418086D01*
X156026Y418157D01*
X156117Y418230D01*
X156206Y418307D01*
X156292Y418386D01*
X156376Y418468D01*
X156457Y418553D01*
X156535Y418640D01*
X156610Y418730D01*
X156683Y418822D01*
X156752Y418917D01*
X156818Y419013D01*
X156881Y419112D01*
X156941Y419213D01*
X156998Y419316D01*
X157051Y419420D01*
X157100Y419526D01*
X157147Y419634D01*
X157189Y419743D01*
X157229Y419853D01*
X157264Y419965D01*
X157296Y420078D01*
X157324Y420192D01*
X157349Y420306D01*
X157370Y420422D01*
X157387Y420538D01*
X157400Y420654D01*
X157409Y420771D01*
X157415Y420888D01*
X157417Y421005D01*
X150749Y415227D02*
X150649Y415166D01*
X150551Y415101D01*
X150455Y415034D01*
X150362Y414963D01*
X150271Y414890D01*
X150182Y414813D01*
X150096Y414734D01*
X150012Y414652D01*
X149931Y414567D01*
X149853Y414480D01*
X149778Y414390D01*
X149705Y414298D01*
X149636Y414203D01*
X149570Y414107D01*
X149507Y414008D01*
X149447Y413907D01*
X149390Y413804D01*
X149337Y413700D01*
X149288Y413594D01*
X149241Y413486D01*
X149199Y413377D01*
X149159Y413267D01*
X149124Y413155D01*
X149092Y413042D01*
X149064Y412928D01*
X149039Y412814D01*
X149018Y412698D01*
X149001Y412582D01*
X148988Y412466D01*
X148979Y412349D01*
X148973Y412232D01*
X148971Y412115D01*
X150749Y415227D02*
X155639Y417894D01*
X142230Y413004D02*
X142230Y424561D01*
X142230Y413004D02*
X142228Y412872D01*
X142222Y412741D01*
X142212Y412609D01*
X142199Y412478D01*
X142181Y412348D01*
X142160Y412218D01*
X142135Y412088D01*
X142106Y411960D01*
X142073Y411832D01*
X142036Y411706D01*
X141996Y411580D01*
X141952Y411456D01*
X141904Y411333D01*
X141853Y411212D01*
X141798Y411092D01*
X141740Y410974D01*
X141678Y410858D01*
X141612Y410744D01*
X141544Y410631D01*
X141472Y410521D01*
X141397Y410413D01*
X141318Y410307D01*
X141237Y410203D01*
X141152Y410102D01*
X141065Y410004D01*
X140974Y409908D01*
X140881Y409815D01*
X140785Y409724D01*
X140687Y409637D01*
X140586Y409552D01*
X140482Y409471D01*
X140376Y409392D01*
X140268Y409317D01*
X140158Y409245D01*
X140045Y409177D01*
X139931Y409111D01*
X139815Y409049D01*
X139697Y408991D01*
X139577Y408936D01*
X139456Y408885D01*
X139333Y408837D01*
X139209Y408793D01*
X139083Y408753D01*
X138957Y408716D01*
X138829Y408683D01*
X138701Y408654D01*
X138571Y408629D01*
X138441Y408608D01*
X138311Y408590D01*
X138180Y408577D01*
X138048Y408567D01*
X137917Y408561D01*
X137785Y408559D01*
X137653Y408561D01*
X137522Y408567D01*
X137390Y408577D01*
X137259Y408590D01*
X137129Y408608D01*
X136999Y408629D01*
X136869Y408654D01*
X136741Y408683D01*
X136613Y408716D01*
X136487Y408753D01*
X136361Y408793D01*
X136237Y408837D01*
X136114Y408885D01*
X135993Y408936D01*
X135873Y408991D01*
X135755Y409049D01*
X135639Y409111D01*
X135525Y409177D01*
X135412Y409245D01*
X135302Y409317D01*
X135194Y409392D01*
X135088Y409471D01*
X134984Y409552D01*
X134883Y409637D01*
X134785Y409724D01*
X134689Y409815D01*
X134596Y409908D01*
X134505Y410004D01*
X134418Y410102D01*
X134333Y410203D01*
X134252Y410307D01*
X134173Y410413D01*
X134098Y410521D01*
X134026Y410631D01*
X133958Y410744D01*
X133892Y410858D01*
X133830Y410974D01*
X133772Y411092D01*
X133717Y411212D01*
X133666Y411333D01*
X133618Y411456D01*
X133574Y411580D01*
X133534Y411706D01*
X133497Y411832D01*
X133464Y411960D01*
X133435Y412088D01*
X133410Y412218D01*
X133389Y412348D01*
X133371Y412478D01*
X133358Y412609D01*
X133348Y412741D01*
X133342Y412872D01*
X133340Y413004D01*
X133340Y424561D01*
X125324Y424561D02*
X125324Y408559D01*
X125324Y424561D02*
X120879Y424561D01*
X120747Y424559D01*
X120616Y424553D01*
X120484Y424543D01*
X120353Y424530D01*
X120223Y424512D01*
X120093Y424491D01*
X119963Y424466D01*
X119835Y424437D01*
X119707Y424404D01*
X119581Y424367D01*
X119455Y424327D01*
X119331Y424283D01*
X119208Y424235D01*
X119087Y424184D01*
X118967Y424129D01*
X118849Y424071D01*
X118733Y424009D01*
X118619Y423943D01*
X118506Y423875D01*
X118396Y423803D01*
X118288Y423728D01*
X118182Y423649D01*
X118078Y423568D01*
X117977Y423483D01*
X117879Y423396D01*
X117783Y423305D01*
X117690Y423212D01*
X117599Y423116D01*
X117512Y423018D01*
X117427Y422917D01*
X117346Y422813D01*
X117267Y422707D01*
X117192Y422599D01*
X117120Y422489D01*
X117052Y422376D01*
X116986Y422262D01*
X116924Y422146D01*
X116866Y422028D01*
X116811Y421908D01*
X116760Y421787D01*
X116712Y421664D01*
X116668Y421540D01*
X116628Y421414D01*
X116591Y421288D01*
X116558Y421160D01*
X116529Y421032D01*
X116504Y420902D01*
X116483Y420772D01*
X116465Y420642D01*
X116452Y420511D01*
X116442Y420379D01*
X116436Y420248D01*
X116434Y420116D01*
X116436Y419984D01*
X116442Y419853D01*
X116452Y419721D01*
X116465Y419590D01*
X116483Y419460D01*
X116504Y419330D01*
X116529Y419200D01*
X116558Y419072D01*
X116591Y418944D01*
X116628Y418818D01*
X116668Y418692D01*
X116712Y418568D01*
X116760Y418445D01*
X116811Y418324D01*
X116866Y418204D01*
X116924Y418086D01*
X116986Y417970D01*
X117052Y417856D01*
X117120Y417743D01*
X117192Y417633D01*
X117267Y417525D01*
X117346Y417419D01*
X117427Y417315D01*
X117512Y417214D01*
X117599Y417116D01*
X117690Y417020D01*
X117783Y416927D01*
X117879Y416836D01*
X117977Y416749D01*
X118078Y416664D01*
X118182Y416583D01*
X118288Y416504D01*
X118396Y416429D01*
X118506Y416357D01*
X118619Y416289D01*
X118733Y416223D01*
X118849Y416161D01*
X118967Y416103D01*
X119087Y416048D01*
X119208Y415997D01*
X119331Y415949D01*
X119455Y415905D01*
X119581Y415865D01*
X119707Y415828D01*
X119835Y415795D01*
X119963Y415766D01*
X120093Y415741D01*
X120223Y415720D01*
X120353Y415702D01*
X120484Y415689D01*
X120616Y415679D01*
X120747Y415673D01*
X120879Y415671D01*
X125324Y415671D01*
X109693Y408559D02*
X109693Y424561D01*
X105248Y424561D01*
X105116Y424559D01*
X104985Y424553D01*
X104853Y424543D01*
X104722Y424530D01*
X104592Y424512D01*
X104462Y424491D01*
X104332Y424466D01*
X104204Y424437D01*
X104076Y424404D01*
X103950Y424367D01*
X103824Y424327D01*
X103700Y424283D01*
X103577Y424235D01*
X103456Y424184D01*
X103336Y424129D01*
X103218Y424071D01*
X103102Y424009D01*
X102988Y423943D01*
X102875Y423875D01*
X102765Y423803D01*
X102657Y423728D01*
X102551Y423649D01*
X102447Y423568D01*
X102346Y423483D01*
X102248Y423396D01*
X102152Y423305D01*
X102059Y423212D01*
X101968Y423116D01*
X101881Y423018D01*
X101796Y422917D01*
X101715Y422813D01*
X101636Y422707D01*
X101561Y422599D01*
X101489Y422489D01*
X101421Y422376D01*
X101355Y422262D01*
X101293Y422146D01*
X101235Y422028D01*
X101180Y421908D01*
X101129Y421787D01*
X101081Y421664D01*
X101037Y421540D01*
X100997Y421414D01*
X100960Y421288D01*
X100927Y421160D01*
X100898Y421032D01*
X100873Y420902D01*
X100852Y420772D01*
X100834Y420642D01*
X100821Y420511D01*
X100811Y420379D01*
X100805Y420248D01*
X100803Y420116D01*
X100805Y419984D01*
X100811Y419853D01*
X100821Y419721D01*
X100834Y419590D01*
X100852Y419460D01*
X100873Y419330D01*
X100898Y419200D01*
X100927Y419072D01*
X100960Y418944D01*
X100997Y418818D01*
X101037Y418692D01*
X101081Y418568D01*
X101129Y418445D01*
X101180Y418324D01*
X101235Y418204D01*
X101293Y418086D01*
X101355Y417970D01*
X101421Y417856D01*
X101489Y417743D01*
X101561Y417633D01*
X101636Y417525D01*
X101715Y417419D01*
X101796Y417315D01*
X101881Y417214D01*
X101968Y417116D01*
X102059Y417020D01*
X102152Y416927D01*
X102248Y416836D01*
X102346Y416749D01*
X102447Y416664D01*
X102551Y416583D01*
X102657Y416504D01*
X102765Y416429D01*
X102875Y416357D01*
X102988Y416289D01*
X103102Y416223D01*
X103218Y416161D01*
X103336Y416103D01*
X103456Y416048D01*
X103577Y415997D01*
X103700Y415949D01*
X103824Y415905D01*
X103950Y415865D01*
X104076Y415828D01*
X104204Y415795D01*
X104332Y415766D01*
X104462Y415741D01*
X104592Y415720D01*
X104722Y415702D01*
X104853Y415689D01*
X104985Y415679D01*
X105116Y415673D01*
X105248Y415671D01*
X109693Y415671D01*
X94261Y408559D02*
X94261Y424561D01*
X94261Y408559D02*
X87149Y408559D01*
X76823Y417005D02*
X82157Y424561D01*
X76823Y417005D02*
X71489Y424561D01*
X76823Y417005D02*
X76823Y408559D01*
D18*
X340360Y430530D02*
X454660Y430530D01*
X340360Y430530D02*
X340360Y509270D01*
X340360Y514350D01*
X454660Y514350D02*
X454660Y509270D01*
X454660Y430530D01*
X448310Y443230D02*
X448310Y496570D01*
X448310Y499110D01*
X346710Y499110D02*
X346710Y496570D01*
X346710Y443230D01*
X422910Y433070D02*
X423561Y433078D01*
X424211Y433102D01*
X424861Y433141D01*
X425509Y433197D01*
X426156Y433268D01*
X426801Y433355D01*
X427444Y433458D01*
X428084Y433577D01*
X428720Y433711D01*
X429354Y433860D01*
X429983Y434025D01*
X430609Y434205D01*
X431229Y434401D01*
X431845Y434611D01*
X432456Y434837D01*
X433060Y435077D01*
X433659Y435332D01*
X434252Y435602D01*
X434837Y435886D01*
X435416Y436184D01*
X435987Y436496D01*
X436550Y436822D01*
X437105Y437162D01*
X437652Y437515D01*
X438190Y437881D01*
X438719Y438260D01*
X439238Y438652D01*
X439748Y439057D01*
X440247Y439474D01*
X440737Y439903D01*
X441215Y440344D01*
X441683Y440796D01*
X442140Y441260D01*
X442585Y441735D01*
X443018Y442220D01*
X443440Y442716D01*
X443849Y443222D01*
X444246Y443738D01*
X422910Y433070D02*
X422259Y433078D01*
X421609Y433102D01*
X420959Y433141D01*
X420311Y433197D01*
X419664Y433268D01*
X419019Y433355D01*
X418376Y433458D01*
X417736Y433577D01*
X417100Y433711D01*
X416466Y433860D01*
X415837Y434025D01*
X415211Y434205D01*
X414591Y434401D01*
X413975Y434611D01*
X413364Y434837D01*
X412760Y435077D01*
X412161Y435332D01*
X411568Y435602D01*
X410983Y435886D01*
X410404Y436184D01*
X409833Y436496D01*
X409270Y436822D01*
X408715Y437162D01*
X408168Y437515D01*
X407630Y437881D01*
X407101Y438260D01*
X406582Y438652D01*
X406072Y439057D01*
X405573Y439474D01*
X405083Y439903D01*
X404605Y440344D01*
X404137Y440796D01*
X403680Y441260D01*
X403235Y441735D01*
X402802Y442220D01*
X402380Y442716D01*
X401971Y443222D01*
X401574Y443738D01*
X401320Y443230D02*
X393700Y443230D01*
X443992Y443230D02*
X448310Y443230D01*
X393446Y443738D02*
X393049Y443222D01*
X392640Y442716D01*
X392218Y442220D01*
X391785Y441735D01*
X391340Y441260D01*
X390883Y440796D01*
X390415Y440344D01*
X389937Y439903D01*
X389447Y439474D01*
X388948Y439057D01*
X388438Y438652D01*
X387919Y438260D01*
X387390Y437881D01*
X386852Y437515D01*
X386305Y437162D01*
X385750Y436822D01*
X385187Y436496D01*
X384616Y436184D01*
X384037Y435886D01*
X383452Y435602D01*
X382859Y435332D01*
X382260Y435077D01*
X381656Y434837D01*
X381045Y434611D01*
X380429Y434401D01*
X379809Y434205D01*
X379183Y434025D01*
X378554Y433860D01*
X377920Y433711D01*
X377284Y433577D01*
X376644Y433458D01*
X376001Y433355D01*
X375356Y433268D01*
X374709Y433197D01*
X374061Y433141D01*
X373411Y433102D01*
X372761Y433078D01*
X372110Y433070D01*
X371459Y433078D01*
X370809Y433102D01*
X370159Y433141D01*
X369511Y433197D01*
X368864Y433268D01*
X368219Y433355D01*
X367576Y433458D01*
X366936Y433577D01*
X366300Y433711D01*
X365666Y433860D01*
X365037Y434025D01*
X364411Y434205D01*
X363791Y434401D01*
X363175Y434611D01*
X362564Y434837D01*
X361960Y435077D01*
X361361Y435332D01*
X360768Y435602D01*
X360183Y435886D01*
X359604Y436184D01*
X359033Y436496D01*
X358470Y436822D01*
X357915Y437162D01*
X357368Y437515D01*
X356830Y437881D01*
X356301Y438260D01*
X355782Y438652D01*
X355272Y439057D01*
X354773Y439474D01*
X354283Y439903D01*
X353805Y440344D01*
X353337Y440796D01*
X352880Y441260D01*
X352435Y441735D01*
X352002Y442220D01*
X351580Y442716D01*
X351171Y443222D01*
X350774Y443738D01*
X351028Y443230D02*
X346710Y443230D01*
X427990Y496570D02*
X448310Y496570D01*
X427990Y496570D02*
X417830Y496570D01*
X377190Y496570D01*
X367030Y496570D01*
X346710Y496570D01*
X427990Y514350D02*
X454660Y514350D01*
X427990Y514350D02*
X417830Y514350D01*
X377190Y514350D01*
X367030Y514350D01*
X340360Y514350D01*
X377190Y514350D02*
X377190Y496570D01*
X367030Y496570D02*
X367030Y514350D01*
X430530Y509270D02*
X454660Y509270D01*
X415290Y509270D02*
X379730Y509270D01*
X377190Y514350D01*
X379730Y509270D02*
X379730Y499110D01*
X377190Y496570D01*
X379730Y499110D02*
X415290Y499110D01*
X430530Y499110D02*
X448310Y499110D01*
X367030Y514350D02*
X364490Y509270D01*
X340360Y509270D01*
X364490Y509270D02*
X364490Y499110D01*
X367030Y496570D01*
X364490Y499110D02*
X346710Y499110D01*
X417830Y496570D02*
X417830Y514350D01*
X427990Y514350D02*
X427990Y496570D01*
X430530Y499110D02*
X430530Y509270D01*
X415290Y509270D02*
X415290Y499110D01*
X415290Y509270D02*
X417830Y514350D01*
X427990Y514350D02*
X430530Y509270D01*
X430530Y499110D02*
X427990Y496570D01*
X417830Y496570D02*
X415290Y499110D01*
D17*
X440690Y459105D02*
X443865Y456565D01*
X440690Y459105D02*
X440690Y447675D01*
X443865Y447675D02*
X437515Y447675D01*
X393383Y459106D02*
X393279Y459104D01*
X393174Y459098D01*
X393070Y459089D01*
X392967Y459076D01*
X392864Y459058D01*
X392762Y459038D01*
X392660Y459013D01*
X392560Y458985D01*
X392460Y458953D01*
X392362Y458917D01*
X392265Y458878D01*
X392170Y458836D01*
X392076Y458790D01*
X391984Y458740D01*
X391894Y458688D01*
X391806Y458632D01*
X391720Y458572D01*
X391636Y458510D01*
X391555Y458445D01*
X391476Y458377D01*
X391399Y458305D01*
X391326Y458232D01*
X391254Y458155D01*
X391186Y458076D01*
X391121Y457995D01*
X391059Y457911D01*
X390999Y457825D01*
X390943Y457737D01*
X390891Y457647D01*
X390841Y457555D01*
X390795Y457461D01*
X390753Y457366D01*
X390714Y457269D01*
X390678Y457171D01*
X390646Y457071D01*
X390618Y456971D01*
X390593Y456869D01*
X390573Y456767D01*
X390555Y456664D01*
X390542Y456561D01*
X390533Y456457D01*
X390527Y456352D01*
X390525Y456248D01*
X393383Y459105D02*
X393501Y459103D01*
X393620Y459097D01*
X393738Y459088D01*
X393855Y459075D01*
X393972Y459057D01*
X394089Y459037D01*
X394205Y459012D01*
X394320Y458984D01*
X394433Y458951D01*
X394546Y458916D01*
X394658Y458876D01*
X394768Y458834D01*
X394877Y458787D01*
X394985Y458737D01*
X395090Y458684D01*
X395194Y458627D01*
X395296Y458567D01*
X395396Y458504D01*
X395494Y458437D01*
X395590Y458368D01*
X395683Y458295D01*
X395774Y458219D01*
X395863Y458141D01*
X395949Y458059D01*
X396032Y457975D01*
X396113Y457889D01*
X396190Y457799D01*
X396265Y457708D01*
X396337Y457614D01*
X396406Y457517D01*
X396471Y457419D01*
X396534Y457318D01*
X396593Y457215D01*
X396649Y457111D01*
X396701Y457005D01*
X396750Y456897D01*
X396795Y456788D01*
X396837Y456677D01*
X396875Y456565D01*
X391477Y454026D02*
X391401Y454101D01*
X391326Y454180D01*
X391255Y454261D01*
X391186Y454345D01*
X391121Y454431D01*
X391059Y454519D01*
X390999Y454609D01*
X390943Y454701D01*
X390890Y454796D01*
X390841Y454892D01*
X390795Y454990D01*
X390752Y455089D01*
X390713Y455190D01*
X390678Y455292D01*
X390646Y455395D01*
X390618Y455499D01*
X390593Y455604D01*
X390572Y455711D01*
X390555Y455817D01*
X390542Y455924D01*
X390533Y456032D01*
X390527Y456140D01*
X390525Y456248D01*
X391478Y454025D02*
X396875Y447675D01*
X390525Y447675D01*
D19*
X453771Y420116D02*
X453771Y413004D01*
X453771Y420116D02*
X453769Y420248D01*
X453763Y420379D01*
X453753Y420511D01*
X453740Y420642D01*
X453722Y420772D01*
X453701Y420902D01*
X453676Y421032D01*
X453647Y421160D01*
X453614Y421288D01*
X453577Y421414D01*
X453537Y421540D01*
X453493Y421664D01*
X453445Y421787D01*
X453394Y421908D01*
X453339Y422028D01*
X453281Y422146D01*
X453219Y422262D01*
X453153Y422376D01*
X453085Y422489D01*
X453013Y422599D01*
X452938Y422707D01*
X452859Y422813D01*
X452778Y422917D01*
X452693Y423018D01*
X452606Y423116D01*
X452515Y423212D01*
X452422Y423305D01*
X452326Y423396D01*
X452228Y423483D01*
X452127Y423568D01*
X452023Y423649D01*
X451917Y423728D01*
X451809Y423803D01*
X451699Y423875D01*
X451586Y423943D01*
X451472Y424009D01*
X451356Y424071D01*
X451238Y424129D01*
X451118Y424184D01*
X450997Y424235D01*
X450874Y424283D01*
X450750Y424327D01*
X450624Y424367D01*
X450498Y424404D01*
X450370Y424437D01*
X450242Y424466D01*
X450112Y424491D01*
X449982Y424512D01*
X449852Y424530D01*
X449721Y424543D01*
X449589Y424553D01*
X449458Y424559D01*
X449326Y424561D01*
X449194Y424559D01*
X449063Y424553D01*
X448931Y424543D01*
X448800Y424530D01*
X448670Y424512D01*
X448540Y424491D01*
X448410Y424466D01*
X448282Y424437D01*
X448154Y424404D01*
X448028Y424367D01*
X447902Y424327D01*
X447778Y424283D01*
X447655Y424235D01*
X447534Y424184D01*
X447414Y424129D01*
X447296Y424071D01*
X447180Y424009D01*
X447066Y423943D01*
X446953Y423875D01*
X446843Y423803D01*
X446735Y423728D01*
X446629Y423649D01*
X446525Y423568D01*
X446424Y423483D01*
X446326Y423396D01*
X446230Y423305D01*
X446137Y423212D01*
X446046Y423116D01*
X445959Y423018D01*
X445874Y422917D01*
X445793Y422813D01*
X445714Y422707D01*
X445639Y422599D01*
X445567Y422489D01*
X445499Y422376D01*
X445433Y422262D01*
X445371Y422146D01*
X445313Y422028D01*
X445258Y421908D01*
X445207Y421787D01*
X445159Y421664D01*
X445115Y421540D01*
X445075Y421414D01*
X445038Y421288D01*
X445005Y421160D01*
X444976Y421032D01*
X444951Y420902D01*
X444930Y420772D01*
X444912Y420642D01*
X444899Y420511D01*
X444889Y420379D01*
X444883Y420248D01*
X444881Y420116D01*
X444881Y413004D01*
X444883Y412872D01*
X444889Y412741D01*
X444899Y412609D01*
X444912Y412478D01*
X444930Y412348D01*
X444951Y412218D01*
X444976Y412088D01*
X445005Y411960D01*
X445038Y411832D01*
X445075Y411706D01*
X445115Y411580D01*
X445159Y411456D01*
X445207Y411333D01*
X445258Y411212D01*
X445313Y411092D01*
X445371Y410974D01*
X445433Y410858D01*
X445499Y410744D01*
X445567Y410631D01*
X445639Y410521D01*
X445714Y410413D01*
X445793Y410307D01*
X445874Y410203D01*
X445959Y410102D01*
X446046Y410004D01*
X446137Y409908D01*
X446230Y409815D01*
X446326Y409724D01*
X446424Y409637D01*
X446525Y409552D01*
X446629Y409471D01*
X446735Y409392D01*
X446843Y409317D01*
X446953Y409245D01*
X447066Y409177D01*
X447180Y409111D01*
X447296Y409049D01*
X447414Y408991D01*
X447534Y408936D01*
X447655Y408885D01*
X447778Y408837D01*
X447902Y408793D01*
X448028Y408753D01*
X448154Y408716D01*
X448282Y408683D01*
X448410Y408654D01*
X448540Y408629D01*
X448670Y408608D01*
X448800Y408590D01*
X448931Y408577D01*
X449063Y408567D01*
X449194Y408561D01*
X449326Y408559D01*
X449458Y408561D01*
X449589Y408567D01*
X449721Y408577D01*
X449852Y408590D01*
X449982Y408608D01*
X450112Y408629D01*
X450242Y408654D01*
X450370Y408683D01*
X450498Y408716D01*
X450624Y408753D01*
X450750Y408793D01*
X450874Y408837D01*
X450997Y408885D01*
X451118Y408936D01*
X451238Y408991D01*
X451356Y409049D01*
X451472Y409111D01*
X451586Y409177D01*
X451699Y409245D01*
X451809Y409317D01*
X451917Y409392D01*
X452023Y409471D01*
X452127Y409552D01*
X452228Y409637D01*
X452326Y409724D01*
X452422Y409815D01*
X452515Y409908D01*
X452606Y410004D01*
X452693Y410102D01*
X452778Y410203D01*
X452859Y410307D01*
X452938Y410413D01*
X453013Y410521D01*
X453085Y410631D01*
X453153Y410744D01*
X453219Y410858D01*
X453281Y410974D01*
X453339Y411092D01*
X453394Y411212D01*
X453445Y411333D01*
X453493Y411456D01*
X453537Y411580D01*
X453577Y411706D01*
X453614Y411832D01*
X453647Y411960D01*
X453676Y412088D01*
X453701Y412218D01*
X453722Y412348D01*
X453740Y412478D01*
X453753Y412609D01*
X453763Y412741D01*
X453769Y412872D01*
X453771Y413004D01*
X437619Y413004D02*
X437619Y424561D01*
X437619Y413004D02*
X437617Y412872D01*
X437611Y412741D01*
X437601Y412609D01*
X437588Y412478D01*
X437570Y412348D01*
X437549Y412218D01*
X437524Y412088D01*
X437495Y411960D01*
X437462Y411832D01*
X437425Y411706D01*
X437385Y411580D01*
X437341Y411456D01*
X437293Y411333D01*
X437242Y411212D01*
X437187Y411092D01*
X437129Y410974D01*
X437067Y410858D01*
X437001Y410744D01*
X436933Y410631D01*
X436861Y410521D01*
X436786Y410413D01*
X436707Y410307D01*
X436626Y410203D01*
X436541Y410102D01*
X436454Y410004D01*
X436363Y409908D01*
X436270Y409815D01*
X436174Y409724D01*
X436076Y409637D01*
X435975Y409552D01*
X435871Y409471D01*
X435765Y409392D01*
X435657Y409317D01*
X435547Y409245D01*
X435434Y409177D01*
X435320Y409111D01*
X435204Y409049D01*
X435086Y408991D01*
X434966Y408936D01*
X434845Y408885D01*
X434722Y408837D01*
X434598Y408793D01*
X434472Y408753D01*
X434346Y408716D01*
X434218Y408683D01*
X434090Y408654D01*
X433960Y408629D01*
X433830Y408608D01*
X433700Y408590D01*
X433569Y408577D01*
X433437Y408567D01*
X433306Y408561D01*
X433174Y408559D01*
X433042Y408561D01*
X432911Y408567D01*
X432779Y408577D01*
X432648Y408590D01*
X432518Y408608D01*
X432388Y408629D01*
X432258Y408654D01*
X432130Y408683D01*
X432002Y408716D01*
X431876Y408753D01*
X431750Y408793D01*
X431626Y408837D01*
X431503Y408885D01*
X431382Y408936D01*
X431262Y408991D01*
X431144Y409049D01*
X431028Y409111D01*
X430914Y409177D01*
X430801Y409245D01*
X430691Y409317D01*
X430583Y409392D01*
X430477Y409471D01*
X430373Y409552D01*
X430272Y409637D01*
X430174Y409724D01*
X430078Y409815D01*
X429985Y409908D01*
X429894Y410004D01*
X429807Y410102D01*
X429722Y410203D01*
X429641Y410307D01*
X429562Y410413D01*
X429487Y410521D01*
X429415Y410631D01*
X429347Y410744D01*
X429281Y410858D01*
X429219Y410974D01*
X429161Y411092D01*
X429106Y411212D01*
X429055Y411333D01*
X429007Y411456D01*
X428963Y411580D01*
X428923Y411706D01*
X428886Y411832D01*
X428853Y411960D01*
X428824Y412088D01*
X428799Y412218D01*
X428778Y412348D01*
X428760Y412478D01*
X428747Y412609D01*
X428737Y412741D01*
X428731Y412872D01*
X428729Y413004D01*
X428729Y424561D01*
X418064Y424561D02*
X418064Y408559D01*
X422509Y424561D02*
X413619Y424561D01*
D18*
X908050Y430530D02*
X1022350Y430530D01*
X908050Y430530D02*
X908050Y509270D01*
X908050Y514350D01*
X1022350Y514350D02*
X1022350Y509270D01*
X1022350Y430530D01*
X1016000Y443230D02*
X1016000Y496570D01*
X1016000Y499110D01*
X914400Y499110D02*
X914400Y496570D01*
X914400Y443230D01*
X990600Y433070D02*
X991251Y433078D01*
X991901Y433102D01*
X992551Y433141D01*
X993199Y433197D01*
X993846Y433268D01*
X994491Y433355D01*
X995134Y433458D01*
X995774Y433577D01*
X996410Y433711D01*
X997044Y433860D01*
X997673Y434025D01*
X998299Y434205D01*
X998919Y434401D01*
X999535Y434611D01*
X1000146Y434837D01*
X1000750Y435077D01*
X1001349Y435332D01*
X1001942Y435602D01*
X1002527Y435886D01*
X1003106Y436184D01*
X1003677Y436496D01*
X1004240Y436822D01*
X1004795Y437162D01*
X1005342Y437515D01*
X1005880Y437881D01*
X1006409Y438260D01*
X1006928Y438652D01*
X1007438Y439057D01*
X1007937Y439474D01*
X1008427Y439903D01*
X1008905Y440344D01*
X1009373Y440796D01*
X1009830Y441260D01*
X1010275Y441735D01*
X1010708Y442220D01*
X1011130Y442716D01*
X1011539Y443222D01*
X1011936Y443738D01*
X990600Y433070D02*
X989949Y433078D01*
X989299Y433102D01*
X988649Y433141D01*
X988001Y433197D01*
X987354Y433268D01*
X986709Y433355D01*
X986066Y433458D01*
X985426Y433577D01*
X984790Y433711D01*
X984156Y433860D01*
X983527Y434025D01*
X982901Y434205D01*
X982281Y434401D01*
X981665Y434611D01*
X981054Y434837D01*
X980450Y435077D01*
X979851Y435332D01*
X979258Y435602D01*
X978673Y435886D01*
X978094Y436184D01*
X977523Y436496D01*
X976960Y436822D01*
X976405Y437162D01*
X975858Y437515D01*
X975320Y437881D01*
X974791Y438260D01*
X974272Y438652D01*
X973762Y439057D01*
X973263Y439474D01*
X972773Y439903D01*
X972295Y440344D01*
X971827Y440796D01*
X971370Y441260D01*
X970925Y441735D01*
X970492Y442220D01*
X970070Y442716D01*
X969661Y443222D01*
X969264Y443738D01*
X969010Y443230D02*
X961390Y443230D01*
X1011682Y443230D02*
X1016000Y443230D01*
X961136Y443738D02*
X960739Y443222D01*
X960330Y442716D01*
X959908Y442220D01*
X959475Y441735D01*
X959030Y441260D01*
X958573Y440796D01*
X958105Y440344D01*
X957627Y439903D01*
X957137Y439474D01*
X956638Y439057D01*
X956128Y438652D01*
X955609Y438260D01*
X955080Y437881D01*
X954542Y437515D01*
X953995Y437162D01*
X953440Y436822D01*
X952877Y436496D01*
X952306Y436184D01*
X951727Y435886D01*
X951142Y435602D01*
X950549Y435332D01*
X949950Y435077D01*
X949346Y434837D01*
X948735Y434611D01*
X948119Y434401D01*
X947499Y434205D01*
X946873Y434025D01*
X946244Y433860D01*
X945610Y433711D01*
X944974Y433577D01*
X944334Y433458D01*
X943691Y433355D01*
X943046Y433268D01*
X942399Y433197D01*
X941751Y433141D01*
X941101Y433102D01*
X940451Y433078D01*
X939800Y433070D01*
X939149Y433078D01*
X938499Y433102D01*
X937849Y433141D01*
X937201Y433197D01*
X936554Y433268D01*
X935909Y433355D01*
X935266Y433458D01*
X934626Y433577D01*
X933990Y433711D01*
X933356Y433860D01*
X932727Y434025D01*
X932101Y434205D01*
X931481Y434401D01*
X930865Y434611D01*
X930254Y434837D01*
X929650Y435077D01*
X929051Y435332D01*
X928458Y435602D01*
X927873Y435886D01*
X927294Y436184D01*
X926723Y436496D01*
X926160Y436822D01*
X925605Y437162D01*
X925058Y437515D01*
X924520Y437881D01*
X923991Y438260D01*
X923472Y438652D01*
X922962Y439057D01*
X922463Y439474D01*
X921973Y439903D01*
X921495Y440344D01*
X921027Y440796D01*
X920570Y441260D01*
X920125Y441735D01*
X919692Y442220D01*
X919270Y442716D01*
X918861Y443222D01*
X918464Y443738D01*
X918718Y443230D02*
X914400Y443230D01*
X995680Y496570D02*
X1016000Y496570D01*
X995680Y496570D02*
X985520Y496570D01*
X944880Y496570D01*
X934720Y496570D01*
X914400Y496570D01*
X995680Y514350D02*
X1022350Y514350D01*
X995680Y514350D02*
X985520Y514350D01*
X944880Y514350D01*
X934720Y514350D01*
X908050Y514350D01*
X944880Y514350D02*
X944880Y496570D01*
X934720Y496570D02*
X934720Y514350D01*
X998220Y509270D02*
X1022350Y509270D01*
X982980Y509270D02*
X947420Y509270D01*
X944880Y514350D01*
X947420Y509270D02*
X947420Y499110D01*
X944880Y496570D01*
X947420Y499110D02*
X982980Y499110D01*
X998220Y499110D02*
X1016000Y499110D01*
X934720Y514350D02*
X932180Y509270D01*
X908050Y509270D01*
X932180Y509270D02*
X932180Y499110D01*
X934720Y496570D01*
X932180Y499110D02*
X914400Y499110D01*
X985520Y496570D02*
X985520Y514350D01*
X995680Y514350D02*
X995680Y496570D01*
X998220Y499110D02*
X998220Y509270D01*
X982980Y509270D02*
X982980Y499110D01*
X982980Y509270D02*
X985520Y514350D01*
X995680Y514350D02*
X998220Y509270D01*
X998220Y499110D02*
X995680Y496570D01*
X985520Y496570D02*
X982980Y499110D01*
D17*
X1008380Y459105D02*
X1011555Y456565D01*
X1008380Y459105D02*
X1008380Y447675D01*
X1011555Y447675D02*
X1005205Y447675D01*
X961073Y459106D02*
X960969Y459104D01*
X960864Y459098D01*
X960760Y459089D01*
X960657Y459076D01*
X960554Y459058D01*
X960452Y459038D01*
X960350Y459013D01*
X960250Y458985D01*
X960150Y458953D01*
X960052Y458917D01*
X959955Y458878D01*
X959860Y458836D01*
X959766Y458790D01*
X959674Y458740D01*
X959584Y458688D01*
X959496Y458632D01*
X959410Y458572D01*
X959326Y458510D01*
X959245Y458445D01*
X959166Y458377D01*
X959089Y458305D01*
X959016Y458232D01*
X958944Y458155D01*
X958876Y458076D01*
X958811Y457995D01*
X958749Y457911D01*
X958689Y457825D01*
X958633Y457737D01*
X958581Y457647D01*
X958531Y457555D01*
X958485Y457461D01*
X958443Y457366D01*
X958404Y457269D01*
X958368Y457171D01*
X958336Y457071D01*
X958308Y456971D01*
X958283Y456869D01*
X958263Y456767D01*
X958245Y456664D01*
X958232Y456561D01*
X958223Y456457D01*
X958217Y456352D01*
X958215Y456248D01*
X961073Y459105D02*
X961191Y459103D01*
X961310Y459097D01*
X961428Y459088D01*
X961545Y459075D01*
X961662Y459057D01*
X961779Y459037D01*
X961895Y459012D01*
X962010Y458984D01*
X962123Y458951D01*
X962236Y458916D01*
X962348Y458876D01*
X962458Y458834D01*
X962567Y458787D01*
X962675Y458737D01*
X962780Y458684D01*
X962884Y458627D01*
X962986Y458567D01*
X963086Y458504D01*
X963184Y458437D01*
X963280Y458368D01*
X963373Y458295D01*
X963464Y458219D01*
X963553Y458141D01*
X963639Y458059D01*
X963722Y457975D01*
X963803Y457889D01*
X963880Y457799D01*
X963955Y457708D01*
X964027Y457614D01*
X964096Y457517D01*
X964161Y457419D01*
X964224Y457318D01*
X964283Y457215D01*
X964339Y457111D01*
X964391Y457005D01*
X964440Y456897D01*
X964485Y456788D01*
X964527Y456677D01*
X964565Y456565D01*
X959167Y454026D02*
X959091Y454101D01*
X959016Y454180D01*
X958945Y454261D01*
X958876Y454345D01*
X958811Y454431D01*
X958749Y454519D01*
X958689Y454609D01*
X958633Y454701D01*
X958580Y454796D01*
X958531Y454892D01*
X958485Y454990D01*
X958442Y455089D01*
X958403Y455190D01*
X958368Y455292D01*
X958336Y455395D01*
X958308Y455499D01*
X958283Y455604D01*
X958262Y455711D01*
X958245Y455817D01*
X958232Y455924D01*
X958223Y456032D01*
X958217Y456140D01*
X958215Y456248D01*
X959168Y454025D02*
X964565Y447675D01*
X958215Y447675D01*
D19*
X1021461Y424561D02*
X1021461Y408559D01*
X1021461Y424561D02*
X1017016Y424561D01*
X1016884Y424559D01*
X1016753Y424553D01*
X1016621Y424543D01*
X1016490Y424530D01*
X1016360Y424512D01*
X1016230Y424491D01*
X1016100Y424466D01*
X1015972Y424437D01*
X1015844Y424404D01*
X1015718Y424367D01*
X1015592Y424327D01*
X1015468Y424283D01*
X1015345Y424235D01*
X1015224Y424184D01*
X1015104Y424129D01*
X1014986Y424071D01*
X1014870Y424009D01*
X1014756Y423943D01*
X1014643Y423875D01*
X1014533Y423803D01*
X1014425Y423728D01*
X1014319Y423649D01*
X1014215Y423568D01*
X1014114Y423483D01*
X1014016Y423396D01*
X1013920Y423305D01*
X1013827Y423212D01*
X1013736Y423116D01*
X1013649Y423018D01*
X1013564Y422917D01*
X1013483Y422813D01*
X1013404Y422707D01*
X1013329Y422599D01*
X1013257Y422489D01*
X1013189Y422376D01*
X1013123Y422262D01*
X1013061Y422146D01*
X1013003Y422028D01*
X1012948Y421908D01*
X1012897Y421787D01*
X1012849Y421664D01*
X1012805Y421540D01*
X1012765Y421414D01*
X1012728Y421288D01*
X1012695Y421160D01*
X1012666Y421032D01*
X1012641Y420902D01*
X1012620Y420772D01*
X1012602Y420642D01*
X1012589Y420511D01*
X1012579Y420379D01*
X1012573Y420248D01*
X1012571Y420116D01*
X1012573Y419984D01*
X1012579Y419853D01*
X1012589Y419721D01*
X1012602Y419590D01*
X1012620Y419460D01*
X1012641Y419330D01*
X1012666Y419200D01*
X1012695Y419072D01*
X1012728Y418944D01*
X1012765Y418818D01*
X1012805Y418692D01*
X1012849Y418568D01*
X1012897Y418445D01*
X1012948Y418324D01*
X1013003Y418204D01*
X1013061Y418086D01*
X1013123Y417970D01*
X1013189Y417856D01*
X1013257Y417743D01*
X1013329Y417633D01*
X1013404Y417525D01*
X1013483Y417419D01*
X1013564Y417315D01*
X1013649Y417214D01*
X1013736Y417116D01*
X1013827Y417020D01*
X1013920Y416927D01*
X1014016Y416836D01*
X1014114Y416749D01*
X1014215Y416664D01*
X1014319Y416583D01*
X1014425Y416504D01*
X1014533Y416429D01*
X1014643Y416357D01*
X1014756Y416289D01*
X1014870Y416223D01*
X1014986Y416161D01*
X1015104Y416103D01*
X1015224Y416048D01*
X1015345Y415997D01*
X1015468Y415949D01*
X1015592Y415905D01*
X1015718Y415865D01*
X1015844Y415828D01*
X1015972Y415795D01*
X1016100Y415766D01*
X1016230Y415741D01*
X1016360Y415720D01*
X1016490Y415702D01*
X1016621Y415689D01*
X1016753Y415679D01*
X1016884Y415673D01*
X1017016Y415671D01*
X1021461Y415671D01*
X1016127Y415671D02*
X1012571Y408559D01*
X1006605Y406781D02*
X999493Y406781D01*
X989913Y408559D02*
X986357Y408559D01*
X989913Y408559D02*
X990029Y408561D01*
X990146Y408567D01*
X990262Y408576D01*
X990377Y408589D01*
X990492Y408606D01*
X990607Y408627D01*
X990720Y408652D01*
X990833Y408680D01*
X990945Y408712D01*
X991056Y408748D01*
X991166Y408787D01*
X991274Y408830D01*
X991381Y408876D01*
X991486Y408926D01*
X991589Y408979D01*
X991691Y409035D01*
X991791Y409095D01*
X991889Y409158D01*
X991984Y409225D01*
X992078Y409294D01*
X992169Y409366D01*
X992258Y409441D01*
X992344Y409520D01*
X992427Y409601D01*
X992508Y409684D01*
X992587Y409770D01*
X992662Y409859D01*
X992734Y409950D01*
X992803Y410044D01*
X992870Y410139D01*
X992933Y410237D01*
X992993Y410337D01*
X993049Y410439D01*
X993102Y410542D01*
X993152Y410647D01*
X993198Y410754D01*
X993241Y410862D01*
X993280Y410972D01*
X993316Y411083D01*
X993348Y411195D01*
X993376Y411308D01*
X993401Y411421D01*
X993422Y411536D01*
X993439Y411651D01*
X993452Y411766D01*
X993461Y411882D01*
X993467Y411999D01*
X993469Y412115D01*
X993469Y421005D01*
X993467Y421121D01*
X993461Y421238D01*
X993452Y421354D01*
X993439Y421469D01*
X993422Y421584D01*
X993401Y421699D01*
X993376Y421812D01*
X993348Y421925D01*
X993316Y422037D01*
X993280Y422148D01*
X993241Y422258D01*
X993198Y422366D01*
X993152Y422473D01*
X993102Y422578D01*
X993049Y422681D01*
X992993Y422783D01*
X992933Y422883D01*
X992870Y422981D01*
X992803Y423076D01*
X992734Y423170D01*
X992662Y423261D01*
X992587Y423350D01*
X992508Y423436D01*
X992427Y423519D01*
X992344Y423600D01*
X992258Y423679D01*
X992169Y423754D01*
X992078Y423826D01*
X991984Y423895D01*
X991889Y423962D01*
X991791Y424025D01*
X991691Y424085D01*
X991589Y424141D01*
X991486Y424194D01*
X991381Y424244D01*
X991274Y424290D01*
X991166Y424333D01*
X991056Y424372D01*
X990945Y424408D01*
X990833Y424440D01*
X990720Y424468D01*
X990607Y424493D01*
X990492Y424514D01*
X990377Y424531D01*
X990262Y424544D01*
X990146Y424553D01*
X990029Y424559D01*
X989913Y424561D01*
X986357Y424561D01*
X980400Y420116D02*
X980400Y413004D01*
X980400Y420116D02*
X980398Y420248D01*
X980392Y420379D01*
X980382Y420511D01*
X980369Y420642D01*
X980351Y420772D01*
X980330Y420902D01*
X980305Y421032D01*
X980276Y421160D01*
X980243Y421288D01*
X980206Y421414D01*
X980166Y421540D01*
X980122Y421664D01*
X980074Y421787D01*
X980023Y421908D01*
X979968Y422028D01*
X979910Y422146D01*
X979848Y422262D01*
X979782Y422376D01*
X979714Y422489D01*
X979642Y422599D01*
X979567Y422707D01*
X979488Y422813D01*
X979407Y422917D01*
X979322Y423018D01*
X979235Y423116D01*
X979144Y423212D01*
X979051Y423305D01*
X978955Y423396D01*
X978857Y423483D01*
X978756Y423568D01*
X978652Y423649D01*
X978546Y423728D01*
X978438Y423803D01*
X978328Y423875D01*
X978215Y423943D01*
X978101Y424009D01*
X977985Y424071D01*
X977867Y424129D01*
X977747Y424184D01*
X977626Y424235D01*
X977503Y424283D01*
X977379Y424327D01*
X977253Y424367D01*
X977127Y424404D01*
X976999Y424437D01*
X976871Y424466D01*
X976741Y424491D01*
X976611Y424512D01*
X976481Y424530D01*
X976350Y424543D01*
X976218Y424553D01*
X976087Y424559D01*
X975955Y424561D01*
X975823Y424559D01*
X975692Y424553D01*
X975560Y424543D01*
X975429Y424530D01*
X975299Y424512D01*
X975169Y424491D01*
X975039Y424466D01*
X974911Y424437D01*
X974783Y424404D01*
X974657Y424367D01*
X974531Y424327D01*
X974407Y424283D01*
X974284Y424235D01*
X974163Y424184D01*
X974043Y424129D01*
X973925Y424071D01*
X973809Y424009D01*
X973695Y423943D01*
X973582Y423875D01*
X973472Y423803D01*
X973364Y423728D01*
X973258Y423649D01*
X973154Y423568D01*
X973053Y423483D01*
X972955Y423396D01*
X972859Y423305D01*
X972766Y423212D01*
X972675Y423116D01*
X972588Y423018D01*
X972503Y422917D01*
X972422Y422813D01*
X972343Y422707D01*
X972268Y422599D01*
X972196Y422489D01*
X972128Y422376D01*
X972062Y422262D01*
X972000Y422146D01*
X971942Y422028D01*
X971887Y421908D01*
X971836Y421787D01*
X971788Y421664D01*
X971744Y421540D01*
X971704Y421414D01*
X971667Y421288D01*
X971634Y421160D01*
X971605Y421032D01*
X971580Y420902D01*
X971559Y420772D01*
X971541Y420642D01*
X971528Y420511D01*
X971518Y420379D01*
X971512Y420248D01*
X971510Y420116D01*
X971510Y413004D01*
X971512Y412872D01*
X971518Y412741D01*
X971528Y412609D01*
X971541Y412478D01*
X971559Y412348D01*
X971580Y412218D01*
X971605Y412088D01*
X971634Y411960D01*
X971667Y411832D01*
X971704Y411706D01*
X971744Y411580D01*
X971788Y411456D01*
X971836Y411333D01*
X971887Y411212D01*
X971942Y411092D01*
X972000Y410974D01*
X972062Y410858D01*
X972128Y410744D01*
X972196Y410631D01*
X972268Y410521D01*
X972343Y410413D01*
X972422Y410307D01*
X972503Y410203D01*
X972588Y410102D01*
X972675Y410004D01*
X972766Y409908D01*
X972859Y409815D01*
X972955Y409724D01*
X973053Y409637D01*
X973154Y409552D01*
X973258Y409471D01*
X973364Y409392D01*
X973472Y409317D01*
X973582Y409245D01*
X973695Y409177D01*
X973809Y409111D01*
X973925Y409049D01*
X974043Y408991D01*
X974163Y408936D01*
X974284Y408885D01*
X974407Y408837D01*
X974531Y408793D01*
X974657Y408753D01*
X974783Y408716D01*
X974911Y408683D01*
X975039Y408654D01*
X975169Y408629D01*
X975299Y408608D01*
X975429Y408590D01*
X975560Y408577D01*
X975692Y408567D01*
X975823Y408561D01*
X975955Y408559D01*
X976087Y408561D01*
X976218Y408567D01*
X976350Y408577D01*
X976481Y408590D01*
X976611Y408608D01*
X976741Y408629D01*
X976871Y408654D01*
X976999Y408683D01*
X977127Y408716D01*
X977253Y408753D01*
X977379Y408793D01*
X977503Y408837D01*
X977626Y408885D01*
X977747Y408936D01*
X977867Y408991D01*
X977985Y409049D01*
X978101Y409111D01*
X978215Y409177D01*
X978328Y409245D01*
X978438Y409317D01*
X978546Y409392D01*
X978652Y409471D01*
X978756Y409552D01*
X978857Y409637D01*
X978955Y409724D01*
X979051Y409815D01*
X979144Y409908D01*
X979235Y410004D01*
X979322Y410102D01*
X979407Y410203D01*
X979488Y410307D01*
X979567Y410413D01*
X979642Y410521D01*
X979714Y410631D01*
X979782Y410744D01*
X979848Y410858D01*
X979910Y410974D01*
X979968Y411092D01*
X980023Y411212D01*
X980074Y411333D01*
X980122Y411456D01*
X980166Y411580D01*
X980206Y411706D01*
X980243Y411832D01*
X980276Y411960D01*
X980305Y412088D01*
X980330Y412218D01*
X980351Y412348D01*
X980369Y412478D01*
X980382Y412609D01*
X980392Y412741D01*
X980398Y412872D01*
X980400Y413004D01*
X964247Y408559D02*
X964247Y424561D01*
X955357Y408559D01*
X955357Y424561D01*
D20*
X149140Y126670D02*
X149140Y53670D01*
X149140Y126670D02*
X91390Y126670D01*
X91390Y53670D02*
X149140Y53670D01*
X91390Y53670D02*
X91390Y126670D01*
D10*
X88632Y116381D02*
X76948Y108592D01*
X76948Y116381D02*
X88632Y108592D01*
X88632Y123267D02*
X79544Y120671D01*
X79544Y127162D01*
X82141Y125215D02*
X76948Y125215D01*
M02*
