G04 EAGLE Gerber RS-274X export*
G75*
%MOMM*%
%FSLAX34Y34*%
%LPD*%
%INSolderpaste Bottom*%
%IPPOS*%
%AMOC8*
5,1,8,0,0,1.08239X$1,22.5*%
G01*
%ADD10R,1.100000X1.000000*%
%ADD11R,1.000000X1.100000*%
%ADD12R,2.540000X2.670000*%
%ADD13R,1.270000X0.762000*%
%ADD14R,1.500000X0.650000*%
%ADD15R,5.400000X3.000000*%
%ADD16R,3.000000X1.300000*%
%ADD17R,8.450000X7.500000*%
%ADD18R,2.250000X1.550000*%
%ADD19R,1.600000X1.803000*%
%ADD20R,3.810000X2.032000*%
%ADD21R,9.652000X10.922000*%
%ADD22R,1.600000X3.500000*%


D10*
X703190Y154940D03*
X686190Y154940D03*
X704460Y78740D03*
X687460Y78740D03*
X708270Y325120D03*
X691270Y325120D03*
D11*
X836930Y334890D03*
X836930Y317890D03*
X857250Y334890D03*
X857250Y317890D03*
X974090Y231530D03*
X974090Y248530D03*
D12*
X580390Y112395D03*
D13*
X580390Y88885D03*
D14*
X722960Y135890D03*
X722960Y123190D03*
X722960Y110490D03*
X722960Y97790D03*
X668960Y97790D03*
X668960Y110490D03*
X668960Y123190D03*
X668960Y135890D03*
X799160Y339090D03*
X799160Y326390D03*
X799160Y313690D03*
X799160Y300990D03*
X745160Y300990D03*
X745160Y313690D03*
X745160Y326390D03*
X745160Y339090D03*
D15*
X610870Y165630D03*
X610870Y263630D03*
D16*
X684150Y417830D03*
D17*
X787400Y443230D03*
D16*
X684150Y468630D03*
D18*
X818400Y398230D03*
X818400Y488230D03*
D10*
X626110Y108830D03*
X626110Y91830D03*
X646430Y108830D03*
X646430Y91830D03*
X350520Y375040D03*
X350520Y392040D03*
X372110Y392040D03*
X372110Y375040D03*
X933450Y232020D03*
X933450Y215020D03*
X994410Y230750D03*
X994410Y213750D03*
D19*
X679200Y346710D03*
X707640Y346710D03*
D10*
X953770Y231530D03*
X953770Y248530D03*
D20*
X184150Y417830D03*
X184150Y468630D03*
D21*
X285750Y443230D03*
D22*
X713740Y208220D03*
X713740Y264220D03*
M02*
