M48
;GenerationSoftware,Autodesk,EAGLE,9.6.2*%
;CreationDate,2022-06-13T15:19:09Z*%
FMAT,2
ICI,OFF
METRIC,TZ,000.000
T9C0.500
T8C0.700
T7C0.800
T6C1.000
T5C1.100
T4C1.150
T3C1.397
T2C3.200
%
G90
M71
T2
X104140Y48260
X2540Y48260
X2540Y2540
X104140Y2540
T3
X93980Y46863
X12700Y46863
X7620Y46863
X99060Y46863
X37211Y46863
X42291Y46863
T4
X43434Y30226
X38354Y14986
X40894Y30226
X38354Y30226
X35814Y30226
X33274Y30226
X30734Y30226
X28194Y30226
X25654Y30226
X23114Y30226
X20574Y30226
X18034Y30226
X15494Y30226
X12954Y30226
X10414Y30226
X7874Y30226
X40894Y14986
X7874Y14986
X10414Y14986
X12954Y14986
X15494Y14986
X18034Y14986
X20574Y14986
X23114Y14986
X25654Y14986
X28194Y14986
X30734Y14986
X33274Y14986
X35814Y14986
X43434Y14986
T5
X54991Y37652
X54991Y45152
T6
X94020Y19576
X99020Y34076
X94020Y34076
X99020Y19576
X96520Y19576
T7
X71374Y17780
X60833Y11684
X48006Y30226
X7620Y42164
X17907Y18034
X91948Y19558
X97282Y13335
X63246Y48768
X46736Y48768
X32512Y11938
X66802Y6226
X88138Y30861
X37211Y41021
X82495Y29461
X65786Y41783
X65786Y34671
X45847Y30226
X36322Y26162
X96139Y36322
X81915Y32639
T8
X10414Y6767
X10414Y11267
X10414Y9767
X10414Y8267
T9
X77724Y42672
X80264Y45847
X78994Y45847
X77724Y45847
X76454Y45847
X75184Y45847
X80264Y41148
X78994Y41148
X77724Y41148
X76454Y41148
X75184Y41148
X80264Y42672
X78994Y42672
X78994Y44323
X76454Y42672
X75184Y42672
X80264Y44323
X75184Y47371
X76454Y47371
X77724Y47371
X78994Y47371
X80264Y47371
X75184Y44323
X76454Y44323
X77724Y44323
M30